<?xml version="1.0" encoding="utf-8"?>
<!-- Generator: Adobe Illustrator 21.1.0, SVG Export Plug-In . SVG Version: 6.00 Build 0)  -->
<svg xmlns="http://www.w3.org/2000/svg" xmlns:xlink="http://www.w3.org/1999/xlink" version="1.1" id="Layer_1" x="0px" y="0px" viewBox="0 0 200 200" enable-background="new 0 0 200 200" xml:space="preserve">
<path fill="#3b2f4e" d="M197.8,108.6l-0.1-0.1c-3.3-3.9-8-6.1-13.1-6.1c-1.3,0-2.6,0.2-3.9,0.5c1-2,2-4,2.8-6.2  c3.2-2.9,5.2-6.9,5.5-11.3c0.3-4.5-1.1-8.9-4.1-12.4l-0.1-0.1c-0.9-1-2.4-1.1-3.4-0.2l-0.1,0.1c-6.8,5.8-7.8,15.9-2.6,23  c-3.5,8.4-8.5,15.6-14.5,21.3V94.1c0.6-0.2,1-0.6,1.3-1.2c4.3-8.4,5.7-17.7,4.7-26.8c3.8-0.6,7.2-2.5,9.8-5.4  c3.1-3.4,4.6-7.7,4.4-12.3v-0.1c-0.1-1.3-1.2-2.3-2.5-2.3h-0.2c-4.5,0.2-8.7,2.2-11.8,5.5c-0.9,1-1.7,2.1-2.3,3.3  c-0.9-2.7-2.1-5.4-3.5-8v-2c2.9-1.3,5.4-3.3,7.3-6c2.6-3.8,3.5-8.3,2.7-12.8l0-0.1c-0.2-1.3-1.5-2.2-2.8-1.9l-0.1,0  c-4.5,0.8-8.3,3.4-10.9,7.1c-1.2,1.8-2.1,3.7-2.5,5.8c-2.2-2.8-4.7-5.4-7.4-7.8c2.6-2.5,4.4-5.7,5.1-9.3c0.8-4.5-0.1-9-2.7-12.7  L152.7,7c-0.3-0.5-0.9-0.9-1.5-1c-0.6-0.1-1.3,0-1.8,0.4l-0.1,0.1c-3.7,2.6-6.3,6.5-7.1,10.9c-0.3,1.8-0.4,3.6-0.1,5.4  c-1.9-1.2-3.8-2.3-5.9-3.4c-3.2-4.3-8.3-6.8-13.6-6.8c-3.5,0-6.9,1.1-9.8,3.1l-0.1,0.1c-0.5,0.4-0.9,0.9-1,1.6  c-0.1,0.6,0,1.3,0.4,1.8l0.1,0.1c3.2,4.5,8.4,7.2,13.9,7.2c3.1,0,6.1-0.8,8.7-2.4c2.6,1.3,5,2.9,7.2,4.5c-5.5,1.2-10,5.1-12.1,10.3  H70.1C68,33.6,63.5,29.7,58,28.5c2.3-1.6,4.7-3.1,7.2-4.5c2.6,1.6,5.6,2.4,8.7,2.4l0,0c5.5,0,10.7-2.7,13.9-7.2l0.1-0.1  c0.8-1.1,0.5-2.6-0.6-3.3l-0.1-0.1c-2.9-2-6.3-3.1-9.8-3.1c-5.4,0-10.4,2.5-13.6,6.8c-2,1-4,2.2-5.9,3.4c0.2-1.8,0.2-3.6-0.1-5.4  c-0.8-4.5-3.3-8.4-7.1-11l-0.1-0.1c-0.5-0.3-1.2-0.5-1.8-0.4c-0.6,0.1-1.2,0.5-1.5,1L47.2,7c-4.8,7-3.7,16.4,2.4,22.1  c-2.7,2.4-5.2,5.1-7.4,7.8c-1.5-6.4-6.6-11.6-13.5-12.9l-0.1,0c-1.3-0.2-2.6,0.6-2.8,1.9l0,0.1c-1.5,7.9,2.8,15.7,10,18.8v2  c-1.4,2.6-2.5,5.3-3.5,8c-0.6-1.2-1.4-2.3-2.3-3.3c-3.1-3.4-7.2-5.3-11.8-5.5H18c-1.3-0.1-2.4,1-2.5,2.3v0.1  c-0.2,4.5,1.3,8.9,4.4,12.3c2.6,2.9,6.1,4.7,9.8,5.4c-1,9.1,0.4,18.3,4.7,26.8c0.3,0.6,0.8,1,1.3,1.2v23  c-6.1-5.8-11.1-13.1-14.5-21.3c2.4-3.3,3.6-7.2,3.3-11.3c-0.3-4.5-2.4-8.7-5.9-11.6l-0.1-0.1c-1-0.9-2.5-0.8-3.4,0.2L15.1,73  c-3,3.4-4.4,7.9-4.1,12.4c0.3,4.4,2.3,8.4,5.5,11.3c0.8,2.1,1.8,4.2,2.8,6.2c-1.3-0.3-2.6-0.5-3.9-0.5c-5.1,0-9.8,2.2-13.1,6.1  l-0.1,0.1c-0.4,0.5-0.6,1.1-0.5,1.7c0.1,0.6,0.3,1.2,0.9,1.6l0.1,0.1c3.1,2.6,6.9,4,10.9,4l0,0c4.2,0,8.2-1.5,11.2-4.2  c3.2,4.4,6.9,8.2,11,11.6v17.9l-0.1,0.1c-6.5,2.7-10.5,9-10.5,15.6c-2.1-1.9-4.1-3.9-5.9-6.1c1.3-3.8,1.2-8-0.4-11.8  c-1.7-4.2-5-7.5-9.1-9.3l-0.1-0.1c-0.6-0.2-1.2-0.2-1.8,0c-0.6,0.2-1,0.7-1.3,1.3l-0.1,0.1c-1.8,4.2-1.8,8.8-0.1,13  c1.7,4.1,4.7,7.3,8.7,9.1c1.5,1.7,3,3.4,4.6,5c-6.4,0.5-12,4.5-14.4,10.6l-0.1,0.1c-0.2,0.6-0.2,1.2,0,1.8s0.7,1,1.3,1.3l0.1,0.1  c2,0.8,4.2,1.3,6.4,1.3l0,0c6.1,0,11.6-3.2,14.6-8.3c2.9,2.1,6,4,9.2,5.5c-1.9,0.9-3.6,2.2-5,3.7c-3.1,3.3-4.7,7.6-4.6,12.2v0.1  c0,0.6,0.3,1.2,0.8,1.7c0.5,0.4,1,0.6,1.6,0.6c0,0,0.1,0,0.1,0h0.1c8.4-0.3,15.2-6.6,16.3-14.7c2.3,0.7,4.7,1.3,7.1,1.7  c1.1,0.2,2.2,0.3,3.3,0.5c-4.3,3.8-6.6,9.6-5.5,15.7l0,0.1c0.2,1.2,1.2,2,2.3,2c0.1,0,0.3,0,0.4,0l0.1,0c8.6-1.5,14.6-9.2,14.1-17.7  c8.7-0.9,16.8-4,23.7-9.2h5l-2.3,3.2c-4.4,6.2-4.4,16.1,0,22.3c0.8,1.1,2.3,1.3,3.3,0.6c1.1-0.8,1.3-2.3,0.6-3.3  c-3.2-4.5-3.2-12.2,0-16.8l1.6-2.2l1.6,2.2c3.2,4.5,3.2,12.2,0,16.8c-0.8,1.1-0.5,2.6,0.6,3.3c0.4,0.3,0.9,0.4,1.4,0.4  c0.8,0,1.5-0.3,2-1c4.4-6.2,4.4-16.1,0-22.3l-2.3-3.2h5.3c6.9,5.2,15,8.3,23.7,9.2c-0.4,8.5,5.5,16.2,14.1,17.7l0.1,0  c0.1,0,0.3,0,0.4,0c1.1,0,2.2-0.8,2.3-2l0-0.1c1-6-1.3-11.9-5.5-15.7c1.1-0.1,2.2-0.3,3.3-0.5c2.4-0.4,4.8-1,7.1-1.7  c0.5,3.5,2,6.7,4.4,9.3c3.1,3.3,7.3,5.2,11.9,5.4h0.1c0,0,0.1,0,0.1,0c0.6,0,1.2-0.2,1.6-0.6c0.5-0.4,0.7-1,0.8-1.7v-0.1  c0.2-6.9-3.8-13.1-9.7-15.9c3.2-1.6,6.3-3.4,9.2-5.5c3,5.1,8.5,8.3,14.6,8.3c2.2,0,4.4-0.4,6.4-1.3l0.1-0.1c0.6-0.2,1-0.7,1.3-1.3  c0.2-0.6,0.2-1.2,0-1.8l-0.1-0.1c-2.4-6-8-10.1-14.4-10.6c1.6-1.6,3.1-3.2,4.6-5c4-1.8,7.1-5,8.7-9.1c1.7-4.2,1.7-8.9-0.1-13  l-0.1-0.1c-0.2-0.6-0.7-1-1.3-1.3c-0.6-0.2-1.2-0.2-1.8,0l-0.1,0.1c-4.2,1.8-7.5,5.1-9.2,9.3c-1.6,3.8-1.7,7.9-0.4,11.8  c-1.9,2.2-3.8,4.2-5.9,6.1c0-2.2-0.5-4.4-1.3-6.5c-1.7-4.2-5-7.5-9.2-9.2l-0.1-0.1v-17.9c4-3.3,7.7-7.2,11-11.5  c3.1,2.7,7.1,4.3,11.2,4.3c4,0,7.9-1.4,10.9-4l0.1-0.1c0.5-0.4,0.8-1,0.9-1.6C198.4,109.7,198.2,109.1,197.8,108.6z M173.6,54.9  c1.6-1.8,3.7-3,6-3.6c-0.4,2.3-1.4,4.5-3,6.3c-1.6,1.8-3.7,3-6,3.6C170.9,58.8,171.9,56.6,173.6,54.9z M126,21.6  c-3.1,0-6.1-1.2-8.4-3.3c1.5-0.7,3.2-1,4.9-1c3.1,0,6.1,1.2,8.4,3.3C129.4,21.2,127.7,21.6,126,21.6z M77.5,17.3  c1.7,0,3.3,0.3,4.9,1c-2.3,2.1-5.2,3.3-8.4,3.3c-1.7,0-3.3-0.3-4.9-1C71.4,18.5,74.4,17.3,77.5,17.3z M23.5,57.5  c-1.6-1.8-2.7-4-3-6.3c2.3,0.6,4.4,1.8,6,3.6c1.6,1.8,2.7,4,3,6.3C27.2,60.6,25.1,59.3,23.5,57.5z M18.2,91.6  c-1.5-1.9-2.3-4.1-2.5-6.5c-0.2-2.4,0.3-4.8,1.5-6.9c1.5,1.9,2.3,4.1,2.5,6.5C19.9,87.1,19.4,89.5,18.2,91.6z M13.6,111.2  c-2,0-4-0.5-5.8-1.5c2.2-1.7,4.8-2.6,7.6-2.6c2,0,4,0.5,5.8,1.5C19,110.3,16.3,111.2,13.6,111.2z M15,147.8c-2-1.3-3.5-3.2-4.4-5.5  c-0.9-2.2-1.1-4.7-0.7-7C14,138.1,15.9,143,15,147.8z M12.9,168.5c-0.8,0-1.5-0.1-2.2-0.2c2.2-3.4,6-5.4,10.2-5.4  c0.7,0,1.5,0.1,2.2,0.2C20.8,166.5,17,168.5,12.9,168.5z M185.7,140.8c0.9-2.2,2.4-4.1,4.4-5.5c0.5,2.3,0.2,4.7-0.7,7  c-0.9,2.2-2.4,4.1-4.4,5.5C184.5,145.5,184.7,143.1,185.7,140.8z M179.2,162.9c4.2,0,7.9,2.1,10.2,5.4c-0.7,0.1-1.5,0.2-2.2,0.2  c-4.2,0-7.9-2.1-10.2-5.4C177.7,163,178.4,162.9,179.2,162.9z M40.5,162.5V43.5h118.9v118.9H40.5z M165.7,68.4  c0.3,4.9-0.1,9.9-1.4,14.6V69.4C164.7,69.1,165.2,68.8,165.7,68.4z M164.3,33.8c1.4-2,3.3-3.5,5.4-4.4c-0.1,2.4-0.8,4.7-2.2,6.7  c-1,1.5-2.3,2.7-3.8,3.6c-0.3-0.5-0.9-0.8-1.5-0.9C162.5,37,163.2,35.3,164.3,33.8z M153.1,38.8h-5.8c0.9-1.2,1.7-2.4,2.3-3.8  C150.9,36.2,152,37.4,153.1,38.8z M146.8,18.2c0.4-2.4,1.6-4.5,3.2-6.2c0.9,2.2,1.2,4.6,0.8,7c-0.4,2.4-1.6,4.5-3.2,6.2  C146.7,22.9,146.4,20.5,146.8,18.2z M145.4,32.8c-1,2.5-2.8,4.6-5,6h-5.1C137.3,35.2,141.1,32.9,145.4,32.8z M64.8,38.8h-5.1  c-2.3-1.4-4-3.4-5-6C58.9,32.9,62.7,35.2,64.8,38.8z M50,11.9c1.6,1.7,2.7,3.8,3.2,6.2c0.4,2.4,0.2,4.8-0.8,7  C49.1,21.6,48.1,16.4,50,11.9z M50.4,34.9c0.6,1.4,1.3,2.7,2.3,3.8h-5.8C48,37.4,49.2,36.2,50.4,34.9z M30.3,29.4  c4,1.6,6.8,5.2,7.4,9.4c-0.6,0.1-1.1,0.4-1.5,0.9C32.7,37.6,30.4,33.7,30.3,29.4z M34.4,68.4c0.5,0.3,0.9,0.7,1.4,1v13.6  C34.4,78.3,34,73.4,34.4,68.4z M30.1,159.3c-0.9-4.8,1.2-9.7,5.2-12.4C36.2,151.7,34.1,156.6,30.1,159.3z M35.8,160.6v4  c-0.9-0.5-1.8-1-2.7-1.6C34.1,162.3,35,161.5,35.8,160.6z M32,183.8c0.4-2.3,1.5-4.5,3.1-6.3c1.7-1.8,3.7-3,6.1-3.5  C40.4,178.8,36.7,182.7,32,183.8z M53.9,171.2c-4.5-0.8-8.9-2.1-13.1-4h17c0.4,1.6,1,3.2,1.8,4.7C57.8,171.8,55.9,171.6,53.9,171.2z   M55.4,188.8c0.2-4.8,3.2-9.2,7.7-11C63,182.6,59.9,187,55.4,188.8z M62.9,167.3h2.9c-0.3,1.1-0.7,2.1-1.3,3.1  C63.7,169.4,63.2,168.3,62.9,167.3z M69.2,171.5c0.7-1.3,1.1-2.8,1.4-4.3h12C78.5,169.4,74,170.8,69.2,171.5z M117.4,167.3h12  c0.3,1.5,0.8,2.9,1.4,4.3C126,170.8,121.5,169.4,117.4,167.3z M134.2,167.3h2.9c-0.4,1.1-0.9,2.2-1.6,3.1  C135,169.4,134.6,168.3,134.2,167.3z M144.6,188.8c-4.5-1.8-7.6-6.1-7.7-11C141.3,179.6,144.4,183.9,144.6,188.8z M146.1,171.2  c-1.9,0.3-3.9,0.5-5.8,0.6c0.8-1.5,1.5-3,1.9-4.7h17C155,169.1,150.6,170.5,146.1,171.2z M168,183.8c-2.3-0.5-4.4-1.7-6.1-3.5  c-1.7-1.8-2.7-3.9-3.1-6.3C163.5,175.2,167.2,179,168,183.8z M164.8,146.9c2,1.3,3.5,3.2,4.4,5.4s1.2,4.6,0.8,7  C165.9,156.6,163.9,151.7,164.8,146.9z M167,163c-0.9,0.6-1.8,1.1-2.7,1.6v-4C165.1,161.5,166,162.3,167,163z M182.8,78.2  c1.2,2.1,1.7,4.4,1.5,6.8c-0.2,2.4-1,4.7-2.5,6.5C179.4,87.3,179.9,82,182.8,78.2z M186.4,111.2c-2.8,0-5.4-0.9-7.6-2.6  c1.8-0.9,3.8-1.5,5.8-1.5c2.8,0,5.4,0.9,7.6,2.6C190.5,110.7,188.5,111.2,186.4,111.2z"/>
<g transform="translate(23.2 42.4) scale(0.15)"><path d="m326.9 316.12v0.02h-4.99v18.01l5.12 0.02c4.44 0.02 5.17 0.04 5.57 0.13 0.25 0.06 0.7 0.17 1 0.26 0.3 0.1 0.8 0.29 1.13 0.45 0.32 0.15 0.87 0.46 1.22 0.69 0.4 0.27 0.88 0.67 1.32 1.11s0.84 0.92 1.11 1.32c0.23 0.34 0.53 0.87 0.66 1.16 0.14 0.29 0.33 0.74 0.42 1.01s0.22 0.75 0.29 1.07l0.14 0.57 0.04 12.89c0.03 9.09 0.06 13.05 0.11 13.45 0.04 0.31 0.12 0.87 0.17 1.25s0.18 1.09 0.28 1.59 0.31 1.35 0.46 1.88 0.41 1.33 0.57 1.78c0.16 0.44 0.43 1.13 0.6 1.53 0.17 0.39 0.54 1.17 0.83 1.72 0.28 0.55 0.77 1.41 1.08 1.9 0.3 0.49 0.85 1.29 1.22 1.78 0.36 0.49 0.86 1.12 1.11 1.41 0.25 0.28 0.45 0.54 0.45 0.57 0 0.04-0.2 0.3-0.45 0.58-0.25 0.29-0.75 0.92-1.11 1.41-0.37 0.49-0.92 1.29-1.23 1.78s-0.84 1.46-1.19 2.15c-0.35 0.68-0.8 1.68-1.01 2.22-0.21 0.53-0.5 1.33-0.64 1.77-0.14 0.45-0.35 1.21-0.47 1.69-0.12 0.49-0.29 1.29-0.37 1.79-0.09 0.5-0.21 1.29-0.27 1.75l-0.11 0.85-0.03 12.88-0.04 12.89-0.14 0.57c-0.07 0.32-0.2 0.8-0.29 1.07-0.1 0.26-0.28 0.72-0.42 1.01-0.13 0.29-0.43 0.81-0.66 1.16-0.27 0.4-0.67 0.88-1.11 1.32s-0.92 0.84-1.32 1.11c-0.34 0.23-0.87 0.53-1.16 0.66-0.29 0.14-0.75 0.33-1.02 0.42-0.28 0.09-0.76 0.23-1.07 0.3l-0.56 0.13-5.11 0.02-5.12 0.02v18.01h4.96c2.73 0 5.35-0.03 5.83-0.06 0.48-0.04 1.23-0.11 1.66-0.16 0.43-0.06 1.15-0.17 1.59-0.26 0.45-0.08 1.24-0.26 1.76-0.4 0.53-0.13 1.29-0.36 1.71-0.49 0.41-0.14 1.11-0.4 1.55-0.57 0.43-0.18 1.16-0.5 1.61-0.71 0.45-0.22 1.12-0.56 1.48-0.76s0.92-0.54 1.24-0.74c0.33-0.21 0.88-0.57 1.23-0.81 0.34-0.25 0.97-0.73 1.4-1.07 0.43-0.35 1.24-1.08 1.81-1.63 0.56-0.55 1.29-1.31 1.62-1.69 0.32-0.38 0.82-1 1.11-1.38 0.28-0.38 0.68-0.94 0.89-1.25 0.2-0.31 0.54-0.83 0.74-1.16 0.2-0.32 0.6-1.07 0.9-1.65 0.3-0.59 0.69-1.43 0.88-1.88 0.18-0.45 0.47-1.22 0.63-1.72 0.17-0.5 0.41-1.27 0.53-1.72 0.11-0.45 0.26-1.09 0.33-1.42s0.17-0.88 0.23-1.22c0.05-0.34 0.14-0.98 0.2-1.43 0.09-0.71 0.1-2.36 0.14-13.69l0.04-12.89 0.13-0.56c0.07-0.31 0.2-0.79 0.3-1.07 0.09-0.27 0.28-0.73 0.41-1.02 0.14-0.29 0.44-0.82 0.67-1.16 0.26-0.41 0.66-0.88 1.11-1.32 0.44-0.44 0.91-0.84 1.32-1.11 0.34-0.23 0.86-0.53 1.15-0.67 0.29-0.13 0.75-0.32 1.02-0.41s0.75-0.22 1.06-0.29l0.58-0.14 5.11-0.02 5.12-0.02v-18.03l-5.12-0.02-5.11-0.02-0.58-0.14c-0.31-0.07-0.79-0.2-1.06-0.29s-0.75-0.29-1.06-0.44-0.83-0.45-1.16-0.67c-0.35-0.23-0.86-0.66-1.27-1.08-0.45-0.44-0.85-0.92-1.11-1.32-0.23-0.34-0.53-0.86-0.67-1.15-0.13-0.3-0.32-0.76-0.41-1.03-0.1-0.28-0.23-0.76-0.3-1.07l-0.13-0.56-0.04-12.89c-0.03-11.52-0.05-12.97-0.14-13.7-0.06-0.45-0.15-1.09-0.2-1.43-0.06-0.33-0.16-0.88-0.23-1.21-0.07-0.34-0.22-0.97-0.33-1.42-0.12-0.45-0.34-1.17-0.48-1.6s-0.4-1.13-0.57-1.56c-0.18-0.43-0.49-1.15-0.71-1.6-0.21-0.46-0.54-1.09-0.72-1.41s-0.51-0.88-0.74-1.24c-0.22-0.37-0.64-0.99-0.92-1.39-0.29-0.4-0.78-1.04-1.1-1.43-0.32-0.4-1.02-1.16-1.55-1.71s-1.28-1.26-1.66-1.59c-0.38-0.32-1.01-0.84-1.41-1.14s-1.05-0.75-1.44-1.01c-0.4-0.26-1.05-0.66-1.47-0.9-0.41-0.23-1.17-0.63-1.69-0.87-0.51-0.25-1.37-0.63-1.9-0.83-0.54-0.21-1.35-0.49-1.82-0.63-0.46-0.14-1.12-0.33-1.47-0.41-0.34-0.09-0.99-0.23-1.44-0.31-0.44-0.09-1.16-0.2-1.59-0.26-0.43-0.05-1.16-0.12-1.63-0.16-0.46-0.03-3.08-0.06-5.83-0.06zm-41.02 0.01l-5.14 0.02c-2.83 0.01-5.27 0.02-5.43 0.03-0.15 0.01-0.6 0.05-1 0.09-0.39 0.03-1.07 0.12-1.5 0.19-0.43 0.06-1.06 0.17-1.41 0.24-0.34 0.08-0.99 0.23-1.44 0.34-0.44 0.12-1.16 0.34-1.59 0.48s-1.13 0.4-1.57 0.58c-0.43 0.17-1.15 0.49-1.6 0.7-0.45 0.22-1.09 0.54-1.41 0.72s-0.88 0.51-1.24 0.74c-0.36 0.22-0.98 0.64-1.38 0.93-0.4 0.28-1.05 0.77-1.44 1.09s-1.16 1.02-1.7 1.55c-0.55 0.54-1.27 1.28-1.59 1.66-0.33 0.38-0.83 1-1.11 1.38-0.29 0.38-0.69 0.95-0.91 1.27-0.21 0.32-0.59 0.91-0.83 1.31s-0.67 1.21-0.95 1.8c-0.29 0.58-0.66 1.41-0.83 1.84-0.18 0.43-0.43 1.14-0.58 1.57-0.14 0.43-0.37 1.2-0.5 1.72-0.14 0.51-0.31 1.3-0.4 1.75-0.09 0.44-0.2 1.19-0.25 1.66-0.06 0.46-0.12 0.92-0.14 1.03-0.02 0.1-0.06 6.01-0.08 13.13l-0.04 12.95-0.14 0.57c-0.07 0.32-0.21 0.8-0.3 1.07s-0.27 0.72-0.41 1.01c-0.13 0.3-0.43 0.82-0.66 1.16-0.27 0.4-0.67 0.88-1.11 1.32s-0.92 0.84-1.32 1.11c-0.35 0.23-0.87 0.53-1.16 0.66-0.29 0.14-0.75 0.33-1.03 0.42-0.27 0.09-0.75 0.23-1.06 0.3l-0.56 0.13-5.12 0.02-5.11 0.02v18.01l5.11 0.02c4.45 0.02 5.18 0.04 5.58 0.13 0.25 0.05 0.7 0.17 1 0.26 0.29 0.09 0.8 0.29 1.13 0.44 0.32 0.16 0.87 0.47 1.22 0.7 0.4 0.27 0.88 0.66 1.32 1.11 0.44 0.44 0.84 0.91 1.11 1.32 0.23 0.34 0.53 0.87 0.66 1.16 0.14 0.29 0.32 0.74 0.41 1.01s0.23 0.75 0.3 1.07l0.14 0.57 0.04 12.95c0.02 7.12 0.06 13.03 0.08 13.13 0.02 0.11 0.08 0.57 0.14 1.04 0.05 0.46 0.17 1.21 0.25 1.65 0.09 0.45 0.26 1.24 0.4 1.75 0.13 0.52 0.36 1.29 0.5 1.72 0.15 0.43 0.4 1.14 0.58 1.57 0.17 0.43 0.54 1.26 0.83 1.84 0.28 0.59 0.71 1.4 0.95 1.8s0.62 0.99 0.83 1.31c0.22 0.32 0.62 0.89 0.91 1.27 0.28 0.38 0.78 1 1.11 1.38 0.32 0.38 1.04 1.12 1.59 1.66 0.54 0.53 1.31 1.23 1.7 1.55s1.04 0.81 1.44 1.1c0.4 0.28 1.02 0.7 1.38 0.92 0.36 0.23 0.95 0.58 1.32 0.78 0.36 0.2 0.99 0.52 1.4 0.71 0.42 0.2 1.1 0.5 1.53 0.67 0.44 0.18 1.14 0.44 1.57 0.58s1.15 0.36 1.59 0.47c0.45 0.12 1.09 0.27 1.42 0.34s0.88 0.17 1.22 0.22c0.34 0.06 0.97 0.15 1.4 0.2 0.64 0.09 1.74 0.11 6.33 0.13l5.55 0.03v-18.02l-5.11-0.02-5.11-0.02-0.58-0.14c-0.32-0.07-0.79-0.21-1.06-0.3s-0.73-0.27-1.02-0.41c-0.29-0.13-0.81-0.43-1.16-0.66-0.4-0.27-0.87-0.67-1.32-1.11-0.44-0.44-0.84-0.92-1.1-1.32-0.23-0.35-0.53-0.87-0.67-1.16s-0.32-0.75-0.42-1.03c-0.09-0.27-0.22-0.75-0.29-1.06l-0.13-0.56-0.04-12.89c-0.03-9.08-0.07-13.05-0.12-13.45-0.03-0.31-0.11-0.87-0.16-1.25-0.06-0.38-0.19-1.09-0.29-1.59s-0.3-1.35-0.46-1.88c-0.15-0.53-0.4-1.33-0.57-1.78-0.16-0.44-0.43-1.13-0.6-1.53-0.17-0.39-0.54-1.17-0.82-1.72-0.29-0.55-0.77-1.41-1.08-1.9s-0.86-1.29-1.23-1.78c-0.36-0.49-0.86-1.12-1.11-1.4-0.24-0.3-0.44-0.55-0.44-0.59s0.2-0.3 0.44-0.58c0.25-0.28 0.75-0.91 1.11-1.4 0.37-0.49 0.92-1.29 1.23-1.79 0.31-0.49 0.79-1.34 1.07-1.89 0.29-0.55 0.66-1.34 0.84-1.75 0.17-0.41 0.44-1.09 0.59-1.51 0.16-0.42 0.41-1.21 0.56-1.75 0.16-0.54 0.37-1.4 0.47-1.9s0.23-1.22 0.28-1.6c0.06-0.38 0.13-0.94 0.17-1.25 0.05-0.4 0.09-4.37 0.11-13.45l0.04-12.88 0.14-0.56c0.07-0.31 0.2-0.79 0.29-1.07 0.1-0.27 0.28-0.74 0.42-1.03s0.43-0.81 0.66-1.16c0.27-0.4 0.67-0.87 1.11-1.32 0.45-0.44 0.92-0.84 1.32-1.1 0.35-0.23 0.87-0.53 1.16-0.67 0.29-0.13 0.75-0.32 1.02-0.41 0.26-0.09 0.74-0.22 1.06-0.3l0.57-0.13 5.12-0.02 5.11-0.03v-18.01zm356.91 0.56a8.5677 8.5677 0 0 0 -8.57 8.57 8.5677 8.5677 0 0 0 8.57 8.56 8.5677 8.5677 0 0 0 8.57 -8.56 8.5677 8.5677 0 0 0 -8.57 -8.57zm16.87 6.28v17.39 12.48 18.26c0 10.38 8.44 18.82 18.82 18.82 3.91 0 7.67-1.19 10.85-3.45l-8.8-12.45c-0.42 0.29-1.11 0.64-2.05 0.64-1.96 0-3.56-1.59-3.56-3.56v-18.26h11.29v-12.48h-11.29v-17.39h-15.26zm-208.88 15.96c-3.63 0-7.09 0.77-10.22 2.14v-1.09h-15.25v68.59h15.25v-20.85c3.13 1.38 6.59 2.15 10.22 2.15 14.04 0 25.47-11.43 25.47-25.47 0-14.05-11.43-25.47-25.47-25.47zm150.57 0c-13.75 0-24.95 11.19-24.95 24.95v24.9h15.26v-24.9c0-5.35 4.35-9.7 9.69-9.7 5.35 0 9.7 4.35 9.7 9.7v24.9h15.26v-24.9c0-13.76-11.2-24.95-24.96-24.95zm-82.66 1.03v24.9c0 13.76 11.19 24.95 24.95 24.95s24.95-11.19 24.95-24.95v-24.9h-15.25v24.9c0 5.35-4.35 9.7-9.7 9.7s-9.7-4.35-9.7-9.7v-24.9h-15.25zm173.17 0l16.64 48.8-6.75 19.79h15.95l6.75-19.79 16.64-48.8h-15.95l-8.67 25.41-8.66-25.41h-15.95zm-56.7 0.09v48.8h15.25v-48.8h-15.25zm-153.61 10.41v14.72h30.58v-14.72h-30.58zm-30.77 3.72c5.63 0 10.21 4.58 10.21 10.22 0 5.63-4.58 10.21-10.21 10.21-5.64 0-10.22-4.58-10.22-10.21 0-5.64 4.58-10.22 10.22-10.22zm-146.67 2.52c-0.52-0.01-1.14 0.01-1.38 0.04s-0.71 0.13-1.04 0.21-0.81 0.24-1.08 0.34c-0.26 0.11-0.64 0.28-0.84 0.38s-0.63 0.36-0.95 0.57c-0.36 0.24-0.86 0.67-1.28 1.09-0.45 0.44-0.84 0.91-1.11 1.32-0.23 0.34-0.53 0.87-0.67 1.16-0.14 0.3-0.34 0.79-0.44 1.11-0.1 0.31-0.23 0.81-0.29 1.12-0.08 0.39-0.11 0.85-0.11 1.64s0.03 1.25 0.11 1.64c0.06 0.3 0.19 0.81 0.29 1.12s0.3 0.81 0.44 1.11c0.14 0.29 0.44 0.82 0.67 1.16 0.26 0.4 0.66 0.88 1.11 1.32 0.44 0.44 0.91 0.84 1.32 1.11 0.34 0.23 0.86 0.53 1.15 0.66 0.29 0.14 0.75 0.32 1.02 0.41 0.27 0.1 0.76 0.23 1.09 0.3 0.49 0.11 0.83 0.13 1.74 0.14 0.83 0 1.27-0.03 1.68-0.11 0.3-0.06 0.78-0.18 1.06-0.27s0.77-0.28 1.1-0.44c0.32-0.15 0.87-0.46 1.22-0.69 0.41-0.27 0.87-0.66 1.32-1.11 0.44-0.44 0.84-0.92 1.11-1.32 0.23-0.34 0.53-0.87 0.66-1.16 0.14-0.29 0.32-0.74 0.41-1.01s0.23-0.77 0.3-1.1c0.11-0.5 0.14-0.81 0.14-1.76s-0.03-1.27-0.14-1.76c-0.07-0.34-0.21-0.83-0.3-1.1s-0.27-0.73-0.41-1.02c-0.13-0.29-0.43-0.81-0.66-1.15-0.27-0.4-0.67-0.89-1.11-1.32-0.45-0.46-0.91-0.84-1.32-1.11-0.35-0.23-0.9-0.55-1.22-0.7-0.33-0.15-0.82-0.34-1.09-0.43-0.28-0.09-0.75-0.2-1.04-0.26s-0.94-0.12-1.46-0.13zm0 36.03c-0.52-0.01-1.14 0.01-1.38 0.04s-0.71 0.13-1.04 0.21-0.81 0.24-1.08 0.34c-0.26 0.11-0.64 0.28-0.84 0.38s-0.63 0.36-0.95 0.57c-0.36 0.24-0.86 0.67-1.28 1.09-0.45 0.44-0.84 0.91-1.11 1.32-0.23 0.34-0.53 0.87-0.67 1.16s-0.34 0.79-0.44 1.11c-0.1 0.31-0.23 0.81-0.29 1.11-0.08 0.4-0.11 0.86-0.11 1.65s0.03 1.24 0.11 1.64c0.06 0.3 0.19 0.81 0.29 1.12s0.3 0.81 0.44 1.11c0.14 0.29 0.44 0.81 0.67 1.16 0.26 0.4 0.66 0.88 1.11 1.32 0.44 0.44 0.91 0.84 1.32 1.11 0.34 0.23 0.86 0.53 1.15 0.66 0.29 0.14 0.75 0.32 1.02 0.41s0.76 0.23 1.09 0.3c0.49 0.11 0.83 0.13 1.74 0.14 0.83 0 1.27-0.03 1.68-0.11 0.3-0.06 0.78-0.18 1.06-0.27s0.77-0.29 1.1-0.44c0.32-0.15 0.87-0.46 1.22-0.69 0.41-0.27 0.87-0.66 1.32-1.11 0.44-0.44 0.84-0.92 1.11-1.32 0.23-0.35 0.53-0.87 0.66-1.16 0.14-0.29 0.32-0.74 0.41-1.01s0.23-0.77 0.3-1.1c0.11-0.5 0.14-0.81 0.14-1.76s-0.03-1.27-0.14-1.76c-0.07-0.34-0.21-0.83-0.3-1.1s-0.27-0.73-0.41-1.02c-0.13-0.29-0.43-0.81-0.66-1.15-0.27-0.4-0.67-0.89-1.11-1.32-0.45-0.46-0.91-0.84-1.32-1.11-0.35-0.23-0.9-0.55-1.22-0.7-0.33-0.15-0.82-0.34-1.09-0.43-0.28-0.09-0.75-0.21-1.04-0.26-0.29-0.06-0.94-0.12-1.46-0.13zm173.81 35.6c-1.15 0-2.11 0.96-2.11 2.14 0 1.15 0.96 2.11 2.11 2.11 1.18 0 2.14-0.96 2.14-2.11 0-1.18-0.96-2.14-2.14-2.14zm26.12 0c-6.49 0-11.77 5.25-11.77 11.78 0 6.49 5.28 11.77 11.77 11.77 2.79 0 5.99-0.99 8.1-2.5 0.42-0.28 0.74-0.57 0.93-0.96 0.22-0.48 0.22-0.92 0.22-1.5v-5.02c0-1.16-0.92-2.11-2.11-2.11-1.18 0-2.11 0.95-2.11 2.11v4.41c-1.41 0.8-3.36 1.31-5.03 1.31-4.16 0-7.51-3.35-7.51-7.51s3.35-7.53 7.51-7.53c2.02 0 3.59 0.68 4.93 1.35 1.03 0.54 2.31 0.67 2.95-0.22 0.67-0.96 0.6-2.25-0.29-2.98-2.43-1.99-5.44-2.4-7.59-2.4zm123.32 0c-1.15 0-2.11 0.96-2.11 2.11 0 1.19 0.96 2.14 2.11 2.14 1.19 0 2.15-0.95 2.15-2.14 0-1.15-0.96-2.11-2.15-2.11zm43.12 0c-6.49 0-11.77 5.25-11.77 11.78 0 6.49 5.28 11.77 11.77 11.77 2.79 0 5.99-0.99 8.1-2.5 0.41-0.28 0.74-0.57 0.93-0.96 0.22-0.48 0.22-0.92 0.22-1.5v-5.02c0-1.16-0.93-2.11-2.11-2.11s-2.11 0.95-2.11 2.11v4.41c-1.41 0.8-3.36 1.31-5.03 1.31-4.16 0-7.52-3.35-7.52-7.51s3.36-7.53 7.52-7.53c2.02 0 3.59 0.68 4.93 1.35 1.02 0.54 2.31 0.67 2.95-0.22 0.67-0.96 0.6-2.25-0.29-2.98-2.44-1.99-5.44-2.4-7.59-2.4zm78.63 0c-1.15 0-2.11 0.96-2.11 2.11 0 1.19 0.96 2.14 2.11 2.14 1.19 0 2.15-0.95 2.15-2.14 0-1.15-0.96-2.11-2.15-2.11zm-111.73 0.57c-0.35 0-0.69 0.09-0.99 0.26-1.02 0.54-1.12 1.5-1.12 2.3v17.73c0 1.16 0.96 2.11 2.11 2.11 1.19 0 2.15-0.95 2.15-2.11v-12.67l11.1 13.6c0.35 0.42 0.61 0.7 1.09 0.96 0.9 0.45 1.7 0.16 2.21-0.22 0.64-0.55 0.8-1.19 0.8-1.92v-11.59c0-1.15-0.96-2.11-2.15-2.11-1.15 0-2.11 0.96-2.11 2.14v6.34l-11.23-13.79c-0.62-0.72-1.27-1.02-1.86-1.03zm86.5 0c-0.35 0-0.69 0.09-0.99 0.26-1.02 0.54-1.12 1.5-1.12 2.3v17.73c0 1.16 0.96 2.11 2.11 2.11 1.19 0 2.15-0.95 2.15-2.11v-12.67l11.1 13.6c0.35 0.42 0.61 0.7 1.09 0.96 0.9 0.45 1.7 0.16 2.21-0.22 0.64-0.55 0.8-1.19 0.8-1.92v-11.59c0-1.15-0.96-2.11-2.15-2.11-1.15 0-2.11 0.96-2.11 2.14v6.34l-11.23-13.79c-0.62-0.72-1.27-1.02-1.86-1.03zm-296.46 0c-1.15 0-2.11 0.96-2.11 2.12v18.17c0 1.16 0.96 2.11 2.11 2.11 1.18 0 2.14-0.95 2.14-2.11v-16.03h5.96c2.56 0 2.75 2.63 2.75 3.46 0 0.67-0.26 1.4-0.64 2.04-0.61 1-0.32 2.31 0.7 2.92 0.99 0.64 2.3 0.32 2.91-0.68 0.8-1.31 1.25-2.84 1.25-4.28 0-3.71-2.17-7.72-6.97-7.72h-8.1zm21.03 0c-1.15 0-2.12 0.96-2.12 2.12v18.17c0 1.16 0.97 2.11 2.12 2.11 1.18 0 2.14-0.95 2.14-2.11v-5.76h4.64l0.96 1.54c0.61 0.99 1.92 1.28 2.91 0.64 1.95-1.25 0.39-3.3 0.39-3.3 2.2-1.25 3.39-3.52 3.39-6.27 0-4.35-2.98-7.14-7.55-7.14h-6.88zm71.93 0c-1.15 0-2.11 0.96-2.11 2.12v18.17c0 1.16 0.96 2.11 2.11 2.11 1.19 0 2.15-0.95 2.15-2.11v-5.76h4.64l0.96 1.54c0.61 0.99 1.92 1.28 2.91 0.64 1.95-1.25 0.38-3.3 0.38-3.3 2.21-1.25 3.4-3.52 3.4-6.27 0-4.35-2.98-7.14-7.56-7.14h-6.88zm28.49 0c-0.84 0-1.57 0.49-1.92 1.22l-8.64 18.14c-0.48 1.06-0.04 2.34 1.02 2.85 1.06 0.48 2.3 0.03 2.82-1.02l2.01-4.22h10.75c0.74 0 1.38-0.39 1.76-0.97 0.74-1.08 0.16-2.01-0.19-2.75l-5.69-12.03c-0.36-0.73-1.12-1.22-1.92-1.22zm103.75 0c-1.19 0-2.15 0.93-2.15 2.12 0 1.18 0.96 2.11 2.15 2.11 1.15 0 2.11-0.93 2.11-2.11 0-1.19-0.96-2.12-2.11-2.12zm46.63 0c-1.15 0-2.11 0.96-2.11 2.12v10.85c0 5.98 3.94 10.01 9.76 10.01 6.72 0 9.76-5.18 9.76-10.01v-4.49c0-1.15-0.96-2.11-2.11-2.11-1.19 0-2.15 0.96-2.15 2.11v4.49c0 2.78-1.44 5.75-5.5 5.75-4.99 0-5.5-3.99-5.5-5.75v-10.85c0-1.16-0.96-2.12-2.15-2.12zm15.3 0c-1.19 0-2.15 0.96-2.15 2.12 0 1.18 0.96 2.14 2.15 2.14 1.15 0 2.11-0.96 2.11-2.14 0-1.16-0.96-2.12-2.11-2.12zm24.57 0c-1.19 0-2.15 0.93-2.15 2.12 0 1.18 0.96 2.11 2.15 2.11 1.15 0 2.11-0.93 2.11-2.11 0-1.19-0.96-2.12-2.11-2.12zm17.77 0c-1.15 0-2.11 0.96-2.11 2.12 0 1.18 0.96 2.14 2.11 2.14h4.64v16.03c0 1.16 0.93 2.11 2.12 2.11 1.18 0 2.11-0.95 2.11-2.11v-18.17c0-1.16-0.83-2.12-2.11-2.12h-6.76zm13.51 0c-1.19 0-2.15 0.96-2.15 2.12 0 1.18 0.96 2.14 2.15 2.14 1.15 0 2.11-0.96 2.11-2.14 0-1.16-0.96-2.12-2.11-2.12zm19.65 0c-1.19 0-2.11 0.96-2.11 2.12 0 1.18 0.92 2.14 2.11 2.14 1.18 0 2.11-0.96 2.11-2.14 0-1.16-0.93-2.12-2.11-2.12zm-13.56 0.01c-0.4-0.02-0.82 0.09-1.19 0.31-1 0.64-1.28 1.96-0.68 2.95l6.53 10.24-0.03 6.78c0 1.16 0.96 2.11 2.14 2.11 1.16 0 2.12-0.95 2.12-2.11v-6.85l3.04-4.76c0.64-1 0.35-2.31-0.64-2.95-0.99-0.61-2.31-0.32-2.95 0.67l-1.6 2.53-5.02-7.93c-0.38-0.62-1.04-0.97-1.72-0.99zm-210.79 0c-0.12 0.01-0.23 0.03-0.35 0.06-0.96 0.25-1.6 1.09-1.6 2.05v18.17c0 1.16 0.96 2.11 2.11 2.11 1.19 0 2.15-0.95 2.15-2.11v-10.85l5.95 11.85c0.38 0.7 1.09 1.11 1.86 1.11 0.76 0 1.47-0.41 1.85-1.08l6.24-12.07v4.67c0 1.16 0.96 2.12 2.11 2.12 1.19 0 2.15-0.96 2.15-2.12v-11.8c0-0.96-0.67-1.8-1.6-2.05-0.93-0.23-1.92 0.19-2.37 1.02l-8.35 15.46-8.13-15.42c-0.39-0.76-1.2-1.17-2.02-1.12zm30.81 0c-0.11 0.01-0.23 0.03-0.35 0.06-0.96 0.25-1.6 1.09-1.6 2.05v18.17c0 1.16 0.96 2.11 2.12 2.11 1.18 0 2.14-0.95 2.14-2.11v-10.85l5.95 11.85c0.39 0.7 1.09 1.11 1.86 1.11s1.47-0.41 1.85-1.08l6.24-12.07v4.67c0 1.16 0.96 2.12 2.12 2.12 1.18 0 2.14-0.96 2.14-2.12v-11.8c0-0.96-0.67-1.8-1.6-2.05-0.93-0.23-1.92 0.19-2.37 1.02l-8.35 15.46-8.13-15.42c-0.39-0.76-1.2-1.17-2.02-1.12zm-124.68 1.48c-0.41 0.03-0.8 0.17-1.14 0.43-2.88 2.28-4.55 5.6-4.55 9.25 0 6.53 5.28 11.81 11.78 11.81s11.81-5.28 11.81-11.81c0-3.65-1.67-6.97-4.55-9.25-0.92-0.7-2.27-0.54-2.97 0.39-0.74 0.89-0.58 2.24 0.35 2.98 1.86 1.44 2.91 3.55 2.91 5.88 0 4.16-3.39 7.55-7.55 7.55s-7.52-3.39-7.52-7.55c0-2.33 1.06-4.44 2.88-5.88 0.93-0.74 1.09-2.09 0.38-2.98-0.46-0.58-1.15-0.86-1.83-0.82zm-21.24 2.64h4.74c2.2 0 3.29 1.31 3.29 3.27 0 1.79-0.86 3.45-3.39 3.45h-4.64v-6.72zm71.94 0h4.73c2.21 0 3.3 1.31 3.3 3.27 0 1.79-0.86 3.45-3.39 3.45h-4.64v-6.72zm104.83 1.67c-1.15 0-2.11 0.96-2.11 2.11v12.38c0 1.16 0.96 2.11 2.11 2.11 1.19 0 2.15-0.95 2.15-2.11v-12.38c0-1.15-0.96-2.11-2.15-2.11zm121.75 0c-1.15 0-2.11 0.96-2.11 2.11v12.38c0 1.16 0.96 2.11 2.11 2.11 1.19 0 2.15-0.95 2.15-2.11v-12.38c0-1.15-0.96-2.11-2.15-2.11zm-200.24 1.25l3 6.27h-5.98l2.98-6.27zm-44.02 3.84c-1.19 0-2.15 0.95-2.15 2.11 0 1.18 0.96 2.14 2.15 2.14 1.15 0 2.11-0.96 2.11-2.14 0-1.16-0.96-2.11-2.11-2.11zm166.43 0c-1.18 0-2.14 0.95-2.14 2.11 0 1.18 0.96 2.14 2.14 2.14 1.16 0 2.11-0.96 2.11-2.14 0-1.16-0.95-2.11-2.11-2.11zm-237.49 0.22c-1.15 0-2.11 0.96-2.11 2.11 0 1.19 0.96 2.14 2.11 2.14 1.18 0 2.11-0.95 2.11-2.14 0-1.15-0.93-2.11-2.11-2.11zm27.65 7.01c-1.15 0-2.11 0.96-2.11 2.14 0 1.15 0.96 2.11 2.11 2.11 1.18 0 2.11-0.96 2.11-2.11 0-1.18-0.93-2.14-2.11-2.14zm71.94 0c-1.16 0-2.12 0.96-2.12 2.14 0 1.15 0.96 2.11 2.12 2.11 1.18 0 2.11-0.96 2.11-2.11 0-1.18-0.93-2.14-2.11-2.14zm24.09 0.03c-1.15 0-2.11 0.96-2.11 2.14 0 1.16 0.96 2.11 2.11 2.11 1.19 0 2.15-0.95 2.15-2.11 0-1.18-0.96-2.14-2.15-2.14zm28.55 0c-1.15 0-2.11 0.96-2.11 2.14 0 1.16 0.96 2.11 2.11 2.11 1.19 0 2.15-0.95 2.15-2.11 0-1.18-0.96-2.14-2.15-2.14zm30.82 0c-1.16 0-2.12 0.96-2.12 2.14 0 1.16 0.96 2.11 2.12 2.11 1.18 0 2.14-0.95 2.14-2.11 0-1.18-0.96-2.14-2.14-2.14z" fill="#a688fc"/></g></svg>
