<?xml version="1.0" encoding="utf-8"?>
<!-- Generator: Adobe Illustrator 21.1.0, SVG Export Plug-In . SVG Version: 6.00 Build 0)  -->
<svg xmlns="http://www.w3.org/2000/svg" xmlns:xlink="http://www.w3.org/1999/xlink" version="1.1" id="Layer_1" x="0px" y="0px" viewBox="0 0 200 200" enable-background="new 0 0 200 200" xml:space="preserve">
<path fill="#3b2f4e" d="M198.1,107.7l-0.1-0.1c-2.7-5.3-7.8-8.7-13.2-8.7c-0.3,0-0.6,0-0.9,0c1.2-1.8,2.4-3.7,3.4-5.7  c3.3-2.4,5.6-6,6.6-10.3c1-4.5,0.4-9.1-1.7-13.1l-0.1-0.1c-0.6-1.1-1.9-1.5-2.9-0.8l-0.1,0.1c-6.9,4.7-9.3,14.5-5.9,22.6  c-6.1,10.9-14.6,19.2-24.4,23.9L178,97.2c0.5-0.5,0.8-1.1,0.8-1.9c0-0.7-0.3-1.4-0.8-1.9L162.8,79c0.2-3.3,0.2-6.5-0.1-9.9  c7.5-1.4,13-9.1,12.7-17.9v-0.1c0-1.3-1.1-2.4-2.2-2.3h-0.1c-5.5,0.3-10.1,3.8-12.6,8.9c-0.3-1.1-0.6-2.1-1-3.2  c-0.8-2.3-1.8-4.5-2.9-6.7c6.8-2.9,11-11,9.7-19.4l0-0.1c-0.2-1.3-1.3-2.2-2.5-1.9l-0.1,0c-6.1,1.3-10.6,6.6-12,13.1  c-2-2.8-4.2-5.5-6.6-7.9c5.4-5.7,6.4-15.3,2.1-22.4L147,8.9c-0.3-0.5-0.8-0.9-1.4-1c-0.6-0.1-1.1,0-1.6,0.4L144,8.3  c-3.3,2.6-5.6,6.6-6.3,11.1c-0.3,1.8-0.3,3.7-0.1,5.5c-1.7-1.2-3.4-2.4-5.2-3.4c-2.9-4.4-7.4-6.9-12.2-6.9c-3.1,0-6.2,1.1-8.8,3.2  l-0.1,0.1c-1,0.8-1.2,2.3-0.5,3.4l0.1,0.1c2.8,4.6,7.5,7.3,12.4,7.3c2.8,0,5.4-0.8,7.8-2.4c2.3,1.4,4.4,2.9,6.5,4.5  c-5.7,1.5-10.2,6.5-11.5,13.2l-24.6-23.4c-0.8-0.7-1.9-0.7-2.7,0L74,44c-1.3-6.7-5.8-11.7-11.5-13.2c2-1.7,4.2-3.2,6.5-4.6  c2.4,1.6,5,2.4,7.8,2.4l0,0c4.9,0,9.6-2.7,12.4-7.3l0.1-0.1c0.7-1.1,0.5-2.6-0.5-3.4l-0.1-0.1c-2.6-2.1-5.6-3.2-8.8-3.2  c-4.8,0-9.3,2.6-12.2,6.9c-1.8,1.1-3.6,2.2-5.2,3.4c0.2-1.8,0.2-3.7-0.1-5.5c-0.7-4.5-3-8.5-6.3-11.1l-0.1-0.1  c-0.5-0.4-1-0.5-1.6-0.4c-0.6,0.1-1.1,0.5-1.4,1L52.9,9c-2.3,3.8-3.2,8.4-2.4,13c0.6,3.7,2.2,7,4.5,9.5c-2.4,2.5-4.6,5.1-6.6,7.9  c-0.4-2.1-1.2-4.1-2.3-5.9c-2.3-3.8-5.8-6.4-9.7-7.3l-0.1,0c-0.6-0.1-1.1,0-1.6,0.4c-0.5,0.4-0.8,0.9-0.9,1.6l0,0.1  c-1.4,8.4,2.9,16.6,9.7,19.4c-1.6,3.2-2.9,6.5-3.9,9.9c-0.6-1.2-1.3-2.3-2.1-3.3C34.7,51,31,49,26.9,48.8h-0.1  c-1.2-0.1-2.2,1-2.2,2.3v0.1c-0.4,8.9,5.2,16.5,12.7,17.9c-0.3,3.3-0.4,6.6-0.1,9.8L22,93.4c-0.5,0.5-0.8,1.1-0.8,1.9  c0,0.7,0.3,1.4,0.8,1.9l19.3,18.3c-9.6-4.5-18.3-12.6-24.6-23.9c1.6-3.7,2-7.9,1.1-11.9c-1-4.5-3.5-8.3-7-10.6l-0.1-0.1  c-0.5-0.3-1.1-0.4-1.6-0.3c-0.6,0.2-1,0.6-1.3,1.1l-0.1,0.1c-4.3,8.1-2,18.5,4.9,23.5c1.1,2,2.2,3.9,3.4,5.7c-0.3,0-0.6,0-0.9,0  c-5.4,0-10.5,3.3-13.2,8.7l-0.1,0.1c-0.6,1.1-0.2,2.7,0.8,3.3l0.1,0.1c2.3,1.5,4.9,2.3,7.6,2.3l0,0c4.7,0,9-2.4,11.9-6.5  c7.9,8.6,17.5,14.2,27.3,16.3l7.5,7.1c-0.4-0.1-0.9-0.1-1.3,0.1l-0.1,0.1c-5.7,3-9.1,9.5-8.9,16.3c-1.9-1.8-3.7-3.8-5.5-6  c2.2-8.6-1.7-17.8-9.2-21.1l-0.1-0.1c-0.5-0.2-1.1-0.2-1.6,0.1c-0.5,0.3-0.9,0.8-1.1,1.4l0,0.1c-1.4,4.3-1.3,9,0.4,13.2  c1.6,4.1,4.5,7.2,8,8.9c1.3,1.8,2.8,3.4,4.2,4.9c-5.6,0.8-10.5,5.1-12.5,11.3l0,0.1c-0.4,1.3,0.2,2.7,1.3,3.1l0.1,0.1  c1.7,0.7,3.4,1,5.2,1l0,0c5.6,0,10.7-3.5,13.3-9c2.7,2.1,5.5,3.8,8.4,5.3c-5.2,3.1-8.5,9.5-8.1,16.5v0.1c0,0.7,0.3,1.3,0.7,1.7  c0.4,0.4,0.9,0.6,1.4,0.6c0,0,0.1,0,0.1,0h0.1c7.5-0.6,13.4-7.3,14.1-15.5c3.1,0.9,6.3,1.6,9.4,1.8c-0.9,0.9-1.6,2-2.3,3.1  c-2.2,3.9-3,8.5-2.2,13l0,0.1c0.2,1.1,1.1,1.9,2.1,1.9c0.1,0,0.3,0,0.4-0.1l0.1,0c7.6-1.8,12.7-9.9,12-18.5c2.2-0.4,4.3-0.9,6.4-1.6  l5.2,4.9l-2.1,3.4c-3.9,6.4-3.9,16.3,0,22.7c0.7,1.1,2,1.4,3,0.6c1-0.8,1.2-2.3,0.5-3.4c-2.9-4.6-2.9-12.5,0-17.1l1.4-2.3l1.4,2.3  c2.9,4.6,2.9,12.5,0,17.1c-0.7,1.1-0.5,2.6,0.5,3.4c0.4,0.3,0.8,0.4,1.2,0.4c0.7,0,1.3-0.4,1.8-1c3.9-6.4,3.9-16.3,0-22.7l-2-3.3  l5.5-5.3c2.3,0.8,4.6,1.4,7,1.8c-0.7,8.7,4.4,16.7,12,18.5l0.1,0c0.1,0,0.3,0.1,0.4,0.1c1,0,1.9-0.8,2.1-1.9l0-0.1  c0.8-4.5,0-9.2-2.2-13c-0.7-1.1-1.4-2.2-2.3-3.1c3.1-0.3,6.3-0.9,9.4-1.8c0.7,8.2,6.6,15,14.1,15.5h0.1c0,0,0.1,0,0.1,0  c0.5,0,1-0.2,1.4-0.6c0.4-0.4,0.7-1,0.7-1.7v-0.2c0.4-7.1-3-13.4-8.1-16.5c2.9-1.5,5.7-3.2,8.4-5.3c2.6,5.5,7.7,9,13.3,9  c1.8,0,3.5-0.4,5.2-1.1l0.1-0.1c1.1-0.5,1.7-1.9,1.3-3.1l0-0.1c-2-6.2-6.9-10.5-12.5-11.3c1.5-1.5,2.9-3.2,4.2-4.9  c7.6-3.6,11.3-13.4,8.4-22.1l0-0.1c-0.4-1.3-1.7-1.9-2.7-1.4l-0.1,0.1c-7.5,3.2-11.4,12.5-9.2,21.1c-1.7,2.2-3.6,4.2-5.5,6  c0.2-6.8-3.2-13.3-8.9-16.3l-0.1-0.1c-1.1-0.5-2.3,0-2.8,1.2l0,0.1c-3,7.5-0.9,16.1,4.6,20.9c-7.6,5.1-15.9,7.8-24,8  c1.3-2.4,2.1-5.1,2.3-8.1c0.1-1.7,0-3.3-0.3-5l25.9-24.6c1.9-0.4,3.9-1,5.8-1.7c7.9-2.9,15.2-7.9,21.3-14.6  c2.9,4.1,7.2,6.5,11.9,6.5c2.6,0,5.3-0.8,7.6-2.3l0.1-0.1C198.3,110.3,198.7,108.9,198.1,107.7z M189.6,74.6  c0.7,2.3,0.8,4.7,0.2,7.1c-0.5,2.4-1.7,4.5-3.2,6.1C185.3,83.2,186.4,77.9,189.6,74.6z M171,54c-0.7,4.9-3.9,8.9-8.1,10.1  C163.6,59.3,166.8,55.3,171,54z M123.2,23.9c-2.8,0-5.5-1.2-7.5-3.3c1.4-0.7,2.8-1,4.3-1c2.8,0,5.5,1.2,7.5,3.3  C126.2,23.5,124.7,23.9,123.2,23.9z M79.9,19.5c1.5,0,3,0.4,4.3,1c-2,2.1-4.7,3.3-7.5,3.3l0,0c-1.5,0-3-0.4-4.3-1  C74.5,20.7,77.1,19.5,79.9,19.5z M29,54c2,0.6,3.9,1.9,5.4,3.7c1.5,1.8,2.4,4.1,2.7,6.4C32.9,62.9,29.7,58.9,29,54z M13.3,87.9  c-3.2-3.3-4.4-8.6-3-13.2c1.6,1.6,2.7,3.7,3.2,6.1C14.1,83.2,14,85.7,13.3,87.9z M10.4,108.7c-1.2,0-2.3-0.2-3.4-0.6  c2.1-2.6,5-4.2,8.2-4.2c1.2,0,2.3,0.2,3.4,0.6C16.5,107.1,13.5,108.7,10.4,108.7z M37.4,138c-1.8-1.3-3.2-3.1-4.1-5.4  c-0.9-2.2-1.2-4.7-0.8-7.1c1.8,1.3,3.2,3.1,4.1,5.4C37.4,133.2,37.7,135.6,37.4,138z M35.7,159.2L35.7,159.2c-0.5,0-1.1-0.1-1.6-0.1  c2-3.6,5.5-5.9,9.3-5.9c0.5,0,1.1,0.1,1.6,0.1C43,156.9,39.5,159.2,35.7,159.2z M164.2,130.9c0.9-2.2,2.3-4.1,4.1-5.4  c0.3,2.4,0,4.8-0.8,7.1c-0.9,2.2-2.3,4.1-4.1,5.4C163,135.6,163.3,133.2,164.2,130.9z M157.3,153.2c3.8,0,7.3,2.3,9.3,5.9  c-0.5,0.1-1,0.1-1.6,0.1c-3.8,0-7.3-2.3-9.3-5.9C156.2,153.2,156.7,153.2,157.3,153.2z M145.3,136.3c3.5,2.9,5.2,8,4.2,12.8  C146.1,146.2,144.4,141.2,145.3,136.3z M147,174c-4.2-1.3-7.3-5.4-7.9-10.3C143.3,165,146.5,169.1,147,174z M158.7,75.1l-2.1-2  c0.7-0.5,1.4-1,2-1.6C158.7,72.7,158.7,73.9,158.7,75.1z M149.6,66.5c0.9-0.3,1.9-0.4,2.9-0.4c1.4,0,2.9,0.3,4.2,1  c-1.1,1.2-2.3,2.1-3.7,2.7L149.6,66.5z M162.2,31.8c-0.1,4.9-2.8,9.4-6.8,11.3C155.5,38.2,158.2,33.7,162.2,31.8z M141.8,20.4  c0.4-2.4,1.4-4.6,2.8-6.4c1.7,4.5,0.8,9.9-2.2,13.4C141.6,25.2,141.4,22.8,141.8,20.4z M140.5,35.3c-1.6,4.6-5.4,7.7-9.8,7.9  C132.3,38.6,136.1,35.4,140.5,35.3z M130.3,48c6.2,0,11.6-4.3,14-10.6c4.8,5.5,8.6,11.9,11.2,18.9c0.7,1.9,1.2,3.8,1.7,5.6  c-1.5-0.5-3-0.8-4.6-0.8c-2.3,0-4.6,0.6-6.7,1.7L130.2,48C130.2,48,130.3,48,130.3,48z M69.3,43.1c-4.4-0.2-8.2-3.3-9.8-7.9  C64,35.4,67.8,38.6,69.3,43.1z M54.7,21.1c-0.4-2.4-0.1-4.9,0.7-7.1c1.5,1.7,2.4,3.9,2.9,6.4c0.4,2.4,0.1,4.9-0.7,7.1  C56.1,25.7,55.1,23.5,54.7,21.1z M37.8,31.8c1.9,0.9,3.6,2.5,4.9,4.5s1.9,4.4,1.9,6.8C40.6,41.2,37.9,36.8,37.8,31.8z M55.7,37.4  C58,43.7,63.5,48,69.7,48l0,0c0,0,0.1,0,0.1,0L54.2,62.9c-2-1.1-4.3-1.7-6.7-1.7c-1.6,0-3.1,0.3-4.6,0.8  C45.1,53.1,49.5,44.6,55.7,37.4z M47,69.7c-1.4-0.6-2.6-1.5-3.7-2.7c1.3-0.6,2.7-1,4.2-1c1,0,1.9,0.2,2.9,0.4L47,69.7z M41.4,71.5  c0.6,0.6,1.3,1.1,2,1.5l-2.1,2C41.3,73.9,41.3,72.7,41.4,71.5z M100,25.7l73.3,69.6L100,164.9L26.7,95.3L100,25.7z M51.2,149.1  c-0.9-4.8,0.7-9.9,4.2-12.8C56.3,141.2,54.7,146.2,51.2,149.1z M53.7,174c0.6-4.9,3.7-9,7.9-10.3C61,168.6,57.8,172.6,53.7,174z   M54,152.8c5.5-4.8,7.6-13.4,4.6-20.9l0-0.1l17.4,16.5c-0.2,1.4-0.3,2.9-0.2,4.4c0.2,2.9,1,5.7,2.3,8.1  C69.9,160.6,61.6,157.9,54,152.8z M74.7,178.1c0-2.4,0.6-4.8,1.8-6.8c1.2-2.1,2.8-3.6,4.8-4.6C81.3,171.7,78.7,176.2,74.7,178.1z   M80,152.4c0-0.1,0-0.2,0-0.2l3.4,3.2c-0.2,1.3-0.6,2.5-1.2,3.7C80.9,157.2,80.1,154.9,80,152.4z M86.5,160c0.2-0.4,0.3-0.8,0.4-1.2  l1,0.9C87.4,159.8,87,160,86.5,160z M112.3,159.6l1.4-1.3c0.2,0.6,0.4,1.2,0.6,1.8C113.6,159.9,112.9,159.7,112.3,159.6z   M124.2,171.3c1.2,2.1,1.8,4.4,1.8,6.8c-4-2-6.6-6.5-6.6-11.4C121.4,167.7,123,169.2,124.2,171.3z M120.8,152.4  c-0.1,2.5-0.9,4.8-2.2,6.7c-0.7-1.3-1.1-2.8-1.3-4.3l3.5-3.3C120.8,151.8,120.8,152.1,120.8,152.4z M189.6,108.6  c-3.1,0-6.1-1.6-8.2-4.2c1.1-0.4,2.3-0.6,3.4-0.6c3.1,0,6.1,1.6,8.2,4.2C191.9,108.3,190.8,108.6,189.6,108.6z"/>
<g transform="translate(23.2 42.4) scale(0.15)"><path d="m326.9 316.12v0.02h-4.99v18.01l5.12 0.02c4.44 0.02 5.17 0.04 5.57 0.13 0.25 0.06 0.7 0.17 1 0.26 0.3 0.1 0.8 0.29 1.13 0.45 0.32 0.15 0.87 0.46 1.22 0.69 0.4 0.27 0.88 0.67 1.32 1.11s0.84 0.92 1.11 1.32c0.23 0.34 0.53 0.87 0.66 1.16 0.14 0.29 0.33 0.74 0.42 1.01s0.22 0.75 0.29 1.07l0.14 0.57 0.04 12.89c0.03 9.09 0.06 13.05 0.11 13.45 0.04 0.31 0.12 0.87 0.17 1.25s0.18 1.09 0.28 1.59 0.31 1.35 0.46 1.88 0.41 1.33 0.57 1.78c0.16 0.44 0.43 1.13 0.6 1.53 0.17 0.39 0.54 1.17 0.83 1.72 0.28 0.55 0.77 1.41 1.08 1.9 0.3 0.49 0.85 1.29 1.22 1.78 0.36 0.49 0.86 1.12 1.11 1.41 0.25 0.28 0.45 0.54 0.45 0.57 0 0.04-0.2 0.3-0.45 0.58-0.25 0.29-0.75 0.92-1.11 1.41-0.37 0.49-0.92 1.29-1.23 1.78s-0.84 1.46-1.19 2.15c-0.35 0.68-0.8 1.68-1.01 2.22-0.21 0.53-0.5 1.33-0.64 1.77-0.14 0.45-0.35 1.21-0.47 1.69-0.12 0.49-0.29 1.29-0.37 1.79-0.09 0.5-0.21 1.29-0.27 1.75l-0.11 0.85-0.03 12.88-0.04 12.89-0.14 0.57c-0.07 0.32-0.2 0.8-0.29 1.07-0.1 0.26-0.28 0.72-0.42 1.01-0.13 0.29-0.43 0.81-0.66 1.16-0.27 0.4-0.67 0.88-1.11 1.32s-0.92 0.84-1.32 1.11c-0.34 0.23-0.87 0.53-1.16 0.66-0.29 0.14-0.75 0.33-1.02 0.42-0.28 0.09-0.76 0.23-1.07 0.3l-0.56 0.13-5.11 0.02-5.12 0.02v18.01h4.96c2.73 0 5.35-0.03 5.83-0.06 0.48-0.04 1.23-0.11 1.66-0.16 0.43-0.06 1.15-0.17 1.59-0.26 0.45-0.08 1.24-0.26 1.76-0.4 0.53-0.13 1.29-0.36 1.71-0.49 0.41-0.14 1.11-0.4 1.55-0.57 0.43-0.18 1.16-0.5 1.61-0.71 0.45-0.22 1.12-0.56 1.48-0.76s0.92-0.54 1.24-0.74c0.33-0.21 0.88-0.57 1.23-0.81 0.34-0.25 0.97-0.73 1.4-1.07 0.43-0.35 1.24-1.08 1.81-1.63 0.56-0.55 1.29-1.31 1.62-1.69 0.32-0.38 0.82-1 1.11-1.38 0.28-0.38 0.68-0.94 0.89-1.25 0.2-0.31 0.54-0.83 0.74-1.16 0.2-0.32 0.6-1.07 0.9-1.65 0.3-0.59 0.69-1.43 0.88-1.88 0.18-0.45 0.47-1.22 0.63-1.72 0.17-0.5 0.41-1.27 0.53-1.72 0.11-0.45 0.26-1.09 0.33-1.42s0.17-0.88 0.23-1.22c0.05-0.34 0.14-0.98 0.2-1.43 0.09-0.71 0.1-2.36 0.14-13.69l0.04-12.89 0.13-0.56c0.07-0.31 0.2-0.79 0.3-1.07 0.09-0.27 0.28-0.73 0.41-1.02 0.14-0.29 0.44-0.82 0.67-1.16 0.26-0.41 0.66-0.88 1.11-1.32 0.44-0.44 0.91-0.84 1.32-1.11 0.34-0.23 0.86-0.53 1.15-0.67 0.29-0.13 0.75-0.32 1.02-0.41s0.75-0.22 1.06-0.29l0.58-0.14 5.11-0.02 5.12-0.02v-18.03l-5.12-0.02-5.11-0.02-0.58-0.14c-0.31-0.07-0.79-0.2-1.06-0.29s-0.75-0.29-1.06-0.44-0.83-0.45-1.16-0.67c-0.35-0.23-0.86-0.66-1.27-1.08-0.45-0.44-0.85-0.92-1.11-1.32-0.23-0.34-0.53-0.86-0.67-1.15-0.13-0.3-0.32-0.76-0.41-1.03-0.1-0.28-0.23-0.76-0.3-1.07l-0.13-0.56-0.04-12.89c-0.03-11.52-0.05-12.97-0.14-13.7-0.06-0.45-0.15-1.09-0.2-1.43-0.06-0.33-0.16-0.88-0.23-1.21-0.07-0.34-0.22-0.97-0.33-1.42-0.12-0.45-0.34-1.17-0.48-1.6s-0.4-1.13-0.57-1.56c-0.18-0.43-0.49-1.15-0.71-1.6-0.21-0.46-0.54-1.09-0.72-1.41s-0.51-0.88-0.74-1.24c-0.22-0.37-0.64-0.99-0.92-1.39-0.29-0.4-0.78-1.04-1.1-1.43-0.32-0.4-1.02-1.16-1.55-1.71s-1.28-1.26-1.66-1.59c-0.38-0.32-1.01-0.84-1.41-1.14s-1.05-0.75-1.44-1.01c-0.4-0.26-1.05-0.66-1.47-0.9-0.41-0.23-1.17-0.63-1.69-0.87-0.51-0.25-1.37-0.63-1.9-0.83-0.54-0.21-1.35-0.49-1.82-0.63-0.46-0.14-1.12-0.33-1.47-0.41-0.34-0.09-0.99-0.23-1.44-0.31-0.44-0.09-1.16-0.2-1.59-0.26-0.43-0.05-1.16-0.12-1.63-0.16-0.46-0.03-3.08-0.06-5.83-0.06zm-41.02 0.01l-5.14 0.02c-2.83 0.01-5.27 0.02-5.43 0.03-0.15 0.01-0.6 0.05-1 0.09-0.39 0.03-1.07 0.12-1.5 0.19-0.43 0.06-1.06 0.17-1.41 0.24-0.34 0.08-0.99 0.23-1.44 0.34-0.44 0.12-1.16 0.34-1.59 0.48s-1.13 0.4-1.57 0.58c-0.43 0.17-1.15 0.49-1.6 0.7-0.45 0.22-1.09 0.54-1.41 0.72s-0.88 0.51-1.24 0.74c-0.36 0.22-0.98 0.64-1.38 0.93-0.4 0.28-1.05 0.77-1.44 1.09s-1.16 1.02-1.7 1.55c-0.55 0.54-1.27 1.28-1.59 1.66-0.33 0.38-0.83 1-1.11 1.38-0.29 0.38-0.69 0.95-0.91 1.27-0.21 0.32-0.59 0.91-0.83 1.31s-0.67 1.21-0.95 1.8c-0.29 0.58-0.66 1.41-0.83 1.84-0.18 0.43-0.43 1.14-0.58 1.57-0.14 0.43-0.37 1.2-0.5 1.72-0.14 0.51-0.31 1.3-0.4 1.75-0.09 0.44-0.2 1.19-0.25 1.66-0.06 0.46-0.12 0.92-0.14 1.03-0.02 0.1-0.06 6.01-0.08 13.13l-0.04 12.95-0.14 0.57c-0.07 0.32-0.21 0.8-0.3 1.07s-0.27 0.72-0.41 1.01c-0.13 0.3-0.43 0.82-0.66 1.16-0.27 0.4-0.67 0.88-1.11 1.32s-0.92 0.84-1.32 1.11c-0.35 0.23-0.87 0.53-1.16 0.66-0.29 0.14-0.75 0.33-1.03 0.42-0.27 0.09-0.75 0.23-1.06 0.3l-0.56 0.13-5.12 0.02-5.11 0.02v18.01l5.11 0.02c4.45 0.02 5.18 0.04 5.58 0.13 0.25 0.05 0.7 0.17 1 0.26 0.29 0.09 0.8 0.29 1.13 0.44 0.32 0.16 0.87 0.47 1.22 0.7 0.4 0.27 0.88 0.66 1.32 1.11 0.44 0.44 0.84 0.91 1.11 1.32 0.23 0.34 0.53 0.87 0.66 1.16 0.14 0.29 0.32 0.74 0.41 1.01s0.23 0.75 0.3 1.07l0.14 0.57 0.04 12.95c0.02 7.12 0.06 13.03 0.08 13.13 0.02 0.11 0.08 0.57 0.14 1.04 0.05 0.46 0.17 1.21 0.25 1.65 0.09 0.45 0.26 1.24 0.4 1.75 0.13 0.52 0.36 1.29 0.5 1.72 0.15 0.43 0.4 1.14 0.58 1.57 0.17 0.43 0.54 1.26 0.83 1.84 0.28 0.59 0.71 1.4 0.95 1.8s0.62 0.99 0.83 1.31c0.22 0.32 0.62 0.89 0.91 1.27 0.28 0.38 0.78 1 1.11 1.38 0.32 0.38 1.04 1.12 1.59 1.66 0.54 0.53 1.31 1.23 1.7 1.55s1.04 0.81 1.44 1.1c0.4 0.28 1.02 0.7 1.38 0.92 0.36 0.23 0.95 0.58 1.32 0.78 0.36 0.2 0.99 0.52 1.4 0.71 0.42 0.2 1.1 0.5 1.53 0.67 0.44 0.18 1.14 0.44 1.57 0.58s1.15 0.36 1.59 0.47c0.45 0.12 1.09 0.27 1.42 0.34s0.88 0.17 1.22 0.22c0.34 0.06 0.97 0.15 1.4 0.2 0.64 0.09 1.74 0.11 6.33 0.13l5.55 0.03v-18.02l-5.11-0.02-5.11-0.02-0.58-0.14c-0.32-0.07-0.79-0.21-1.06-0.3s-0.73-0.27-1.02-0.41c-0.29-0.13-0.81-0.43-1.16-0.66-0.4-0.27-0.87-0.67-1.32-1.11-0.44-0.44-0.84-0.92-1.1-1.32-0.23-0.35-0.53-0.87-0.67-1.16s-0.32-0.75-0.42-1.03c-0.09-0.27-0.22-0.75-0.29-1.06l-0.13-0.56-0.04-12.89c-0.03-9.08-0.07-13.05-0.12-13.45-0.03-0.31-0.11-0.87-0.16-1.25-0.06-0.38-0.19-1.09-0.29-1.59s-0.3-1.35-0.46-1.88c-0.15-0.53-0.4-1.33-0.57-1.78-0.16-0.44-0.43-1.13-0.6-1.53-0.17-0.39-0.54-1.17-0.82-1.72-0.29-0.55-0.77-1.41-1.08-1.9s-0.86-1.29-1.23-1.78c-0.36-0.49-0.86-1.12-1.11-1.4-0.24-0.3-0.44-0.55-0.44-0.59s0.2-0.3 0.44-0.58c0.25-0.28 0.75-0.91 1.11-1.4 0.37-0.49 0.92-1.29 1.23-1.79 0.31-0.49 0.79-1.34 1.07-1.89 0.29-0.55 0.66-1.34 0.84-1.75 0.17-0.41 0.44-1.09 0.59-1.51 0.16-0.42 0.41-1.21 0.56-1.75 0.16-0.54 0.37-1.4 0.47-1.9s0.23-1.22 0.28-1.6c0.06-0.38 0.13-0.94 0.17-1.25 0.05-0.4 0.09-4.37 0.11-13.45l0.04-12.88 0.14-0.56c0.07-0.31 0.2-0.79 0.29-1.07 0.1-0.27 0.28-0.74 0.42-1.03s0.43-0.81 0.66-1.16c0.27-0.4 0.67-0.87 1.11-1.32 0.45-0.44 0.92-0.84 1.32-1.1 0.35-0.23 0.87-0.53 1.16-0.67 0.29-0.13 0.75-0.32 1.02-0.41 0.26-0.09 0.74-0.22 1.06-0.3l0.57-0.13 5.12-0.02 5.11-0.03v-18.01zm356.91 0.56a8.5677 8.5677 0 0 0 -8.57 8.57 8.5677 8.5677 0 0 0 8.57 8.56 8.5677 8.5677 0 0 0 8.57 -8.56 8.5677 8.5677 0 0 0 -8.57 -8.57zm16.87 6.28v17.39 12.48 18.26c0 10.38 8.44 18.82 18.82 18.82 3.91 0 7.67-1.19 10.85-3.45l-8.8-12.45c-0.42 0.29-1.11 0.64-2.05 0.64-1.96 0-3.56-1.59-3.56-3.56v-18.26h11.29v-12.48h-11.29v-17.39h-15.26zm-208.88 15.96c-3.63 0-7.09 0.77-10.22 2.14v-1.09h-15.25v68.59h15.25v-20.85c3.13 1.38 6.59 2.15 10.22 2.15 14.04 0 25.47-11.43 25.47-25.47 0-14.05-11.43-25.47-25.47-25.47zm150.57 0c-13.75 0-24.95 11.19-24.95 24.95v24.9h15.26v-24.9c0-5.35 4.35-9.7 9.69-9.7 5.35 0 9.7 4.35 9.7 9.7v24.9h15.26v-24.9c0-13.76-11.2-24.95-24.96-24.95zm-82.66 1.03v24.9c0 13.76 11.19 24.95 24.95 24.95s24.95-11.19 24.95-24.95v-24.9h-15.25v24.9c0 5.35-4.35 9.7-9.7 9.7s-9.7-4.35-9.7-9.7v-24.9h-15.25zm173.17 0l16.64 48.8-6.75 19.79h15.95l6.75-19.79 16.64-48.8h-15.95l-8.67 25.41-8.66-25.41h-15.95zm-56.7 0.09v48.8h15.25v-48.8h-15.25zm-153.61 10.41v14.72h30.58v-14.72h-30.58zm-30.77 3.72c5.63 0 10.21 4.58 10.21 10.22 0 5.63-4.58 10.21-10.21 10.21-5.64 0-10.22-4.58-10.22-10.21 0-5.64 4.58-10.22 10.22-10.22zm-146.67 2.52c-0.52-0.01-1.14 0.01-1.38 0.04s-0.71 0.13-1.04 0.21-0.81 0.24-1.08 0.34c-0.26 0.11-0.64 0.28-0.84 0.38s-0.63 0.36-0.95 0.57c-0.36 0.24-0.86 0.67-1.28 1.09-0.45 0.44-0.84 0.91-1.11 1.32-0.23 0.34-0.53 0.87-0.67 1.16-0.14 0.3-0.34 0.79-0.44 1.11-0.1 0.31-0.23 0.81-0.29 1.12-0.08 0.39-0.11 0.85-0.11 1.64s0.03 1.25 0.11 1.64c0.06 0.3 0.19 0.81 0.29 1.12s0.3 0.81 0.44 1.11c0.14 0.29 0.44 0.82 0.67 1.16 0.26 0.4 0.66 0.88 1.11 1.32 0.44 0.44 0.91 0.84 1.32 1.11 0.34 0.23 0.86 0.53 1.15 0.66 0.29 0.14 0.75 0.32 1.02 0.41 0.27 0.1 0.76 0.23 1.09 0.3 0.49 0.11 0.83 0.13 1.74 0.14 0.83 0 1.27-0.03 1.68-0.11 0.3-0.06 0.78-0.18 1.06-0.27s0.77-0.28 1.1-0.44c0.32-0.15 0.87-0.46 1.22-0.69 0.41-0.27 0.87-0.66 1.32-1.11 0.44-0.44 0.84-0.92 1.11-1.32 0.23-0.34 0.53-0.87 0.66-1.16 0.14-0.29 0.32-0.74 0.41-1.01s0.23-0.77 0.3-1.1c0.11-0.5 0.14-0.81 0.14-1.76s-0.03-1.27-0.14-1.76c-0.07-0.34-0.21-0.83-0.3-1.1s-0.27-0.73-0.41-1.02c-0.13-0.29-0.43-0.81-0.66-1.15-0.27-0.4-0.67-0.89-1.11-1.32-0.45-0.46-0.91-0.84-1.32-1.11-0.35-0.23-0.9-0.55-1.22-0.7-0.33-0.15-0.82-0.34-1.09-0.43-0.28-0.09-0.75-0.2-1.04-0.26s-0.94-0.12-1.46-0.13zm0 36.03c-0.52-0.01-1.14 0.01-1.38 0.04s-0.71 0.13-1.04 0.21-0.81 0.24-1.08 0.34c-0.26 0.11-0.64 0.28-0.84 0.38s-0.63 0.36-0.95 0.57c-0.36 0.24-0.86 0.67-1.28 1.09-0.45 0.44-0.84 0.91-1.11 1.32-0.23 0.34-0.53 0.87-0.67 1.16s-0.34 0.79-0.44 1.11c-0.1 0.31-0.23 0.81-0.29 1.11-0.08 0.4-0.11 0.86-0.11 1.65s0.03 1.24 0.11 1.64c0.06 0.3 0.19 0.81 0.29 1.12s0.3 0.81 0.44 1.11c0.14 0.29 0.44 0.81 0.67 1.16 0.26 0.4 0.66 0.88 1.11 1.32 0.44 0.44 0.91 0.84 1.32 1.11 0.34 0.23 0.86 0.53 1.15 0.66 0.29 0.14 0.75 0.32 1.02 0.41s0.76 0.23 1.09 0.3c0.49 0.11 0.83 0.13 1.74 0.14 0.83 0 1.27-0.03 1.68-0.11 0.3-0.06 0.78-0.18 1.06-0.27s0.77-0.29 1.1-0.44c0.32-0.15 0.87-0.46 1.22-0.69 0.41-0.27 0.87-0.66 1.32-1.11 0.44-0.44 0.84-0.92 1.11-1.32 0.23-0.35 0.53-0.87 0.66-1.16 0.14-0.29 0.32-0.74 0.41-1.01s0.23-0.77 0.3-1.1c0.11-0.5 0.14-0.81 0.14-1.76s-0.03-1.27-0.14-1.76c-0.07-0.34-0.21-0.83-0.3-1.1s-0.27-0.73-0.41-1.02c-0.13-0.29-0.43-0.81-0.66-1.15-0.27-0.4-0.67-0.89-1.11-1.32-0.45-0.46-0.91-0.84-1.32-1.11-0.35-0.23-0.9-0.55-1.22-0.7-0.33-0.15-0.82-0.34-1.09-0.43-0.28-0.09-0.75-0.21-1.04-0.26-0.29-0.06-0.94-0.12-1.46-0.13zm173.81 35.6c-1.15 0-2.11 0.96-2.11 2.14 0 1.15 0.96 2.11 2.11 2.11 1.18 0 2.14-0.96 2.14-2.11 0-1.18-0.96-2.14-2.14-2.14zm26.12 0c-6.49 0-11.77 5.25-11.77 11.78 0 6.49 5.28 11.77 11.77 11.77 2.79 0 5.99-0.99 8.1-2.5 0.42-0.28 0.74-0.57 0.93-0.96 0.22-0.48 0.22-0.92 0.22-1.5v-5.02c0-1.16-0.92-2.11-2.11-2.11-1.18 0-2.11 0.95-2.11 2.11v4.41c-1.41 0.8-3.36 1.31-5.03 1.31-4.16 0-7.51-3.35-7.51-7.51s3.35-7.53 7.51-7.53c2.02 0 3.59 0.68 4.93 1.35 1.03 0.54 2.31 0.67 2.95-0.22 0.67-0.96 0.6-2.25-0.29-2.98-2.43-1.99-5.44-2.4-7.59-2.4zm123.32 0c-1.15 0-2.11 0.96-2.11 2.11 0 1.19 0.96 2.14 2.11 2.14 1.19 0 2.15-0.95 2.15-2.14 0-1.15-0.96-2.11-2.15-2.11zm43.12 0c-6.49 0-11.77 5.25-11.77 11.78 0 6.49 5.28 11.77 11.77 11.77 2.79 0 5.99-0.99 8.1-2.5 0.41-0.28 0.74-0.57 0.93-0.96 0.22-0.48 0.22-0.92 0.22-1.5v-5.02c0-1.16-0.93-2.11-2.11-2.11s-2.11 0.95-2.11 2.11v4.41c-1.41 0.8-3.36 1.31-5.03 1.31-4.16 0-7.52-3.35-7.52-7.51s3.36-7.53 7.52-7.53c2.02 0 3.59 0.68 4.93 1.35 1.02 0.54 2.31 0.67 2.95-0.22 0.67-0.96 0.6-2.25-0.29-2.98-2.44-1.99-5.44-2.4-7.59-2.4zm78.63 0c-1.15 0-2.11 0.96-2.11 2.11 0 1.19 0.96 2.14 2.11 2.14 1.19 0 2.15-0.95 2.15-2.14 0-1.15-0.96-2.11-2.15-2.11zm-111.73 0.57c-0.35 0-0.69 0.09-0.99 0.26-1.02 0.54-1.12 1.5-1.12 2.3v17.73c0 1.16 0.96 2.11 2.11 2.11 1.19 0 2.15-0.95 2.15-2.11v-12.67l11.1 13.6c0.35 0.42 0.61 0.7 1.09 0.96 0.9 0.45 1.7 0.16 2.21-0.22 0.64-0.55 0.8-1.19 0.8-1.92v-11.59c0-1.15-0.96-2.11-2.15-2.11-1.15 0-2.11 0.96-2.11 2.14v6.34l-11.23-13.79c-0.62-0.72-1.27-1.02-1.86-1.03zm86.5 0c-0.35 0-0.69 0.09-0.99 0.26-1.02 0.54-1.12 1.5-1.12 2.3v17.73c0 1.16 0.96 2.11 2.11 2.11 1.19 0 2.15-0.95 2.15-2.11v-12.67l11.1 13.6c0.35 0.42 0.61 0.7 1.09 0.96 0.9 0.45 1.7 0.16 2.21-0.22 0.64-0.55 0.8-1.19 0.8-1.92v-11.59c0-1.15-0.96-2.11-2.15-2.11-1.15 0-2.11 0.96-2.11 2.14v6.34l-11.23-13.79c-0.62-0.72-1.27-1.02-1.86-1.03zm-296.46 0c-1.15 0-2.11 0.96-2.11 2.12v18.17c0 1.16 0.96 2.11 2.11 2.11 1.18 0 2.14-0.95 2.14-2.11v-16.03h5.96c2.56 0 2.75 2.63 2.75 3.46 0 0.67-0.26 1.4-0.64 2.04-0.61 1-0.32 2.31 0.7 2.92 0.99 0.64 2.3 0.32 2.91-0.68 0.8-1.31 1.25-2.84 1.25-4.28 0-3.71-2.17-7.72-6.97-7.72h-8.1zm21.03 0c-1.15 0-2.12 0.96-2.12 2.12v18.17c0 1.16 0.97 2.11 2.12 2.11 1.18 0 2.14-0.95 2.14-2.11v-5.76h4.64l0.96 1.54c0.61 0.99 1.92 1.28 2.91 0.64 1.95-1.25 0.39-3.3 0.39-3.3 2.2-1.25 3.39-3.52 3.39-6.27 0-4.35-2.98-7.14-7.55-7.14h-6.88zm71.93 0c-1.15 0-2.11 0.96-2.11 2.12v18.17c0 1.16 0.96 2.11 2.11 2.11 1.19 0 2.15-0.95 2.15-2.11v-5.76h4.64l0.96 1.54c0.61 0.99 1.92 1.28 2.91 0.64 1.95-1.25 0.38-3.3 0.38-3.3 2.21-1.25 3.4-3.52 3.4-6.27 0-4.35-2.98-7.14-7.56-7.14h-6.88zm28.49 0c-0.84 0-1.57 0.49-1.92 1.22l-8.64 18.14c-0.48 1.06-0.04 2.34 1.02 2.85 1.06 0.48 2.3 0.03 2.82-1.02l2.01-4.22h10.75c0.74 0 1.38-0.39 1.76-0.97 0.74-1.08 0.16-2.01-0.19-2.75l-5.69-12.03c-0.36-0.73-1.12-1.22-1.92-1.22zm103.75 0c-1.19 0-2.15 0.93-2.15 2.12 0 1.18 0.96 2.11 2.15 2.11 1.15 0 2.11-0.93 2.11-2.11 0-1.19-0.96-2.12-2.11-2.12zm46.63 0c-1.15 0-2.11 0.96-2.11 2.12v10.85c0 5.98 3.94 10.01 9.76 10.01 6.72 0 9.76-5.18 9.76-10.01v-4.49c0-1.15-0.96-2.11-2.11-2.11-1.19 0-2.15 0.96-2.15 2.11v4.49c0 2.78-1.44 5.75-5.5 5.75-4.99 0-5.5-3.99-5.5-5.75v-10.85c0-1.16-0.96-2.12-2.15-2.12zm15.3 0c-1.19 0-2.15 0.96-2.15 2.12 0 1.18 0.96 2.14 2.15 2.14 1.15 0 2.11-0.96 2.11-2.14 0-1.16-0.96-2.12-2.11-2.12zm24.57 0c-1.19 0-2.15 0.93-2.15 2.12 0 1.18 0.96 2.11 2.15 2.11 1.15 0 2.11-0.93 2.11-2.11 0-1.19-0.96-2.12-2.11-2.12zm17.77 0c-1.15 0-2.11 0.96-2.11 2.12 0 1.18 0.96 2.14 2.11 2.14h4.64v16.03c0 1.16 0.93 2.11 2.12 2.11 1.18 0 2.11-0.95 2.11-2.11v-18.17c0-1.16-0.83-2.12-2.11-2.12h-6.76zm13.51 0c-1.19 0-2.15 0.96-2.15 2.12 0 1.18 0.96 2.14 2.15 2.14 1.15 0 2.11-0.96 2.11-2.14 0-1.16-0.96-2.12-2.11-2.12zm19.65 0c-1.19 0-2.11 0.96-2.11 2.12 0 1.18 0.92 2.14 2.11 2.14 1.18 0 2.11-0.96 2.11-2.14 0-1.16-0.93-2.12-2.11-2.12zm-13.56 0.01c-0.4-0.02-0.82 0.09-1.19 0.31-1 0.64-1.28 1.96-0.68 2.95l6.53 10.24-0.03 6.78c0 1.16 0.96 2.11 2.14 2.11 1.16 0 2.12-0.95 2.12-2.11v-6.85l3.04-4.76c0.64-1 0.35-2.31-0.64-2.95-0.99-0.61-2.31-0.32-2.95 0.67l-1.6 2.53-5.02-7.93c-0.38-0.62-1.04-0.97-1.72-0.99zm-210.79 0c-0.12 0.01-0.23 0.03-0.35 0.06-0.96 0.25-1.6 1.09-1.6 2.05v18.17c0 1.16 0.96 2.11 2.11 2.11 1.19 0 2.15-0.95 2.15-2.11v-10.85l5.95 11.85c0.38 0.7 1.09 1.11 1.86 1.11 0.76 0 1.47-0.41 1.85-1.08l6.24-12.07v4.67c0 1.16 0.96 2.12 2.11 2.12 1.19 0 2.15-0.96 2.15-2.12v-11.8c0-0.96-0.67-1.8-1.6-2.05-0.93-0.23-1.92 0.19-2.37 1.02l-8.35 15.46-8.13-15.42c-0.39-0.76-1.2-1.17-2.02-1.12zm30.81 0c-0.11 0.01-0.23 0.03-0.35 0.06-0.96 0.25-1.6 1.09-1.6 2.05v18.17c0 1.16 0.96 2.11 2.12 2.11 1.18 0 2.14-0.95 2.14-2.11v-10.85l5.95 11.85c0.39 0.7 1.09 1.11 1.86 1.11s1.47-0.41 1.85-1.08l6.24-12.07v4.67c0 1.16 0.96 2.12 2.12 2.12 1.18 0 2.14-0.96 2.14-2.12v-11.8c0-0.96-0.67-1.8-1.6-2.05-0.93-0.23-1.92 0.19-2.37 1.02l-8.35 15.46-8.13-15.42c-0.39-0.76-1.2-1.17-2.02-1.12zm-124.68 1.48c-0.41 0.03-0.8 0.17-1.14 0.43-2.88 2.28-4.55 5.6-4.55 9.25 0 6.53 5.28 11.81 11.78 11.81s11.81-5.28 11.81-11.81c0-3.65-1.67-6.97-4.55-9.25-0.92-0.7-2.27-0.54-2.97 0.39-0.74 0.89-0.58 2.24 0.35 2.98 1.86 1.44 2.91 3.55 2.91 5.88 0 4.16-3.39 7.55-7.55 7.55s-7.52-3.39-7.52-7.55c0-2.33 1.06-4.44 2.88-5.88 0.93-0.74 1.09-2.09 0.38-2.98-0.46-0.58-1.15-0.86-1.83-0.82zm-21.24 2.64h4.74c2.2 0 3.29 1.31 3.29 3.27 0 1.79-0.86 3.45-3.39 3.45h-4.64v-6.72zm71.94 0h4.73c2.21 0 3.3 1.31 3.3 3.27 0 1.79-0.86 3.45-3.39 3.45h-4.64v-6.72zm104.83 1.67c-1.15 0-2.11 0.96-2.11 2.11v12.38c0 1.16 0.96 2.11 2.11 2.11 1.19 0 2.15-0.95 2.15-2.11v-12.38c0-1.15-0.96-2.11-2.15-2.11zm121.75 0c-1.15 0-2.11 0.96-2.11 2.11v12.38c0 1.16 0.96 2.11 2.11 2.11 1.19 0 2.15-0.95 2.15-2.11v-12.38c0-1.15-0.96-2.11-2.15-2.11zm-200.24 1.25l3 6.27h-5.98l2.98-6.27zm-44.02 3.84c-1.19 0-2.15 0.95-2.15 2.11 0 1.18 0.96 2.14 2.15 2.14 1.15 0 2.11-0.96 2.11-2.14 0-1.16-0.96-2.11-2.11-2.11zm166.43 0c-1.18 0-2.14 0.95-2.14 2.11 0 1.18 0.96 2.14 2.14 2.14 1.16 0 2.11-0.96 2.11-2.14 0-1.16-0.95-2.11-2.11-2.11zm-237.49 0.22c-1.15 0-2.11 0.96-2.11 2.11 0 1.19 0.96 2.14 2.11 2.14 1.18 0 2.11-0.95 2.11-2.14 0-1.15-0.93-2.11-2.11-2.11zm27.65 7.01c-1.15 0-2.11 0.96-2.11 2.14 0 1.15 0.96 2.11 2.11 2.11 1.18 0 2.11-0.96 2.11-2.11 0-1.18-0.93-2.14-2.11-2.14zm71.94 0c-1.16 0-2.12 0.96-2.12 2.14 0 1.15 0.96 2.11 2.12 2.11 1.18 0 2.11-0.96 2.11-2.11 0-1.18-0.93-2.14-2.11-2.14zm24.09 0.03c-1.15 0-2.11 0.96-2.11 2.14 0 1.16 0.96 2.11 2.11 2.11 1.19 0 2.15-0.95 2.15-2.11 0-1.18-0.96-2.14-2.15-2.14zm28.55 0c-1.15 0-2.11 0.96-2.11 2.14 0 1.16 0.96 2.11 2.11 2.11 1.19 0 2.15-0.95 2.15-2.11 0-1.18-0.96-2.14-2.15-2.14zm30.82 0c-1.16 0-2.12 0.96-2.12 2.14 0 1.16 0.96 2.11 2.12 2.11 1.18 0 2.14-0.95 2.14-2.11 0-1.18-0.96-2.14-2.14-2.14z" fill="#a688fc"/></g></svg>
