<?xml version="1.0" encoding="utf-8"?>
<!-- Generator: Adobe Illustrator 21.1.0, SVG Export Plug-In . SVG Version: 6.00 Build 0)  -->
<svg xmlns="http://www.w3.org/2000/svg" xmlns:xlink="http://www.w3.org/1999/xlink" version="1.1" id="Layer_1" x="0px" y="0px" viewBox="0 0 200 200" enable-background="new 0 0 200 200" xml:space="preserve">
<path fill="#3b2f4e" d="M196.9,106.3l-0.1-0.1c-3.2-3.9-7.9-6.2-12.9-6.2c-1.3,0-2.6,0.2-3.9,0.5c1-2,1.9-4.1,2.8-6.2  c3.2-3,5.1-7,5.5-11.4c0.3-4.6-1.1-9-4-12.5l-0.1-0.1c-0.9-1-2.3-1.1-3.3-0.2l-0.1,0.1c-3.4,3-5.5,7.2-5.8,11.8  c-0.3,4.1,0.8,8.2,3.2,11.5c-3.5,8.8-8.8,16.2-15,22c1.4-5.4,2.2-11.2,2.2-17.1c0-0.1,0-0.2,0-0.4c3.9-8.2,5.4-17.3,4.4-26.5  c8.3-1.4,14.5-9,14.1-17.8v-0.1c-0.1-1.3-1.1-2.3-2.5-2.3h-0.2c-6.1,0.3-11.2,3.8-14,8.9c-0.3-1.1-0.7-2.1-1.1-3.2  c-0.9-2.3-2-4.5-3.2-6.7c7.6-2.9,12.2-11,10.7-19.3l0-0.1c-0.2-1.3-1.5-2.2-2.8-1.9l-0.1,0c-4.4,0.8-8.3,3.4-10.8,7.2  c-1.2,1.8-2,3.7-2.5,5.8c-2.2-2.8-4.6-5.4-7.3-7.9c6-5.7,7.1-15.2,2.3-22.3l-0.1-0.1c-0.3-0.5-0.9-0.9-1.5-1c-0.6-0.1-1.3,0-1.8,0.4  l-0.1,0.1c-3.7,2.6-6.2,6.5-7,11.1c-0.3,1.8-0.4,3.7-0.1,5.5c-1.9-1.2-3.8-2.4-5.8-3.4c-3.2-4.3-8.2-6.9-13.5-6.9  c-3.5,0-6.9,1.1-9.7,3.2l-0.1,0.1c-1.1,0.8-1.3,2.3-0.6,3.4L112,24c3.1,4.6,8.3,7.3,13.8,7.3c3.1,0,6-0.8,8.6-2.4  c2.5,1.4,4.9,2.9,7.2,4.5c-4.1,0.9-7.6,3.3-9.9,6.7c-9.4-5.3-20.2-8.4-31.6-8.4s-22.3,3-31.6,8.4c-2.4-3.4-5.9-5.8-9.9-6.7  c2.3-1.7,4.7-3.2,7.2-4.5c2.6,1.6,5.6,2.4,8.6,2.4l0,0c5.5,0,10.6-2.7,13.8-7.3l0.1-0.1c0.7-1.1,0.5-2.6-0.6-3.4l-0.1-0.1  c-2.9-2.1-6.2-3.2-9.7-3.2c-5.3,0-10.3,2.6-13.5,6.9c-2,1.1-3.9,2.2-5.8,3.4c0.2-1.8,0.2-3.6-0.1-5.5c-0.8-4.5-3.3-8.5-7-11.1  l-0.1-0.1c-0.5-0.4-1.1-0.5-1.8-0.4c-0.6,0.1-1.2,0.5-1.5,1l-0.1,0.1c-2.6,3.8-3.5,8.4-2.7,12.9c0.7,3.7,2.4,6.9,5,9.4  c-2.7,2.4-5.1,5.1-7.3,7.9c-0.5-2.1-1.3-4-2.5-5.8c-2.5-3.8-6.4-6.3-10.8-7.2l-0.1,0c-1.3-0.2-2.5,0.6-2.8,1.9l0,0.1  c-0.8,4.5,0.1,9.1,2.7,12.9c2,3,4.8,5.2,8.1,6.4c-1.8,3.2-3.2,6.5-4.3,9.9c-0.6-1.2-1.4-2.3-2.3-3.3c-3-3.4-7.2-5.4-11.7-5.6h-0.1  c-1.3-0.1-2.4,1-2.5,2.3v0.1c-0.4,8.8,5.8,16.4,14.1,17.8c-1,9,0.3,18.1,4.3,26.5c0,0.1,0,0.2,0,0.4c0,5.9,0.8,11.7,2.2,17.1  c-6.4-6-11.5-13.5-15-22.1c5.1-7.2,4.1-17.3-2.6-23.2L19.2,70c-0.5-0.4-1.1-0.6-1.7-0.6c-0.6,0.1-1.2,0.4-1.6,0.8l-0.1,0.1  c-2.9,3.5-4.4,7.9-4,12.5c0.3,4.4,2.3,8.5,5.5,11.4c0.8,2.2,1.8,4.2,2.8,6.2c-1.3-0.3-2.6-0.5-3.9-0.5c-5,0-9.7,2.2-12.9,6.2  l-0.1,0.1c-0.4,0.5-0.6,1.1-0.6,1.8s0.3,1.2,0.9,1.6l0.1,0.1c3,2.6,6.9,4,10.8,4l0,0c4.1,0,8.1-1.6,11.1-4.3  c4,5.6,8.9,10.5,14.3,14.4c1.5,3.6,3.3,7.1,5.3,10.3c-2.7,3.5-3.9,8-3.4,12.5c-2.3-1.6-4.5-3.4-6.6-5.4c0.8-4,0.2-8.2-1.8-11.8  c-2.2-4-5.8-6.9-10.1-8.2l-0.1,0c-1.3-0.4-2.6,0.4-2.9,1.7l0,0.1c-1.2,4.4-0.7,9.1,1.5,13.1c2.1,3.9,5.5,6.7,9.7,8  c1.7,1.6,3.4,3.1,5.1,4.5c-6.1,1.3-11.2,6-12.9,12.4l0,0.1c-0.3,1.3,0.4,2.6,1.7,3l0.1,0c1.4,0.4,2.9,0.6,4.4,0.6l0,0  c6.7,0,12.8-4.1,15.4-10.3c3.2,1.8,6.5,3.2,9.8,4.4c-5.5,3.6-8.7,10.2-7.6,17.2l0,0.1c0.2,1.2,1.2,2,2.3,2c0.1,0,0.2,0,0.4,0l0.1,0  c4.5-0.7,8.4-3.2,11-6.9c2.1-2.9,3.2-6.4,3.3-9.9c3.3,0.6,6.6,0.9,9.9,0.9c0.2,0,0.5,0,0.7,0c-0.9,1-1.7,2.1-2.3,3.3  c-2.1,4.1-2.6,8.7-1.3,13.1l0.1,0.1c0.3,1,1.3,1.7,2.3,1.7c0.2,0,0.5,0,0.7-0.1l0.1-0.1c4.3-1.3,7.9-4.3,10-8.4  c1.4-2.7,2.1-5.7,2-8.7c3.3,0.7,6.7,1.2,10.2,1.4l-2.3,3.3c-4.4,6.3-4.4,16.2,0,22.6c0.7,1.1,2.2,1.4,3.3,0.6  c1.1-0.8,1.3-2.3,0.6-3.4c-3.2-4.6-3.2-12.4,0-17l1.5-2.3l1.5,2.3c3.2,4.6,3.2,12.4,0,17c-0.7,1.1-0.5,2.6,0.6,3.4  c0.4,0.3,0.9,0.4,1.4,0.4c0.7,0,1.5-0.4,1.9-1c4.4-6.3,4.4-16.2,0-22.6l-2.3-3.3c3.6-0.2,7.1-0.6,10.5-1.4c-0.1,3,0.6,6,2,8.7  c2.1,4.1,5.7,7,10,8.4l0.1,0.1c0.2,0.1,0.5,0.1,0.7,0.1c1,0,2-0.7,2.3-1.7l0.1-0.1c1.8-5.9,0.2-12.1-3.6-16.4c0.2,0,0.5,0,0.7,0  c3.3,0,6.6-0.3,9.9-0.9c0.1,3.5,1.1,7,3.3,9.9c2.7,3.7,6.6,6.2,11,6.9l0.1,0c0.1,0,0.2,0,0.4,0c0.5,0,1-0.2,1.4-0.5  c0.5-0.4,0.9-1,0.9-1.6l0-0.2c1.1-6.9-2.1-13.6-7.6-17.2c3.3-1.2,6.6-2.6,9.8-4.4c2.7,6.2,8.7,10.3,15.4,10.3c1.5,0,3-0.2,4.4-0.6  l0.1,0c1.3-0.4,2-1.7,1.7-3l0-0.1c-1.7-6.4-6.7-11.1-12.9-12.4c1.8-1.4,3.5-2.9,5.1-4.5c4.1-1.3,7.5-4.1,9.7-8  c2.2-4,2.7-8.7,1.5-13.1l0-0.1c-0.3-1.3-1.7-2-2.9-1.7l-0.1,0.1c-4.3,1.3-7.9,4.1-10.1,8.2c-2,3.6-2.6,7.8-1.8,11.8  c-2.1,2-4.3,3.8-6.6,5.4c0.2-2.2,0.1-4.4-0.5-6.6c-0.6-2.2-1.6-4.1-2.9-5.9c2.1-3.3,3.9-6.7,5.3-10.4c5.3-3.8,10.2-8.7,14.3-14.3  c3.1,2.7,7,4.3,11.1,4.3c3.9,0,7.8-1.4,10.8-4l0.1-0.1c0.5-0.4,0.8-1,0.8-1.6C197.5,107.5,197.3,106.8,196.9,106.3z M178.9,56.4  c-0.7,4.8-4.3,8.8-9,10C170.7,61.6,174.2,57.7,178.9,56.4z M125.8,26.4c-3.1,0-6.1-1.2-8.3-3.3c1.5-0.7,3.1-1,4.8-1  c3.1,0,6.1,1.2,8.3,3.3C129.1,26.1,127.5,26.4,125.8,26.4z M77.7,22.1c1.7,0,3.3,0.4,4.8,1c-2.2,2.1-5.2,3.3-8.3,3.3  c-1.7,0-3.3-0.4-4.8-1C71.7,23.3,74.6,22.1,77.7,22.1z M21.2,56.4c2.3,0.6,4.3,1.9,5.9,3.7c1.6,1.8,2.6,4,3,6.4  C25.5,65.2,21.9,61.3,21.2,56.4z M19,89.1c-1.4-1.9-2.3-4.2-2.5-6.6c-0.2-2.4,0.3-4.8,1.5-6.9C20.9,79.5,21.3,84.8,19,89.1z   M14.4,109c-2,0-4-0.5-5.7-1.5c2.1-1.7,4.7-2.7,7.5-2.7c2,0,4,0.5,5.7,1.5C19.8,108.1,17.1,109,14.4,109z M30.8,138.9  c-2.1-1.1-3.8-2.8-5-5c-1.2-2.2-1.7-4.5-1.5-6.9c2.1,1.1,3.8,2.8,5,5C30.4,134.1,30.9,136.5,30.8,138.9z M29.7,160  c-0.2,0-0.5,0-0.7,0c2.1-4.3,6.7-7.1,11.5-6.8C38.5,157.4,34.3,160,29.7,160z M170.8,132c1.2-2.2,2.9-3.8,5-5  c0.2,2.4-0.3,4.8-1.5,6.9c-1.2,2.2-2.9,3.8-5,4.9C169.1,136.5,169.7,134.1,170.8,132z M171.1,160c-0.2,0-0.5,0-0.7,0  c-4.6,0-8.8-2.7-10.8-6.8C164.4,153,168.9,155.7,171.1,160z M164.2,86.4c-0.6-3.6-1.5-7-2.7-10.3c1.3-0.6,2.5-1.3,3.6-2.2  C165.4,78.1,165.1,82.3,164.2,86.4z M158.3,68.3C158.3,68.3,158.3,68.3,158.3,68.3c1.7,0,3.2,0.3,4.7,1c-0.9,0.9-2,1.7-3.2,2.3  C159.3,70.5,158.8,69.4,158.3,68.3z M169.1,34.4c-0.1,4.9-3.1,9.3-7.5,11.2C161.7,40.6,164.6,36.2,169.1,34.4z M146.4,22.9  c0.4-2.4,1.5-4.6,3.1-6.3c1.9,4.5,0.9,9.8-2.4,13.4C146.3,27.8,146,25.4,146.4,22.9z M149.2,39.9c5.4,5.5,9.6,11.8,12.4,18.8  c0.7,1.9,1.4,3.7,1.9,5.6c-1.7-0.5-3.4-0.8-5.1-0.8c-0.9,0-1.7,0.1-2.6,0.2c-3.6-6-8-11.3-13.2-15.9C145.5,46,147.8,43.3,149.2,39.9  z M145,37.8c-1.2,3.1-3.5,5.5-6.5,6.8c-0.9-0.7-1.8-1.3-2.8-2C137.9,39.7,141.3,37.9,145,37.8z M160.5,98.3  c0,34-27.1,61.8-60.5,61.8s-60.5-27.7-60.5-61.8S66.7,36.6,100,36.6S160.5,64.3,160.5,98.3z M40.3,71.6c-1.2-0.6-2.3-1.3-3.2-2.3  c1.5-0.6,3-1,4.6-1c0,0,0,0,0.1,0C41.3,69.4,40.8,70.5,40.3,71.6z M64.3,42.6c-0.9,0.6-1.9,1.3-2.8,2c-2.9-1.3-5.3-3.7-6.5-6.8  C58.8,37.9,62.2,39.7,64.3,42.6z M49.7,23.7c-0.4-2.4-0.2-4.8,0.7-7c1.6,1.7,2.7,3.9,3.2,6.3c0.4,2.4,0.2,4.8-0.7,7  C51.3,28.3,50.2,26.1,49.7,23.7z M33.1,41.1c-1.4-2-2.1-4.4-2.1-6.8c2.2,0.9,4.1,2.4,5.4,4.5c1.4,2,2.1,4.4,2.1,6.8  C36.3,44.7,34.4,43.1,33.1,41.1z M50.9,39.9c1.4,3.3,3.7,6.1,6.6,7.9c-5.2,4.5-9.6,9.9-13.2,15.9c-0.9-0.1-1.7-0.2-2.6-0.2  c-1.8,0-3.5,0.3-5.1,0.8C39,55.5,43.9,47,50.9,39.9z M35,73.8c1.1,0.9,2.3,1.6,3.6,2.2c-1.2,3.3-2.1,6.8-2.7,10.3  C35,82.3,34.7,78,35,73.8z M47,148.5c-1-3.4-0.6-7,1.1-10c0.9,1.2,1.8,2.3,2.7,3.4C50.2,144.5,48.9,146.8,47,148.5z M57.4,168.6  c-1.4,2-3.3,3.5-5.5,4.3c0.2-4.9,3.3-9.3,7.8-11C59.6,164.3,58.8,166.6,57.4,168.6z M75.5,175c-0.2-2.4,0.3-4.8,1.4-6.9  c1.1-2.2,2.8-3.9,4.9-5C82.2,167.9,79.7,172.6,75.5,175z M50.4,151.9c1.8-1.7,3.2-3.7,4.1-5.9c4.5,4.5,9.7,8.4,15.4,11.4  C63.4,156.8,56.7,155,50.4,151.9z M124.6,175c-2.1-1.1-3.8-2.9-4.9-5c-1.1-2.2-1.6-4.5-1.4-6.9C122.5,165.3,125,170.1,124.6,175z   M148.2,172.9c-2.2-0.8-4.1-2.3-5.5-4.3c-1.4-2-2.2-4.3-2.3-6.7C144.9,163.6,148,168,148.2,172.9z M130.2,157.4  c5.7-3,10.9-6.9,15.4-11.4c0.9,2.2,2.3,4.3,4.1,5.9C143.4,155,136.7,156.8,130.2,157.4z M153.2,141.4c0.6,2.4,0.6,4.8-0.1,7.1  c-2-1.7-3.3-4.1-3.8-6.6c1-1.1,1.9-2.3,2.7-3.4C152.5,139.4,152.9,140.4,153.2,141.4z M179.6,82.2c0.2-2.4,1-4.7,2.5-6.6  c1.1,2.1,1.7,4.5,1.5,6.9c-0.2,2.4-1,4.7-2.5,6.6C179.9,87,179.4,84.7,179.6,82.2z M185.7,109c-2.8,0-5.4-1-7.5-2.7  c1.8-1,3.7-1.5,5.7-1.5c2.8,0,5.4,1,7.5,2.7C189.7,108.5,187.7,109,185.7,109z"/>
<g transform="translate(23.2 42.4) scale(0.15)">
 
 <g id="logo-group" transform="translate(-20.516 .28442) scale(1)">
  <path id="path66355" style="font-variant-ligatures:none" d="m463.01 436.33c0-3.712-2.176-7.712-6.976-7.712h-8.096c-1.152 0-2.112 0.96-2.112 2.112v18.176c0 1.152 0.96 2.112 2.112 2.112 1.184 0 2.144-0.96 2.144-2.112v-16.032h5.952c2.56 0 2.752 2.624 2.752 3.456 0 0.672-0.256 1.408-0.64 2.048-0.608 0.992-0.32 2.304 0.704 2.912 0.992 0.64 2.304 0.32 2.912-0.672 0.8-1.312 1.248-2.848 1.248-4.288zm-6.592 5.504c0-1.152-0.928-2.112-2.112-2.112-1.152 0-2.112 0.96-2.112 2.112 0 1.184 0.96 2.144 2.112 2.144 1.184 0 2.112-0.96 2.112-2.144z" stroke-miterlimit="2" stroke-width="0" fill="#8422f4"/>
  <path id="path66357" style="font-variant-ligatures:none" d="m483.39 435.76c0-4.352-2.976-7.136-7.552-7.136h-6.88c-1.152 0-2.112 0.96-2.112 2.112v18.176c0 1.152 0.96 2.112 2.112 2.112 1.184 0 2.144-0.96 2.144-2.112v-5.76h4.64l0.96 1.536c0.608 0.992 1.92 1.28 2.912 0.64 1.952-1.248 0.384-3.296 0.384-3.296 2.208-1.248 3.392-3.52 3.392-6.272zm-7.648 3.712h-4.64v-6.72h4.736c2.208 0 3.296 1.312 3.296 3.264 0 1.792-0.864 3.456-3.392 3.456zm8.32 9.408c0-1.184-0.928-2.144-2.112-2.144-1.152 0-2.112 0.96-2.112 2.144 0 1.152 0.96 2.112 2.112 2.112 1.184 0 2.112-0.96 2.112-2.112z" stroke-miterlimit="2" stroke-width="0" fill="#8422f4"/>
  <path id="path66359" style="font-variant-ligatures:none" d="m510.24 439.79c0-3.648-1.664-6.976-4.544-9.248-0.928-0.704-2.272-0.544-2.976 0.384-0.736 0.896-0.576 2.24 0.352 2.976 1.856 1.44 2.912 3.552 2.912 5.888 0 4.16-3.392 7.552-7.552 7.552s-7.52-3.392-7.52-7.552c0-2.336 1.056-4.448 2.88-5.888 0.928-0.736 1.088-2.08 0.384-2.976-0.736-0.928-2.08-1.088-2.976-0.384-2.88 2.272-4.544 5.6-4.544 9.248 0 6.528 5.28 11.808 11.776 11.808s11.808-5.28 11.808-11.808zm-13.92-9.6c0 1.152 0.96 2.112 2.112 2.112 1.184 0 2.144-0.96 2.144-2.112 0-1.184-0.96-2.144-2.144-2.144-1.152 0-2.112 0.96-2.112 2.144z" stroke-miterlimit="2" stroke-width="0" fill="#8422f4"/>
  <path id="path66361" style="font-variant-ligatures:none" d="m512.79 439.82c0 6.496 5.28 11.776 11.776 11.776 2.784 0 5.984-0.992 8.096-2.496 0.416-0.288 0.736-0.576 0.928-0.96 0.224-0.48 0.224-0.928 0.224-1.504v-5.024c0-1.152-0.928-2.112-2.112-2.112s-2.112 0.96-2.112 2.112v4.416c-1.408 0.8-3.36 1.312-5.024 1.312-4.16 0-7.52-3.36-7.52-7.52s3.36-7.52 7.52-7.52c2.016 0 3.584 0.672 4.928 1.344 1.024 0.544 2.304 0.672 2.944-0.224 0.672-0.96 0.608-2.24-0.288-2.976-2.432-1.984-5.44-2.4-7.584-2.4-6.496 0-11.776 5.248-11.776 11.776zm10.432 1.792c0 1.184 0.96 2.144 2.144 2.144 1.152 0 2.112-0.96 2.112-2.144 0-1.152-0.96-2.112-2.112-2.112-1.184 0-2.144 0.96-2.144 2.112z" stroke-miterlimit="2" stroke-width="0" fill="#8422f4"/>
  <path id="path66363" style="font-variant-ligatures:none" d="m555.33 435.76c0-4.352-2.976-7.136-7.552-7.136h-6.88c-1.152 0-2.112 0.96-2.112 2.112v18.176c0 1.152 0.96 2.112 2.112 2.112 1.184 0 2.144-0.96 2.144-2.112v-5.76h4.64l0.96 1.536c0.608 0.992 1.92 1.28 2.912 0.64 1.952-1.248 0.384-3.296 0.384-3.296 2.208-1.248 3.392-3.52 3.392-6.272zm-7.648 3.712h-4.64v-6.72h4.736c2.208 0 3.296 1.312 3.296 3.264 0 1.792-0.864 3.456-3.392 3.456zm8.32 9.408c0-1.184-0.928-2.144-2.112-2.144-1.152 0-2.112 0.96-2.112 2.144 0 1.152 0.96 2.112 2.112 2.112 1.184 0 2.112-0.96 2.112-2.112z" stroke-miterlimit="2" stroke-width="0" fill="#8422f4"/>
  <path id="path66365" style="font-variant-ligatures:none" d="m559.85 450.83c1.056 0.48 2.304 0.032 2.816-1.024l2.016-4.224h10.752c0.736 0 1.376-0.384 1.76-0.96 0.736-1.088 0.16-2.016-0.192-2.752l-5.696-12.032c-0.352-0.736-1.12-1.216-1.92-1.216-0.832 0-1.568 0.48-1.92 1.216l-8.64 18.144c-0.48 1.056-0.032 2.336 1.024 2.848zm9.536-15.168 3.008 6.272h-5.984zm8.608 11.104c-1.152 0-2.112 0.96-2.112 2.144 0 1.152 0.96 2.112 2.112 2.112 1.184 0 2.144-0.96 2.144-2.112 0-1.184-0.96-2.144-2.144-2.144z" stroke-miterlimit="2" stroke-width="0" fill="#8422f4"/>
  <path id="path66367" style="font-variant-ligatures:none" d="m604.43 442.54c0 1.152 0.96 2.112 2.112 2.112 1.184 0 2.144-0.96 2.144-2.112v-11.808c0-0.96-0.672-1.792-1.6-2.048-0.928-0.224-1.92 0.192-2.368 1.024l-8.352 15.456-8.128-15.424c-0.448-0.864-1.44-1.28-2.368-1.056-0.96 0.256-1.6 1.088-1.6 2.048v18.176c0 1.152 0.96 2.112 2.112 2.112 1.184 0 2.144-0.96 2.144-2.112v-10.848l5.952 11.84c0.384 0.704 1.088 1.12 1.856 1.12s1.472-0.416 1.856-1.088l6.24-12.064zm4.256 6.368c0-1.184-0.96-2.144-2.144-2.144-1.152 0-2.112 0.96-2.112 2.144 0 1.152 0.96 2.112 2.112 2.112 1.184 0 2.144-0.96 2.144-2.112z" stroke-miterlimit="2" stroke-width="0" fill="#8422f4"/>
  <path id="path66369" style="font-variant-ligatures:none" d="m635.24 442.54c0 1.152 0.96 2.112 2.112 2.112 1.184 0 2.144-0.96 2.144-2.112v-11.808c0-0.96-0.672-1.792-1.6-2.048-0.928-0.224-1.92 0.192-2.368 1.024l-8.352 15.456-8.128-15.424c-0.448-0.864-1.44-1.28-2.368-1.056-0.96 0.256-1.6 1.088-1.6 2.048v18.176c0 1.152 0.96 2.112 2.112 2.112 1.184 0 2.144-0.96 2.144-2.112v-10.848l5.952 11.84c0.384 0.704 1.088 1.12 1.856 1.12s1.472-0.416 1.856-1.088l6.24-12.064zm4.256 6.368c0-1.184-0.96-2.144-2.144-2.144-1.152 0-2.112 0.96-2.112 2.144 0 1.152 0.96 2.112 2.112 2.112 1.184 0 2.144-0.96 2.144-2.112z" stroke-miterlimit="2" stroke-width="0" fill="#8422f4"/>
  <path id="path66371" style="font-variant-ligatures:none" d="m647.88 451.02c1.184 0 2.144-0.96 2.144-2.112v-12.384c0-1.152-0.96-2.112-2.144-2.112-1.152 0-2.112 0.96-2.112 2.112v12.384c0 1.152 0.96 2.112 2.112 2.112zm0-18.72c1.184 0 2.144-0.96 2.144-2.144 0-1.152-0.96-2.112-2.144-2.112-1.152 0-2.112 0.96-2.112 2.112 0 1.184 0.96 2.144 2.112 2.144z" stroke-miterlimit="2" stroke-width="0" fill="#8422f4"/>
  <path id="path66373" style="font-variant-ligatures:none" d="m659.76 429.64c-0.992-1.152-2.048-1.216-2.848-0.768-1.024 0.544-1.12 1.504-1.12 2.304v17.728c0 1.152 0.96 2.112 2.112 2.112 1.184 0 2.144-0.96 2.144-2.112v-12.672l11.104 13.6c0.352 0.416 0.608 0.704 1.088 0.96 0.896 0.448 1.696 0.16 2.208-0.224 0.64-0.544 0.8-1.184 0.8-1.92v-11.584c0-1.152-0.96-2.112-2.144-2.112-1.152 0-2.112 0.96-2.112 2.144v6.336zm13.376-1.024c-1.184 0-2.144 0.928-2.144 2.112s0.96 2.112 2.144 2.112c1.152 0 2.112-0.928 2.112-2.112s-0.96-2.112-2.112-2.112z" stroke-miterlimit="2" stroke-width="0" fill="#8422f4"/>
  <path id="path66375" style="font-variant-ligatures:none" d="m679.22 439.82c0 6.496 5.28 11.776 11.776 11.776 2.784 0 5.984-0.992 8.096-2.496 0.416-0.288 0.736-0.576 0.928-0.96 0.224-0.48 0.224-0.928 0.224-1.504v-5.024c0-1.152-0.928-2.112-2.112-2.112s-2.112 0.96-2.112 2.112v4.416c-1.408 0.8-3.36 1.312-5.024 1.312-4.16 0-7.52-3.36-7.52-7.52s3.36-7.52 7.52-7.52c2.016 0 3.584 0.672 4.928 1.344 1.024 0.544 2.304 0.672 2.944-0.224 0.672-0.96 0.608-2.24-0.288-2.976-2.432-1.984-5.44-2.4-7.584-2.4-6.496 0-11.776 5.248-11.776 11.776zm10.432 1.792c0 1.184 0.96 2.144 2.144 2.144 1.152 0 2.112-0.96 2.112-2.144 0-1.152-0.96-2.112-2.112-2.112-1.184 0-2.144 0.96-2.144 2.112z" stroke-miterlimit="2" stroke-width="0" fill="#8422f4"/>
  <path id="path66377" style="font-variant-ligatures:none" d="m737.18 437.1c0-1.152-0.96-2.112-2.112-2.112-1.184 0-2.144 0.96-2.144 2.112v4.48c0 2.784-1.44 5.76-5.504 5.76-4.992 0-5.504-4-5.504-5.76v-10.848c0-1.152-0.96-2.112-2.144-2.112-1.152 0-2.112 0.96-2.112 2.112v10.848c0 5.984 3.936 10.016 9.76 10.016 6.72 0 9.76-5.184 9.76-10.016zm-2.112-4.224c1.152 0 2.112-0.96 2.112-2.144 0-1.152-0.96-2.112-2.112-2.112-1.184 0-2.144 0.96-2.144 2.112 0 1.184 0.96 2.144 2.144 2.144z" stroke-miterlimit="2" stroke-width="0" fill="#8422f4"/>
  <path id="path66379" style="font-variant-ligatures:none" d="m746.26 429.64c-0.992-1.152-2.048-1.216-2.848-0.768-1.024 0.544-1.12 1.504-1.12 2.304v17.728c0 1.152 0.96 2.112 2.112 2.112 1.184 0 2.144-0.96 2.144-2.112v-12.672l11.104 13.6c0.352 0.416 0.608 0.704 1.088 0.96 0.896 0.448 1.696 0.16 2.208-0.224 0.64-0.544 0.8-1.184 0.8-1.92v-11.584c0-1.152-0.96-2.112-2.144-2.112-1.152 0-2.112 0.96-2.112 2.144v6.336zm13.376-1.024c-1.184 0-2.144 0.928-2.144 2.112s0.96 2.112 2.144 2.112c1.152 0 2.112-0.928 2.112-2.112s-0.96-2.112-2.112-2.112z" stroke-miterlimit="2" stroke-width="0" fill="#8422f4"/>
  <path id="path66381" style="font-variant-ligatures:none" d="m769.63 451.02c1.184 0 2.144-0.96 2.144-2.112v-12.384c0-1.152-0.96-2.112-2.144-2.112-1.152 0-2.112 0.96-2.112 2.112v12.384c0 1.152 0.96 2.112 2.112 2.112zm0-18.72c1.184 0 2.144-0.96 2.144-2.144 0-1.152-0.96-2.112-2.144-2.112-1.152 0-2.112 0.96-2.112 2.112 0 1.184 0.96 2.144 2.112 2.144z" stroke-miterlimit="2" stroke-width="0" fill="#8422f4"/>
  <path id="path66383" style="font-variant-ligatures:none" d="m786.27 430.73c0-1.152-0.832-2.112-2.112-2.112h-6.752c-1.152 0-2.112 0.96-2.112 2.112 0 1.184 0.96 2.144 2.112 2.144h4.64v16.032c0 1.152 0.928 2.112 2.112 2.112s2.112-0.96 2.112-2.112zm4.64-2.112c-1.184 0-2.144 0.96-2.144 2.112 0 1.184 0.96 2.144 2.144 2.144 1.152 0 2.112-0.96 2.112-2.144 0-1.152-0.96-2.112-2.112-2.112z" stroke-miterlimit="2" stroke-width="0" fill="#8422f4"/>
  <path id="path66385" style="font-variant-ligatures:none" d="m808.93 437.29c0.64-0.992 0.352-2.304-0.64-2.944-0.992-0.608-2.304-0.32-2.944 0.672l-1.6 2.528-5.024-7.936c-0.608-0.992-1.92-1.28-2.912-0.672-0.992 0.64-1.28 1.952-0.672 2.944l6.528 10.24-0.032 6.784c0 1.152 0.96 2.112 2.144 2.112 1.152 0 2.112-0.96 2.112-2.112v-6.848zm1.632-8.672c-1.184 0-2.112 0.96-2.112 2.112 0 1.184 0.928 2.144 2.112 2.144s2.112-0.96 2.112-2.144c0-1.152-0.928-2.112-2.112-2.112z" stroke-miterlimit="2" stroke-width="0" fill="#8422f4"/>
  <rect id="rect28" style="font-variant-ligatures:normal" height="68.592" width="15.253" stroke-miterlimit="2" y="339.7" x="445.82" stroke-width="0" class="c3" fill="#7c4efd"/>
  <path id="path30" style="font-variant-ligatures:normal" d="m471.29 389.58c-14.044 0-25.469-11.425-25.469-25.469 0-14.043 11.425-25.469 25.469-25.469s25.469 11.425 25.469 25.469c0 14.043-11.425 25.469-25.469 25.469zm0-35.684c-5.6334 0-10.216 4.5825-10.216 10.215 0 5.6327 4.5825 10.215 10.216 10.215 5.6334 0 10.216-4.5825 10.216-10.215 0-5.6327-4.5826-10.215-10.216-10.215z" class="c1" stroke-miterlimit="2" stroke-width="0" fill="#3b2f4e"/>
  <path id="path32" style="font-variant-ligatures:normal" d="m461.08 387.43v-46.628c-8.9687 3.9456-15.253 12.904-15.253 23.314s6.2848 19.368 15.253 23.314z" class="c2" stroke-miterlimit="2" stroke-width="0" fill="#8422f4"/>
  <path id="path66390" style="font-variant-ligatures:normal" d="m502.07 364.9h30.579v-14.723h-30.579z" stroke-miterlimit="2" stroke-width="0" fill="#6029a1"/>
  <path id="path36" style="font-variant-ligatures:normal" d="m573.86 339.67v24.901c0 5.3476-4.351 9.6986-9.6986 9.6986s-9.6986-4.351-9.6986-9.6986v-24.9h-15.253v24.901c0 13.758 11.194 24.952 24.952 24.952s24.952-11.194 24.952-24.952v-24.9z" class="c1" stroke-miterlimit="2" stroke-width="0" fill="#3b2f4e"/>
  <path id="path39" style="font-variant-ligatures:normal" d="m621.87 338.64c-13.758 0-24.952 11.194-24.952 24.952v24.901h15.253v-24.901c0-5.3477 4.351-9.6986 9.6986-9.6986s9.6986 4.351 9.6986 9.6986v24.901h15.253v-24.901c0-13.758-11.194-24.952-24.952-24.952z" class="c1" stroke-miterlimit="2" stroke-width="0" fill="#3b2f4e"/>
  <rect id="rect42" style="font-variant-ligatures:normal" height="48.799" width="15.253" stroke-miterlimit="2" y="339.77" x="655.68" stroke-width="0" class="c1" fill="#3b2f4e"/>
  <circle id="circle44" style="font-variant-ligatures:normal" stroke-width="0" cy="324.97" cx="663.3" stroke-miterlimit="2" r="8.5677" class="c3" fill="#7c4efd"/>
  <rect id="rect47" style="font-variant-ligatures:normal" height="12.48" width="26.546" stroke-miterlimit="2" y="340.07" x="680.18" stroke-width="0" class="c3" fill="#7c4efd"/>
  <path id="path49" style="font-variant-ligatures:normal" d="m699 389.63c-10.376 0-18.816-8.4413-18.816-18.816v-48.13h15.253v48.133c0 1.9642 1.5979 3.5628 3.5628 3.5628 0.93575 0 1.6304-0.35141 2.0475-0.64664l8.8048 12.456c-3.1877 2.2534-6.9402 3.4443-10.852 3.4443z" class="c1" stroke-miterlimit="2" stroke-width="0" fill="#3b2f4e"/>
  <rect id="rect51" style="font-variant-ligatures:normal" height="12.48" width="15.253" stroke-miterlimit="2" y="340.07" x="680.18" stroke-width="0" class="c2" fill="#8422f4"/>
  <polygon id="polygon54" style="font-variant-ligatures:normal" transform="matrix(1.43 0 0 1.43 593.99 220.93)" class="c3" points="117.21 83.038 106.06 83.038 89.705 131 100.86 131" stroke-miterlimit="2" stroke-width="0" fill="#7c4efd"/>
  <polygon id="polygon56" style="font-variant-ligatures:normal" transform="matrix(1.43 0 0 1.43 593.99 220.93)" class="c1" points="105.58 117.16 94.424 117.16 82.788 83.038 93.939 83.038" stroke-miterlimit="2" stroke-width="0" fill="#3b2f4e"/>
  <polygon id="polygon58" style="font-variant-ligatures:normal" transform="matrix(1.43 0 0 1.43 593.99 220.93)" class="c2" points="94.424 117.16 105.58 117.16 100 100.81" stroke-miterlimit="2" stroke-width="0" fill="#8422f4"/>
  <path id="icon" stroke-width="1.125" fill="#3b2f4e" d="m301.25 315.87c-2.8297 0.006-5.2711 0.02-5.4262 0.0313-0.1545 0.0107-0.60486 0.0494-1.0008 0.0863-0.39532 0.0369-1.0715 0.12134-1.5019 0.18702-0.42971 0.0657-1.0634 0.17702-1.4074 0.24707-0.34313 0.072-0.99 0.225-1.4378 0.34313-0.44724 0.11759-1.1647 0.33151-1.595 0.47475-0.42971 0.14323-1.1334 0.40157-1.5638 0.57483-0.42971 0.17264-1.1522 0.49039-1.6044 0.70493-0.45224 0.21517-1.0859 0.53918-1.4074 0.71996-0.32151 0.18076-0.88008 0.51354-1.2417 0.73872-0.36154 0.22581-0.98391 0.64302-1.383 0.92637-0.39969 0.28335-1.0471 0.77687-1.4386 1.0952-0.39219 0.31901-1.1591 1.0177-1.7052 1.5518-0.54607 0.5348-1.2603 1.2816-1.5869 1.66-0.32651 0.37843-0.82566 0.99767-1.1096 1.3761-0.28335 0.37843-0.69118 0.95013-0.90573 1.271-0.21516 0.32026-0.58734 0.91136-0.82815 1.3136-0.24019 0.40157-0.67054 1.209-0.95639 1.7939-0.28523 0.58484-0.6599 1.4149-0.83191 1.8452-0.17202 0.42972-0.43035 1.1334-0.57359 1.5638-0.14323 0.42972-0.37029 1.2041-0.50352 1.7201-0.13386 0.51604-0.31275 1.3042-0.39844 1.7514-0.0851 0.44723-0.20016 1.1928-0.25521 1.6576-0.0544 0.46474-0.11697 0.92886-0.13761 1.0321-0.0213 0.10321-0.0575 6.0141-0.0801 13.136l-0.0413 12.948-0.13511 0.57483c-0.0738 0.31651-0.2083 0.79502-0.29836 1.0634-0.0901 0.26896-0.27522 0.7262-0.41095 1.0164-0.13574 0.29086-0.43536 0.81127-0.66491 1.1572-0.26709 0.40281-0.66616 0.87758-1.1084 1.3204-0.44285 0.44223-0.9176 0.8413-1.3204 1.1084-0.3459 0.22956-0.86632 0.52918-1.1572 0.66491-0.29022 0.13573-0.75309 0.32338-1.0283 0.41596-0.27522 0.0926-0.75373 0.22643-1.0634 0.29711l-0.56295 0.12948-5.1135 0.0231-5.1135 0.0231v18l5.1135 0.0237c4.4473 0.0206 5.1735 0.0376 5.5726 0.12635 0.2527 0.0563 0.70306 0.17639 1.0008 0.26708 0.29774 0.0913 0.80627 0.28961 1.1308 0.44098 0.32463 0.15137 0.8732 0.46412 1.2204 0.69431 0.40345 0.26771 0.8782 0.66615 1.3211 1.109 0.44222 0.44286 0.84129 0.91761 1.1084 1.3204 0.22956 0.34589 0.52918 0.86632 0.66491 1.1572 0.13573 0.29022 0.32088 0.74747 0.41095 1.0164 0.0901 0.26834 0.22455 0.74685 0.29836 1.0634l0.13512 0.57483 0.0413 12.948c0.0225 7.1214 0.0588 13.032 0.0801 13.136 0.0206 0.10316 0.0832 0.56733 0.1376 1.0321 0.055 0.46412 0.17014 1.2104 0.25521 1.6576 0.0857 0.44723 0.26459 1.2354 0.39844 1.7514 0.13324 0.51604 0.36029 1.2898 0.50353 1.7201 0.14323 0.42972 0.40157 1.1334 0.57358 1.5638 0.17201 0.42972 0.54668 1.2603 0.83192 1.8452 0.28585 0.58484 0.71619 1.3924 0.95638 1.7939 0.24082 0.4022 0.61299 0.9933 0.82816 1.3136 0.21455 0.32089 0.62237 0.89259 0.90573 1.271 0.28397 0.37843 0.78312 0.99767 1.1096 1.3761 0.32651 0.37843 1.0408 1.1252 1.5869 1.66 0.54607 0.53418 1.3129 1.2329 1.7052 1.5518 0.39157 0.31838 1.039 0.81191 1.4386 1.0953 0.39908 0.28334 1.0214 0.70056 1.383 0.92636 0.36154 0.22643 0.95201 0.57484 1.3136 0.775 0.36154 0.20016 0.99454 0.52354 1.4074 0.71869 0.41283 0.19516 1.1028 0.49665 1.5325 0.66992 0.43034 0.17263 1.134 0.43159 1.5638 0.57483 0.43034 0.14323 1.1478 0.35716 1.595 0.47475 0.44724 0.1176 1.0846 0.26959 1.4167 0.33777 0.33215 0.0676 0.88071 0.16827 1.2185 0.22268 0.3384 0.0544 0.96703 0.14324 1.398 0.19828 0.64802 0.0826 1.7414 0.1044 6.3344 0.12761l5.5513 0.0269v-18.016l-5.1135-0.0232-5.1135-0.0237-0.57483-0.13324c-0.3165-0.0738-0.79501-0.20766-1.0634-0.29774-0.26896-0.0901-0.72621-0.27522-1.0164-0.41095-0.29086-0.13573-0.81128-0.43535-1.1572-0.66491-0.40282-0.26709-0.87758-0.66616-1.3204-1.1084-0.44223-0.44286-0.8413-0.91761-1.1084-1.3204-0.22955-0.34589-0.52917-0.86631-0.6649-1.1572-0.13574-0.29023-0.32339-0.7531-0.41596-1.0283-0.0926-0.27522-0.22706-0.75373-0.29836-1.0634l-0.13073-0.56295-0.04-12.886c-0.0275-9.0803-0.0607-13.052-0.11134-13.448-0.0388-0.30962-0.11509-0.87257-0.16888-1.251-0.0538-0.37843-0.18015-1.0971-0.28211-1.5969-0.10133-0.5004-0.30837-1.3448-0.45974-1.8765-0.15137-0.53229-0.40783-1.3323-0.56984-1.7777-0.16138-0.44598-0.43222-1.1334-0.60173-1.5281-0.16951-0.39468-0.54105-1.1703-0.82566-1.7233-0.2846-0.55294-0.76873-1.4074-1.0765-1.899-0.30712-0.49165-0.85818-1.2935-1.2241-1.7827-0.36592-0.48915-0.86569-1.1203-1.1109-1.4037-0.24638-0.2925-0.44775-0.549-0.44775-0.585 0-0.0357 0.20079-0.29648 0.4466-0.57984 0.2452-0.28335 0.74498-0.91448 1.1109-1.4037 0.36592-0.48914 0.91699-1.291 1.2241-1.7827 0.30774-0.49165 0.79125-1.3442 1.074-1.8946 0.28335-0.55044 0.65865-1.3367 0.83441-1.7477 0.17577-0.41096 0.44473-1.0921 0.59735-1.5137 0.15325-0.42158 0.4047-1.209 0.55982-1.7489 0.15513-0.54042 0.36529-1.3936 0.46725-1.8953 0.10196-0.50228 0.22894-1.2229 0.28273-1.6013 0.0538-0.37843 0.1301-0.94138 0.16888-1.251 0.0507-0.39656 0.0838-4.3678 0.11134-13.448l0.04-12.886 0.13073-0.56295c0.0713-0.30962 0.20578-0.78813 0.29836-1.0634 0.0926-0.27522 0.28022-0.73809 0.41596-1.0283 0.13573-0.29085 0.43535-0.81127 0.6649-1.1572 0.26709-0.40282 0.66616-0.87758 1.1084-1.3204 0.44285-0.44223 0.9176-0.8413 1.3204-1.1084 0.3459-0.22955 0.86632-0.52918 1.1572-0.66491 0.29022-0.13573 0.74747-0.32088 1.0164-0.41095 0.26834-0.0901 0.74685-0.22393 1.0634-0.29774l0.57483-0.13448 5.1135-0.0225 5.1135-0.0225v-18zm46.162-0.0107h-4.9884v18.008l5.1135 0.0238c4.4474 0.0206 5.1735 0.0375 5.5726 0.12635 0.25271 0.0563 0.70307 0.17639 1.0008 0.26709 0.29774 0.0913 0.80628 0.28961 1.1308 0.44098 0.32464 0.15136 0.8732 0.46411 1.2204 0.6943 0.40345 0.26772 0.8782 0.66616 1.3211 1.109 0.44222 0.44286 0.84129 0.91761 1.1084 1.3204 0.22956 0.3459 0.52918 0.86631 0.66491 1.1572 0.13573 0.29023 0.32088 0.74747 0.41095 1.0164 0.0901 0.26833 0.22456 0.74684 0.29836 1.0634l0.13511 0.57483 0.04 12.886c0.0281 9.0879 0.0613 13.051 0.11138 13.448 0.0394 0.30962 0.11572 0.87257 0.16951 1.251 0.0538 0.37843 0.18015 1.0971 0.2821 1.5969 0.10136 0.5004 0.30837 1.3448 0.45974 1.8765 0.15138 0.5323 0.40784 1.3323 0.56984 1.7777 0.16138 0.44599 0.43222 1.1334 0.60172 1.5281 0.16952 0.3947 0.54106 1.1703 0.82566 1.7233 0.28461 0.55293 0.76875 1.4074 1.0765 1.899 0.30711 0.49164 0.85818 1.2935 1.2241 1.7827 0.36591 0.48914 0.86568 1.1203 1.1109 1.4037 0.24581 0.28336 0.4466 0.54419 0.4466 0.57984 0 0.0357-0.20079 0.29648-0.4466 0.57983-0.24521 0.28336-0.74498 0.91448-1.1109 1.4037-0.36592 0.48914-0.91761 1.291-1.2266 1.7827-0.30836 0.49164-0.84504 1.4568-1.1928 2.1448-0.34715 0.68805-0.80189 1.6869-1.0102 2.2205-0.20891 0.53292-0.49476 1.3329-0.63676 1.777-0.14136 0.4441-0.35466 1.2041-0.4735 1.6888-0.11947 0.48476-0.2871 1.2891-0.37279 1.7883-0.0857 0.49852-0.20455 1.2867-0.26459 1.7514l-0.10947 0.84442-0.0369 12.886-0.0369 12.886-0.13511 0.57483c-0.0738 0.31651-0.20828 0.79502-0.29836 1.0634-0.0901 0.26897-0.27522 0.72622-0.41095 1.0164-0.13573 0.29086-0.43535 0.81128-0.66491 1.1572-0.26709 0.40283-0.66616 0.87758-1.1084 1.3204-0.44286 0.44223-0.91761 0.8413-1.3204 1.1084-0.34589 0.22956-0.86631 0.52918-1.1572 0.66491-0.29023 0.13573-0.7531 0.32338-1.0283 0.41596-0.27522 0.0926-0.75373 0.22643-1.0634 0.29711l-0.56295 0.12948-5.1135 0.0232-5.1135 0.0232v18.008l4.9571-0.00063c2.7266 0 5.3512-0.0281 5.8328-0.0625 0.48164-0.0344 1.2278-0.10631 1.6576-0.16075 0.43034-0.0538 1.1478-0.16763 1.595-0.25269 0.44723-0.0857 1.2398-0.26522 1.7607-0.39971 0.52104-0.13448 1.2872-0.3584 1.7032-0.49727 0.41596-0.13886 1.1128-0.39531 1.5481-0.56857 0.43534-0.17389 1.1621-0.4929 1.615-0.70932 0.45286-0.21579 1.1178-0.55795 1.4768-0.75936 0.35903-0.20141 0.92073-0.53417 1.2473-0.73934 0.32714-0.20517 0.8757-0.5717 1.2197-0.8144 0.34403-0.24332 0.97766-0.72433 1.4074-1.069 0.43034-0.34528 1.2429-1.0777 1.8064-1.6282 0.56357-0.55107 1.2916-1.3111 1.6182-1.6895 0.32651-0.37843 0.82503-0.99767 1.109-1.3761 0.28336-0.37843 0.68493-0.94138 0.89196-1.251 0.20705-0.30962 0.53919-0.83067 0.73872-1.1572 0.19891-0.32714 0.60549-1.0727 0.90322-1.6576 0.29774-0.58484 0.69118-1.4293 0.87445-1.8765 0.18327-0.44723 0.47163-1.2216 0.63989-1.7201 0.16888-0.49915 0.40282-1.2729 0.52104-1.7201 0.11822-0.44723 0.27022-1.0846 0.33839-1.4167 0.0676-0.33215 0.16827-0.88133 0.22331-1.2197 0.0545-0.33902 0.14512-0.98203 0.20078-1.4293 0.0889-0.71495 0.10575-2.365 0.14012-13.698l0.0394-12.886 0.13073-0.56295c0.0713-0.30962 0.20579-0.78813 0.29836-1.0634 0.0926-0.27522 0.28023-0.73809 0.41596-1.0283 0.13573-0.29086 0.43535-0.81128 0.66491-1.1572 0.26709-0.40283 0.66616-0.87758 1.1084-1.3204 0.44286-0.44222 0.91761-0.84129 1.3204-1.1084 0.34589-0.22956 0.86631-0.52918 1.1572-0.66491 0.29023-0.13573 0.74747-0.32088 1.0164-0.41095 0.26833-0.0901 0.74684-0.22393 1.0634-0.29774l0.57483-0.13449 5.1135-0.0225 5.1135-0.0225v-18.022l-5.1135-0.0231-5.1135-0.0238-0.57483-0.13323c-0.31651-0.0738-0.79502-0.20705-1.0634-0.29648-0.26897-0.0888-0.74561-0.28649-1.0596-0.43848-0.31399-0.15137-0.83504-0.45161-1.1572-0.66616-0.35403-0.23581-0.85943-0.66428-1.2773-1.0815-0.44285-0.44285-0.84066-0.91635-1.1084-1.3198-0.22956-0.3459-0.52918-0.86631-0.66491-1.1572-0.13573-0.29023-0.32338-0.7531-0.41596-1.0283-0.0926-0.27522-0.22705-0.75373-0.29836-1.0634l-0.13073-0.56295-0.0376-12.886c-0.0332-11.526-0.0482-12.971-0.14135-13.704-0.0576-0.45036-0.14888-1.0934-0.20267-1.4293-0.0545-0.33589-0.1545-0.88258-0.22206-1.2148-0.0682-0.33215-0.22017-0.96953-0.33777-1.4167-0.11758-0.44724-0.33151-1.1653-0.47475-1.595-0.14323-0.43035-0.40156-1.134-0.57483-1.5638-0.17264-0.43034-0.49039-1.1522-0.70494-1.6044-0.21517-0.45224-0.53918-1.0859-0.71995-1.4074s-0.51354-0.8807-0.73872-1.2417c-0.2258-0.36154-0.64301-0.98391-0.92636-1.383-0.28335-0.39969-0.77688-1.0471-1.0952-1.4386-0.31901-0.39219-1.0177-1.1591-1.5518-1.7052-0.5348-0.54607-1.2816-1.2603-1.66-1.5869-0.37842-0.32651-1.0139-0.83942-1.4118-1.1396-0.39782-0.29961-1.0452-0.75686-1.4386-1.0152-0.39344-0.25896-1.0527-0.6624-1.4655-0.8976-0.41283-0.23456-1.1728-0.62925-1.6888-0.87632-0.51603-0.24771-1.3742-0.61988-1.9078-0.82754-0.53292-0.20767-1.3492-0.49102-1.814-0.63051-0.46475-0.13886-1.1259-0.32276-1.4699-0.40782-0.34402-0.0857-0.99141-0.22581-1.4386-0.31151-0.44723-0.0857-1.1647-0.20016-1.595-0.25395-0.42972-0.0538-1.1616-0.12573-1.6263-0.16075-0.46475-0.0344-3.0869-0.0632-5.8328-0.0632zm-22.793 40.562c-0.51603-0.0125-1.1347 0.004-1.3749 0.0375-0.24082 0.0332-0.70806 0.12886-1.039 0.21267-0.33151 0.0832-0.81815 0.23769-1.0827 0.34278-0.26396 0.10509-0.64302 0.27272-0.84193 0.37342-0.19891 0.10008-0.62675 0.35966-0.95139 0.57546-0.35778 0.23894-0.86131 0.66491-1.281 1.084-0.44285 0.44286-0.84066 0.91636-1.1084 1.3198-0.22956 0.34591-0.53043 0.86945-0.66866 1.164-0.13824 0.29462-0.33464 0.79251-0.43722 1.1059-0.10257 0.31338-0.23581 0.8169-0.29586 1.1184-0.0794 0.3972-0.10946 0.85068-0.10946 1.6432 0 0.7925 0.03 1.246 0.10946 1.6432 0.06 0.30149 0.19328 0.80502 0.29586 1.1184s0.29899 0.81127 0.43722 1.1059c0.13824 0.29461 0.4391 0.81815 0.66866 1.164 0.26709 0.40282 0.66616 0.87758 1.1084 1.3204 0.44286 0.44222 0.91761 0.84129 1.3204 1.1084 0.34591 0.22956 0.86632 0.52918 1.1572 0.66491 0.29023 0.13573 0.7481 0.32088 1.0171 0.41095 0.26896 0.0907 0.76123 0.22393 1.0946 0.29711 0.48914 0.10697 0.82253 0.13324 1.7314 0.13511 0.83254 0.002 1.2704-0.0263 1.6808-0.10821 0.30524-0.0607 0.78375-0.18202 1.0634-0.27021 0.27959-0.0882 0.77374-0.28398 1.0984-0.43536 0.32401-0.15136 0.87257-0.46287 1.2197-0.6918 0.41096-0.27147 0.87007-0.65741 1.3204-1.1096 0.43723-0.43847 0.8438-0.92324 1.1084-1.3216 0.23018-0.3459 0.5298-0.86631 0.66553-1.1572 0.13573-0.29023 0.32088-0.7481 0.41095-1.0171 0.0907-0.26896 0.22393-0.76123 0.29711-1.0946 0.10947-0.49665 0.13324-0.81315 0.13324-1.7626 0-0.94951-0.0237-1.266-0.13324-1.7626-0.0731-0.3334-0.20641-0.82566-0.29711-1.0946-0.0901-0.26896-0.27522-0.72683-0.41095-1.0171-0.13573-0.29085-0.43535-0.81127-0.66553-1.1572-0.26459-0.39844-0.67116-0.8832-1.1084-1.3216-0.45036-0.45224-0.90948-0.83817-1.3204-1.1096-0.34715-0.22894-0.89571-0.54043-1.2197-0.69181-0.32464-0.15137-0.81691-0.34652-1.0946-0.43409-0.27772-0.0876-0.74246-0.20579-1.0321-0.26271-0.29149-0.0569-0.94701-0.11322-1.4655-0.12573zm0 36.029c-0.51603-0.0125-1.1347 0.005-1.3749 0.0376-0.24082 0.0332-0.70806 0.12884-1.039 0.21267-0.33151 0.0832-0.81815 0.23769-1.0827 0.34277-0.26396 0.10508-0.64302 0.27271-0.84193 0.37342-0.19891 0.10013-0.62675 0.35967-0.95139 0.57547-0.35778 0.23893-0.86131 0.6649-1.281 1.084-0.44285 0.44284-0.84066 0.91636-1.1084 1.3198-0.22956 0.34589-0.53043 0.86944-0.66866 1.164-0.13824 0.29461-0.33464 0.7925-0.43722 1.1059-0.10257 0.31338-0.23581 0.81691-0.29586 1.1184-0.0794 0.39719-0.10946 0.85068-0.10946 1.6432 0 0.79251 0.03 1.246 0.10946 1.6432 0.06 0.30149 0.19328 0.80501 0.29586 1.1184 0.10258 0.31337 0.29899 0.81127 0.43722 1.1059 0.13824 0.2946 0.4391 0.81816 0.66866 1.164 0.26709 0.40283 0.66616 0.87758 1.1084 1.3204 0.44286 0.44223 0.91761 0.8413 1.3204 1.1084 0.34591 0.22956 0.86632 0.52918 1.1572 0.66491 0.29023 0.13573 0.7481 0.32089 1.0171 0.41096 0.26896 0.0907 0.76123 0.22393 1.0946 0.29711 0.48914 0.10698 0.82253 0.13323 1.7314 0.13511 0.83254 0.002 1.2704-0.0263 1.6808-0.10823 0.30524-0.0606 0.78375-0.18202 1.0634-0.27021 0.27959-0.0882 0.77374-0.28398 1.0984-0.43535 0.32401-0.15137 0.87257-0.46287 1.2197-0.6918 0.41096-0.27147 0.87007-0.6574 1.3204-1.1096 0.43723-0.43847 0.8438-0.92323 1.1084-1.3216 0.23018-0.34589 0.5298-0.86632 0.66553-1.1572 0.13573-0.29022 0.32088-0.74809 0.41095-1.017 0.0907-0.26897 0.22393-0.76123 0.29711-1.0946 0.10947-0.49665 0.13324-0.81315 0.13324-1.7626 0-0.94951-0.0237-1.266-0.13324-1.7626-0.0731-0.33339-0.20641-0.82566-0.29711-1.0946-0.0901-0.26897-0.27522-0.72683-0.41095-1.0171-0.13573-0.29086-0.43535-0.81128-0.66553-1.1572-0.26459-0.39846-0.67116-0.88322-1.1084-1.3216-0.45036-0.45224-0.90948-0.83817-1.3204-1.1096-0.34715-0.22892-0.89571-0.54043-1.2197-0.69179-0.32464-0.15137-0.81691-0.34654-1.0946-0.43411-0.27772-0.0875-0.74246-0.20578-1.0321-0.26271-0.29149-0.0569-0.94701-0.11321-1.4655-0.12572z"/>
 </g>
</g></svg>
