<?xml version="1.0" encoding="utf-8"?>
<svg version="1.1" xmlns:cc="http://creativecommons.org/ns#" xmlns:dc="http://purl.org/dc/elements/1.1/" xmlns:rdf="http://www.w3.org/1999/02/22-rdf-syntax-ns#" xmlns="http://www.w3.org/2000/svg" xmlns:xlink="http://www.w3.org/1999/xlink" x="0px" y="0px" viewBox="0 0 200 200" xml:space="preserve">
<style>
.fade{
opacity: 0;
animation: fadeIn 4s ease-in forwards infinite;
}

@keyframes fadeIn { 0% { opacity:0; } 50% { opacity:0; } 100% { opacity:1; } }
@keyframes fadeOut { from { opacity:1; } to { opacity:0; } }

.outline{
opacity: 1;
stroke-dasharray: 2000;
stroke-dashoffset: 2000;
animation: dash 4s ease-in-out forwards infinite;
}

@keyframes dash {
  0% {
    stroke-dashoffset: 2000;
  }
  100% {
    stroke-dashoffset: 0;
  }
}
</style>
<defs>
<filter id="filter" x="-50%" y="-50%" width="200%" height="200%">
	<feFlood flood-color="#ffffff" result="flood-white" />
	<feFlood flood-color="#a688fc" result="flood-accent" />
	
	<feComposite operator="out" in="flood-accent" in2="SourceAlpha" result="comp" />
	<feGaussianBlur in="comp" result="comp" stdDeviation="2" />
	<feComposite operator="in" in="comp" in2="SourceAlpha" result="comp" />
	
	<feComposite operator="in" in="flood-white" in2="SourceAlpha" result="comp2" />
	<feGaussianBlur in="comp2" result="comp2" stdDeviation="3" />
	<feBlend in="comp" in2="comp2" result="output" mode="screen" />
</filter>

<filter id="electric" x="-50%" y="-50%" width="200%" height="200%">
	<feTurbulence baseFrequency="0.08" type="fractalNoise" numOctaves="1" seed="1" result="noise"></feTurbulence>
	<feColorMatrix in="noise" result="noise" type="hueRotate" values="90">
	  <animate attributeType="XML" attributeName="values" values="0;180;360" dur="3s" repeatCount="indefinite"/> 
	</feColorMatrix>
	<feDisplacementMap in="SourceGraphic" xChannelSelector="R" in2="noise" scale="20" result="lines"></feDisplacementMap>
	<feGaussianBlur in="lines" result="output" stdDeviation="10" />
	<feBlend in="lines" in2="output" result="output" mode="screen" />
</filter>
 <filter id="glow" x="-50%" y="-50%" width="200%" height="200%">
  <feGaussianBlur in="SourceGraphic" stdDeviation="12" />
</filter> 
<filter id="glow2" x="-100%" y="-100%" width="300%" height="300%">
  <feGaussianBlur in="SourceGraphic" stdDeviation="70" />
</filter>
<filter id="shadow" x="-50%" y="-50%" width="200%" height="200%">
  <feGaussianBlur in="SourceGraphic" stdDeviation="4" />
</filter>
</defs>
<g transform="translate(20 20) scale(0.8)">
<path d="m100 40c-6.2578 0-12.21 1.3248-17.602 3.6953v-1.881h-26.283v118.19h26.283v-35.93c5.3918 2.3706 11.344 3.6953 17.602 3.6953 24.198 0 43.885-19.686 43.885-43.883s-19.686-43.883-43.885-43.883zm0 26.281c9.7064 0 17.602 7.8963 17.602 17.602 0 9.7052-7.8952 17.602-17.602 17.602-9.7064 0-17.602-7.8963-17.602-17.602 0-9.7052 7.8952-17.602 17.602-17.602z" class="fade" fill="#a688fc" stroke="#a688fc" stroke-width="5" filter="url(#glow2)" opacity="0.7" mix-blend-mode="screen" />
<path d="m100 40c-6.2578 0-12.21 1.3248-17.602 3.6953v-1.881h-26.283v118.19h26.283v-35.93c5.3918 2.3706 11.344 3.6953 17.602 3.6953 24.198 0 43.885-19.686 43.885-43.883s-19.686-43.883-43.885-43.883zm0 26.281c9.7064 0 17.602 7.8963 17.602 17.602 0 9.7052-7.8952 17.602-17.602 17.602-9.7064 0-17.602-7.8963-17.602-17.602 0-9.7052 7.8952-17.602 17.602-17.602z" class="fade" fill="#a688fc" stroke="#a688fc" stroke-width="5" filter="url(#glow)" opacity="1" mix-blend-mode="screen" />
<path d="m100 40c-6.2578 0-12.21 1.3248-17.602 3.6953v-1.881h-26.283v118.19h26.283v-35.93c5.3918 2.3706 11.344 3.6953 17.602 3.6953 24.198 0 43.885-19.686 43.885-43.883s-19.686-43.883-43.885-43.883zm0 26.281c9.7064 0 17.602 7.8963 17.602 17.602 0 9.7052-7.8952 17.602-17.602 17.602-9.7064 0-17.602-7.8963-17.602-17.602 0-9.7052 7.8952-17.602 17.602-17.602z" class="outline" stroke="#a688fc" stroke-width="6" fill="none" filter="url(#electric)" mix-blend-mode="screen" />
<path d="m100 40c-6.2578 0-12.21 1.3248-17.602 3.6953v-1.881h-26.283v118.19h26.283v-35.93c5.3918 2.3706 11.344 3.6953 17.602 3.6953 24.198 0 43.885-19.686 43.885-43.883s-19.686-43.883-43.885-43.883zm0 26.281c9.7064 0 17.602 7.8963 17.602 17.602 0 9.7052-7.8952 17.602-17.602 17.602-9.7064 0-17.602-7.8963-17.602-17.602 0-9.7052 7.8952-17.602 17.602-17.602z" class="outline" stroke="#ffffff" stroke-width="3" fill="none" filter="url(#electric)" mix-blend-mode="screen" opacity="0.5" />
<path class="fade" d="m100 40c-6.2578 0-12.21 1.3248-17.602 3.6953v-1.881h-26.283v118.19h26.283v-35.93c5.3918 2.3706 11.344 3.6953 17.602 3.6953 24.198 0 43.885-19.686 43.885-43.883s-19.686-43.883-43.885-43.883zm0 26.281c9.7064 0 17.602 7.8963 17.602 17.602 0 9.7052-7.8952 17.602-17.602 17.602-9.7064 0-17.602-7.8963-17.602-17.602 0-9.7052 7.8952-17.602 17.602-17.602z" fill="#ffffff" filter="url(#filter)" />
</g>
</svg>