<?xml version="1.0" encoding="utf-8"?>
<svg version="1.1" xmlns:cc="http://creativecommons.org/ns#" xmlns:dc="http://purl.org/dc/elements/1.1/" xmlns:rdf="http://www.w3.org/1999/02/22-rdf-syntax-ns#" xmlns="http://www.w3.org/2000/svg" xmlns:xlink="http://www.w3.org/1999/xlink" x="0px" y="0px" viewBox="0 0 200 200" xml:space="preserve">
<defs>
    <linearGradient id="gradient1" x1="0%" y1="100%" x2="0" y2="0%">
      <stop offset="0%" stop-color="#a6adb2" />
      <stop offset="19%" stop-color="#8e9397" />
      <stop offset="29%" stop-color="#ffffff" />
      <stop offset="48%" stop-color="#a4a8aa" />
      <stop offset="59%" stop-color="#ffffff" />
      <stop offset="74%" stop-color="#d3d7d8" />
      <stop offset="100%" stop-color="#d3d7d8" />
    </linearGradient>
	<linearGradient id="gradient2" x1="0%" y1="0%" x2="0%" y2="100%">
      <stop offset="0%" stop-color="#081225" />
      <stop offset="21%" stop-color="#78848a" />
      <stop offset="25%" stop-color="#171c1f" />
      <stop offset="33%" stop-color="#ededed" />
      <stop offset="42%" stop-color="#14191d" />
      <stop offset="48%" stop-color="#78848a" />
      <stop offset="80%" stop-color="#f3f3f3" />
      <stop offset="100%" stop-color="#67737f" />

    </linearGradient>
  <filter id="chrome">

	<!-- inner glow -->
	<feOffset result="inner-glow" in="SourceGraphic" dx="0" dy="20" />
	<feFlood flood-color="#ffffff" result="flood-white" />
	<feComposite operator="out" in="flood-white" in2="SourceAlpha" result="comp" />
	<feOffset result="comp" in="comp" dx="0" dy="4" />
	<feMorphology in="comp" result="comp" operator="dilate" radius="2" />
	<feGaussianBlur in="comp" result="comp" stdDeviation="2" />
	<feComposite operator="in" in="comp" in2="SourceAlpha" result="comp" />
    <feBlend in="SourceGraphic" in2="comp" mode="screen" />
	
	<!-- bevel -->
	<feGaussianBlur stdDeviation="3" in="SourceAlpha" result="bumpMap"/>
	<feMorphology in="bumpMap" result="bumpMap" operator="erode" radius="4" />
	
	<feComponentTransfer in="bumpMap" result="bumpMap">
	<feFuncA type="table" tableValues="0 .5 0 .5 0" />
	</feComponentTransfer>
	<feDiffuseLighting in="bumpMap" 
					  surfaceScale="1"
					  diffuseConstant="10"
					  result="shading">
		<fePointLight id="light" x="0" y="-300" z="200">
				 
		</fePointLight>
	  </feDiffuseLighting>
	<feBlend in="flood-white" in2="shading" mode="multiply" result="comp2" />
	<feBlend in="comp2" in2="comp" result="output" mode="screen" />
	<feBlend in="output" in2="SourceGraphic" result="output" mode="multiply" />
	<feGaussianBlur in="output" result="output" stdDeviation="1" />
	<feComposite operator="in" in="output" in2="SourceAlpha" result="output" />
  </filter>
  
<filter id="shadow" x="-50%" y="-50%" width="200%" height="200%">
  <feGaussianBlur in="SourceGraphic" stdDeviation="3" />
</filter>
</defs>
<path d="m100 40c-6.2578 0-12.21 1.3248-17.602 3.6953v-1.881h-26.283v118.19h26.283v-35.93c5.3918 2.3706 11.344 3.6953 17.602 3.6953 24.198 0 43.885-19.686 43.885-43.883s-19.686-43.883-43.885-43.883zm0 26.281c9.7064 0 17.602 7.8963 17.602 17.602 0 9.7052-7.8952 17.602-17.602 17.602-9.7064 0-17.602-7.8963-17.602-17.602 0-9.7052 7.8952-17.602 17.602-17.602z" transform="translate(3 5)" fill="#000000" stroke="#000000" stroke-width="2" filter="url(#shadow)" opacity="0.7" />
<path d="m100 40c-6.2578 0-12.21 1.3248-17.602 3.6953v-1.881h-26.283v118.19h26.283v-35.93c5.3918 2.3706 11.344 3.6953 17.602 3.6953 24.198 0 43.885-19.686 43.885-43.883s-19.686-43.883-43.885-43.883zm0 26.281c9.7064 0 17.602 7.8963 17.602 17.602 0 9.7052-7.8952 17.602-17.602 17.602-9.7064 0-17.602-7.8963-17.602-17.602 0-9.7052 7.8952-17.602 17.602-17.602z" fill="url(#gradient1)" stroke="url(#gradient2)" stroke-width="4" filter="url(#chrome)" />
</svg>