<?xml version="1.0" encoding="utf-8"?>
<!-- Generator: Adobe Illustrator 21.1.0, SVG Export Plug-In . SVG Version: 6.00 Build 0)  -->
<svg version="1.1" id="Layer_1" xmlns="http://www.w3.org/2000/svg" xmlns:xlink="http://www.w3.org/1999/xlink" x="0px" y="0px"
	 viewBox="0 0 200 200" enable-background="new 0 0 200 200" xml:space="preserve">
<g id="vertical">
	<path fill="#010101" d="M0,200h5V0H0V200z M10,200h5V0h-5V200z M20,200h5V0h-5V200z M30,200h5V0h-5V200z M40,200h5V0h-5V200z
		 M50,200h5V0h-5V200z M60,200h5V0h-5V200z M70,200h5V0h-5V200z M80,200h5V0h-5V200z M90,200h5V0h-5V200z M100,200h5V0h-5V200z
		 M110,200h5V0h-5V200z M120,200h5V0h-5V200z M130,200h5V0h-5V200z M140,200h5V0h-5V200z M150,200h5V0h-5V200z M160,200h5V0h-5V200z
		 M170,200h5V0h-5V200z M180,200h5V0h-5V200z M190,0v200h5V0H190z"/>
	<path fill="#FFFFFF" d="M5,200h5V0H5V200z M15,200h5V0h-5V200z M25,200h5V0h-5V200z M35,200h5V0h-5V200z M45,200h5V0h-5V200z
		 M55,200h5V0h-5V200z M65,200h5V0h-5V200z M75,200h5V0h-5V200z M85,200h5V0h-5V200z M95,200h5V0h-5V200z M105,200h5V0h-5V200z
		 M115,200h5V0h-5V200z M125,200h5V0h-5V200z M135,200h5V0h-5V200z M145,200h5V0h-5V200z M155,200h5V0h-5V200z M165,200h5V0h-5V200z
		 M175,200h5V0h-5V200z M185,200h5V0h-5V200z M195,0v200h5V0H195z"/>
</g>
<g>
	<defs>
		<path id="SVGID_1_" d="m100 40c-6.2578 0-12.21 1.3248-17.602 3.6953v-1.881h-26.283v118.19h26.283v-35.93c5.3918 2.3706 11.344 3.6953 17.602 3.6953 24.198 0 43.885-19.686 43.885-43.883s-19.686-43.883-43.885-43.883zm0 26.281c9.7064 0 17.602 7.8963 17.602 17.602 0 9.7052-7.8952 17.602-17.602 17.602-9.7064 0-17.602-7.8963-17.602-17.602 0-9.7052 7.8952-17.602 17.602-17.602z"/>
	</defs>
	<clipPath id="SVGID_2_">
		<use xlink:href="#SVGID_1_"  overflow="visible"/>
	</clipPath>
	<g id="horizontal" clip-path="url(#SVGID_2_)">
		<path fill="#010101" d="M0,0v5h200V0H0z M0,10v5h200v-5H0z M0,20v5h200v-5H0z M0,30v5h200v-5H0z M0,40v5h200v-5H0z M0,50v5h200v-5
			H0z M0,60v5h200v-5H0z M0,70v5h200v-5H0z M0,80v5h200v-5H0z M0,90v5h200v-5H0z M0,100v5h200v-5H0z M0,110v5h200v-5H0z M0,120v5
			h200v-5H0z M0,130v5h200v-5H0z M0,140v5h200v-5H0z M0,150v5h200v-5H0z M0,160v5h200v-5H0z M0,170v5h200v-5H0z M0,180v5h200v-5H0z
			 M200,190H0v5h200V190z"/>
		<path fill="#FFFFFF" d="M0,5v5h200V5H0z M0,15v5h200v-5H0z M0,25v5h200v-5H0z M0,35v5h200v-5H0z M0,45v5h200v-5H0z M0,55v5h200v-5
			H0z M0,65v5h200v-5H0z M0,75v5h200v-5H0z M0,85v5h200v-5H0z M0,95v5h200v-5H0z M0,105v5h200v-5H0z M0,115v5h200v-5H0z M0,125v5
			h200v-5H0z M0,135v5h200v-5H0z M0,145v5h200v-5H0z M0,155v5h200v-5H0z M0,165v5h200v-5H0z M0,175v5h200v-5H0z M0,185v5h200v-5H0z
			 M200,195H0v5h200V195z"/>
	</g>
</g>
</svg>
