<?xml version="1.0" encoding="utf-8"?>
<!-- Generator: Adobe Illustrator 21.1.0, SVG Export Plug-In . SVG Version: 6.00 Build 0)  -->
<svg xmlns="http://www.w3.org/2000/svg" xmlns:xlink="http://www.w3.org/1999/xlink" version="1.1" id="Layer_1" x="0px" y="0px" viewBox="0 0 200 200" enable-background="new 0 0 200 200" xml:space="preserve">
<path fill="#3b2f4e" d="M109.1,23.2c1.4,0.2,2.9,0.2,4.4,0.2c0.5,0,1.1,0,1.6,0l1.1,0c0.6,0,1.2,0,1.8,0l0.5,0  c6.4-0.1,7.5-1.2,7.8-1.6c0.4-0.5,0.6-1,0.4-1.6c-0.2-0.7-1-1.5-4.9-2.2c-2.3-0.4-4.8-0.6-7.5-0.6c-1.3,0-2.8,0.1-4.2,0.2  c-3.5,0.2-5.8,0.7-6.1,2.3c-0.1,0.5,0,1,0.3,1.4C104.9,22.3,106.3,22.8,109.1,23.2z M183.3,130.3c0-3.4-0.1-6.8-0.1-10.2  c-0.1-6.8-0.2-13.8-0.2-20.7c0-12.2-0.2-24.6-0.3-36.6l0-3.5l-0.2-20l-0.1-10l0-11.2c0-0.6-0.4-1-1-1l-9.2,0c0,0-8.6-0.1-8.9-0.1  c-8.1,0-9.6,1.4-9.9,2.5c-0.2,0.6-0.2,1.5,1,2.6c1,0.9,2.5,1.2,5.4,1.2c0.3,0,0.6,0,0.9,0l9.8-0.2l6.1-0.1l0.1,9.3l0.2,13  c0.1,4.5,0,9.1-0.1,13.5c-0.1,6-0.2,12.2,0.1,18.2c0.4,7.4,0.4,15,0.4,22.3l0,3.3c0,1.8,0,3.6,0,5.4c0,2.8,0,5.5,0,8.3l0.1,5.3  c0.1,11.7,0.3,23.9-0.4,35.7c-0.1,1.2-0.1,2.4-0.1,3.5c0,0.8,0,1.7,0,2.5c-0.1,2.4-0.1,5.1-0.1,8.1l0.1,4l0,0.9  c-0.1,0-4.1,0.1-4.1,0.1c-0.6,0-1.1,0-1.7,0c-2,0-3.9,0-5.6-0.1c-3-0.1-6.1-0.2-9.6-0.2c-5,0-10,0.1-14.8,0.2  c-4.8,0.1-9.8,0.2-14.8,0.2c-0.9,0-1.9,0-2.8,0l-2.6,0c-4.7,0-9.4-0.1-14-0.1c-7.2,0-13,0.1-18.4,0.3c-1.4-0.1-2.8-0.2-4.2-0.2  c-2.3,0-4.6,0.1-7,0.5c-2.8,0.4-4.3,0.9-4.9,1.8c-0.3,0.4-0.4,1-0.2,1.5c0.4,1.3,2.1,2,6,2.3c2.2,0.2,4.5,0.3,6.7,0.3  c1.7,0,3.5-0.1,5.3-0.2c0.8,0,1.5-0.1,2.3-0.2c2.7-0.2,5.6-0.4,8.3-0.4c0.4,0,0.8,0,1.1,0c4.5,0.1,9.4,0.1,14.8,0.1  c7.1,0,14.2-0.1,21.2-0.2c6.8-0.1,13.8-0.2,20.7-0.2l23.3,0c0.6,0,1-0.4,1-1l0-10.3l0.1-8.7c0.1-6.3,0.2-12,0.3-17.4  C183.3,139.6,183.4,134.7,183.3,130.3z M60.3,16.3l-0.3,0c-1.5,0-3,0.1-4,0.2c-2.3,0.2-4.7,0.3-7.5,0.3c-1.8,0-3.7,0-6-0.1  c-3.7-0.1-7.7-0.2-12.5-0.2c-1.6,0-3.1,0-4.7,0l-7.2,0c-0.3,0-0.5,0.1-0.7,0.3C17.1,17,17,17.2,17,17.5l0.3,21.9  c0.1,8,0,14.2-0.1,20l-0.4,22.3c-0.2,11.7-0.1,23.6,0,35.1c0.1,8.2,0.2,16.7,0.1,25c0,4.3,0.1,8.7,0.2,13c0.2,6.6,0.3,13.4,0,20.2  c-0.2,3.9,0.6,4.8,0.9,5.1c0.2,0.2,0.5,0.4,0.8,0.5c0.1,1.1,1.5,1.6,3.6,2c3.5,0.6,7.3,1,11.2,1.2c0.7,0,1.3,0,1.9,0  c2.5,0,8.6-0.2,9.8-2.4c0.3-0.6,0.3-1.2,0-1.7c-0.3-0.5-1.3-2.2-10.6-2.3c-0.6,0-1.1,0-1.7,0c-3.8,0-7.4,0.5-10.8,1.1  c-0.7,0.1-1.5,0.3-2,0.5c0.1-1.6,0.1-3.2,0.2-4.7c0.1-4.2,0.3-8.5,0.6-12.5c0.4-5.2,0.7-10.7,0.8-17.8c0.2-12.7,0.2-25.5,0.2-37.8  c0-2.5,0-5-0.1-7.5C22.1,92.8,22,87,22.3,81.2c0.5-10.3,0.5-20.5,0.5-30c0-4.3-0.1-8.7-0.2-12.9l-0.1-3l-0.1-7.9l0-4l0-1.4l4.3,0.1  c5.3,0.2,10.8,0.2,16,0.3c5.4,0,11,0.1,16.5,0.3c0.3,0,0.6,0,1,0c3.1,0,9.9-0.8,10.3-3c0.1-0.4,0-0.9-0.4-1.3  C68.6,16.5,61.6,16.3,60.3,16.3z"/>
<g transform="translate(30 30) scale(0.7)"><path d="m100 40c-6.2578 0-12.21 1.3248-17.602 3.6953v-1.881h-26.283v118.19h26.283v-35.93c5.3918 2.3706 11.344 3.6953 17.602 3.6953 24.198 0 43.885-19.686 43.885-43.883s-19.686-43.883-43.885-43.883zm0 26.281c9.7064 0 17.602 7.8963 17.602 17.602 0 9.7052-7.8952 17.602-17.602 17.602-9.7064 0-17.602-7.8963-17.602-17.602 0-9.7052 7.8952-17.602 17.602-17.602z" fill="#a688fc"/></g></svg>
