<?xml version="1.0" encoding="utf-8"?>
<!-- Generator: Adobe Illustrator 21.1.0, SVG Export Plug-In . SVG Version: 6.00 Build 0)  -->
<svg xmlns="http://www.w3.org/2000/svg" xmlns:xlink="http://www.w3.org/1999/xlink" version="1.1" id="Layer_1" x="0px" y="0px" viewBox="0 0 200 200" enable-background="new 0 0 200 200" xml:space="preserve">
<path d="M186,100l-0.1,8.6l-0.4,6.7l-0.7,6.1l-1,5.7l-1.3,5.4l-1.5,5.1l-1.8,4.8l-2.1,4.6  l-2.3,4.3l-2.6,4.1l-2.9,3.9l-3.1,3.6l-3.4,3.4l-3.6,3.1l-3.9,2.9l-4.1,2.6l-4.3,2.3l-4.6,2.1l-4.8,1.8l-5.1,1.5l-5.4,1.3l-5.7,1  l-6.1,0.7l-6.7,0.4L100,186l-8.6-0.1l-6.7-0.4l-6.1-0.7l-5.7-1l-5.4-1.3l-5.1-1.5l-4.8-1.8l-4.6-2.1l-4.3-2.3l-4.1-2.6l-3.9-2.9  l-3.6-3.1l-3.4-3.4l-3.1-3.6l-2.9-3.9l-2.6-4.1l-2.3-4.3l-2.1-4.6l-1.8-4.8l-1.5-5.1l-1.3-5.4l-1-5.7l-0.7-6.1l-0.4-6.7L14,100  l0.1-8.6l0.4-6.7l0.7-6.1l1-5.7l1.3-5.4l1.5-5.1l1.8-4.8l2.1-4.6l2.3-4.3l2.6-4.1l2.9-3.9l3.1-3.6l3.4-3.4l3.6-3.1l3.9-2.9l4.1-2.6  l4.3-2.3l4.6-2.1l4.8-1.8l5.1-1.5l5.4-1.3l5.7-1l6.1-0.7l6.7-0.4L100,14l8.6,0.1l6.7,0.4l6.1,0.7l5.7,1l5.4,1.3l5.1,1.5l4.8,1.8  l4.6,2.1l4.3,2.3l4.1,2.6l3.9,2.9l3.6,3.1l3.4,3.4l3.1,3.6l2.9,3.9l2.6,4.1l2.3,4.3l2.1,4.6l1.8,4.8l1.5,5.1l1.3,5.4l1,5.7l0.7,6.1  l0.4,6.7L186,100z" fill="#fcfcfc"/>
<g transform="translate(30 30) scale(0.7)">
  
  <defs id="defs66351"/>
  <linearGradient id="3d_gradient2-logo-11ee6763-d95f-4fbd-9fe3-395525a7d8fe" x1="30%" y1="120%" x2="-10%" y2="30%" spreadMethod="pad">
    <stop offset="0%" stop-color="#ffffff" stop-opacity="1" id="stop66328"/>
    <stop offset="100%" stop-color="#000000" stop-opacity="1" id="stop66330"/>
  </linearGradient>
  <linearGradient id="3d_gradient3-logo-11ee6763-d95f-4fbd-9fe3-395525a7d8fe" x1="30%" y1="120%" x2="-10%" y2="30%" spreadMethod="pad" gradientTransform="rotate(-30)">
    <stop offset="0%" stop-color="#ffffff" stop-opacity="1" id="stop66333"/>
    <stop offset="50%" stop-color="#cccccc" stop-opacity="1" id="stop66335"/>
    <stop offset="100%" stop-color="#000000" stop-opacity="1" id="stop66337"/>
  </linearGradient>
  <rect style="font-style:normal;font-weight:normal;font-size:medium;line-height:1;font-family:'Brandmark Sans 24 Spectrum';font-variant-ligatures:normal;text-align:center;text-anchor:middle;fill:#7c4efd;stroke:#7c4efd;stroke-width:0;stroke-linejoin:miter;stroke-miterlimit:2" id="rect11" stroke-miterlimit="2" height="118.1847" width="26.281931" class="c3" y="41.815296" x="56.115856"/>
  <path style="font-style:normal;font-weight:normal;font-size:medium;line-height:1;font-family:'Brandmark Sans 24 Spectrum';font-variant-ligatures:normal;text-align:center;text-anchor:middle;fill:#3b2f4e;stroke:#3b2f4e;stroke-width:0;stroke-linejoin:miter;stroke-miterlimit:2" id="path13" stroke-miterlimit="2" d="m 99.99998,127.76589 c -24.198323,0 -43.884115,-19.68579 -43.884115,-43.882931 0,-24.19714 19.685792,-43.882957 43.884115,-43.882957 24.19832,0 43.88412,19.685792 43.88412,43.882933 0,24.197145 -19.6858,43.882955 -43.88412,43.882955 z m 0,-61.483933 c -9.706383,0 -17.602185,7.895777 -17.602185,17.601002 0,9.70525 7.895777,17.601001 17.602185,17.601001 9.70641,0 17.60219,-7.895776 17.60219,-17.601001 0,-9.705225 -7.89581,-17.601002 -17.60219,-17.601002 z" class="c1"/>
  <path style="font-style:normal;font-weight:normal;font-size:medium;line-height:1;font-family:'Brandmark Sans 24 Spectrum';font-variant-ligatures:normal;text-align:center;text-anchor:middle;fill:#8422f4;stroke:#8422f4;stroke-width:0;stroke-linejoin:miter;stroke-miterlimit:2" id="path15" stroke-miterlimit="2" d="M 82.397795,124.0531 V 43.712846 c -15.453236,6.798253 -26.28193,22.233846 -26.28193,40.170113 0,17.936271 10.828719,33.371861 26.28193,40.170141 z" class="c2"/>
</g></svg>
