<?xml version="1.0" encoding="utf-8"?>
<!-- Generator: Adobe Illustrator 21.1.0, SVG Export Plug-In . SVG Version: 6.00 Build 0)  -->
<svg xmlns="http://www.w3.org/2000/svg" xmlns:xlink="http://www.w3.org/1999/xlink" version="1.1" id="Layer_1" x="0px" y="0px" viewBox="0 0 200 200" enable-background="new 0 0 200 200" xml:space="preserve">
<rect width="200" height="200" fill="#fcfcfc"/><path d="M178.5,131.2V68.8c0-8.7-4.7-16.8-12.2-21.2l-54.1-31.2c-7.6-4.4-16.9-4.4-24.4,0L33.7,47.6C26.2,52,21.5,60.1,21.5,68.8  v62.4c0,8.7,4.7,16.8,12.2,21.2l54.1,31.2c7.6,4.4,16.9,4.4,24.4,0l54.1-31.2C173.8,148,178.5,139.9,178.5,131.2z" fill="#3b2f4e"/>
<g transform="translate(30 30) scale(0.7)"><path d="m100 40c-6.2578 0-12.21 1.3248-17.602 3.6953v-1.881h-26.283v118.19h26.283v-35.93c5.3918 2.3706 11.344 3.6953 17.602 3.6953 24.198 0 43.885-19.686 43.885-43.883s-19.686-43.883-43.885-43.883zm0 26.281c9.7064 0 17.602 7.8963 17.602 17.602 0 9.7052-7.8952 17.602-17.602 17.602-9.7064 0-17.602-7.8963-17.602-17.602 0-9.7052 7.8952-17.602 17.602-17.602z" fill="#fcfcfc"/></g></svg>
