<?xml version="1.0" encoding="utf-8"?>
<!-- Generator: Adobe Illustrator 21.1.0, SVG Export Plug-In . SVG Version: 6.00 Build 0)  -->
<svg xmlns="http://www.w3.org/2000/svg" xmlns:xlink="http://www.w3.org/1999/xlink" version="1.1" id="Layer_1" x="0px" y="0px" viewBox="0 0 200 200" enable-background="new 0 0 200 200" xml:space="preserve">
<rect width="200" height="200" fill="#fcfcfc"/><path d="M183,100l-0.1,20.8l-0.2,8.6l-0.4,6.5l-0.6,5.5l-0.7,4.7l-0.9,4.2l-1.1,3.8l-1.3,3.4  l-1.4,3.1l-1.6,2.9l-1.8,2.6l-2,2.4l-2.2,2.2l-2.4,2l-2.6,1.8l-2.9,1.6l-3.1,1.4l-3.4,1.3l-3.8,1.1l-4.2,0.9l-4.7,0.7l-5.5,0.6  l-6.5,0.4l-8.6,0.2L100,183l-20.8-0.1l-8.6-0.2l-6.5-0.4l-5.5-0.6l-4.7-0.7l-4.2-0.9l-3.8-1.1l-3.4-1.3l-3.1-1.4l-2.9-1.6l-2.6-1.8  l-2.4-2l-2.2-2.2l-2-2.4l-1.8-2.6l-1.6-2.9l-1.4-3.1l-1.3-3.4l-1.1-3.8l-0.9-4.2l-0.7-4.7l-0.6-5.5l-0.4-6.5l-0.2-8.6L17,100  l0.1-20.8l0.2-8.6l0.4-6.5l0.6-5.5l0.7-4.7l0.9-4.2l1.1-3.8l1.3-3.4l1.4-3.1l1.6-2.9l1.8-2.6l2-2.4l2.2-2.2l2.4-2l2.6-1.8l2.9-1.6  l3.1-1.4l3.4-1.3l3.8-1.1l4.2-0.9l4.7-0.7l5.5-0.6l6.5-0.4l8.6-0.2L100,17l20.8,0.1l8.6,0.2l6.5,0.4l5.5,0.6l4.7,0.7l4.2,0.9  l3.8,1.1l3.4,1.3l3.1,1.4l2.9,1.6l2.6,1.8l2.4,2l2.2,2.2l2,2.4l1.8,2.6l1.6,2.9l1.4,3.1l1.3,3.4l1.1,3.8l0.9,4.2l0.7,4.7l0.6,5.5  l0.4,6.5l0.2,8.6L183,100L183,100z" fill="#3b2f4e"/>
<g transform="translate(30 30) scale(0.7)"><path d="m100 40c-6.2578 0-12.21 1.3248-17.602 3.6953v-1.881h-26.283v118.19h26.283v-35.93c5.3918 2.3706 11.344 3.6953 17.602 3.6953 24.198 0 43.885-19.686 43.885-43.883s-19.686-43.883-43.885-43.883zm0 26.281c9.7064 0 17.602 7.8963 17.602 17.602 0 9.7052-7.8952 17.602-17.602 17.602-9.7064 0-17.602-7.8963-17.602-17.602 0-9.7052 7.8952-17.602 17.602-17.602z" fill="#fcfcfc"/></g></svg>
