<?xml version="1.0" encoding="utf-8"?>
<!-- Generator: Adobe Illustrator 21.1.0, SVG Export Plug-In . SVG Version: 6.00 Build 0)  -->
<svg xmlns="http://www.w3.org/2000/svg" xmlns:xlink="http://www.w3.org/1999/xlink" version="1.1" id="Layer_1" x="0px" y="0px" viewBox="0 0 200 200" enable-background="new 0 0 200 200" xml:space="preserve">
<path fill="#3b2f4e" d="M169.8,171.6c-10.5,1.2-21.7,2.2-33.1,3.2c-11.4,0.9-23.2,1.7-35.1,2.4c-11.9,0.6-24.1,1.1-36.2,1.3  c-12.2,0.3-24.4,0.2-36.5-0.3l-0.7,0c-3.7-0.2-6.6-3.3-6.5-7.1l0,0c0.6-11.7,1.5-23.4,2.4-35.1c0.9-11.7,1.7-23.4,2-35.1  c0.3-11.7,0.2-23.4-0.1-35.1c-0.3-11.7-1.1-23.4-1.8-35.1c-0.2-2.4,1.7-4.5,4.1-4.7h0l0.6,0c11.7-0.7,23.4-1.7,35.1-2.2  c11.7-0.6,23.4-0.9,35.1-1.2c11.7-0.3,23.4-0.6,35.1-0.9c11.7-0.3,23.4-0.3,35.1-0.2l0.2,0c5,0,9,4.1,9,9.1v0  c-0.2,12.2-0.4,24.5-1,36.7l-0.8,18.2l-1.1,18c-0.3,6-0.8,11.8-1.2,17.7c-0.4,5.9-0.9,11.6-1.4,17.3  C171.9,149.8,170.9,160.9,169.8,171.6z M168.6,170.4l-3-37l-1.4-17.8c-0.4-5.9-0.9-11.7-1.2-17.4L161.9,81l-0.8-16.9  c-0.6-11.2-0.8-22.4-1-33.6l9.2,9.2c-11.7,0.1-23.4,0.1-35.1-0.2c-11.7-0.2-23.4-0.5-35.1-0.9c-11.7-0.3-23.4-0.6-35.1-1.2  c-11.7-0.5-23.4-1.5-35.1-2.2l4.7-4.7C32.7,42.3,32,54,31.7,65.7c-0.3,11.7-0.4,23.4-0.1,35.1c0.3,11.7,1.1,23.4,2,35.1  c0.9,11.7,1.8,23.4,2.4,35.1l-7.2-7.2c11.3-0.6,22.4-0.6,33.7-0.3c11.2,0.2,22.5,0.7,34,1.3c11.5,0.6,23.1,1.4,35.1,2.4  C143.5,168.2,155.8,169.2,168.6,170.4z"/>
<g transform="translate(30 30) scale(0.7)">
  
  <defs id="defs66351"/>
  <linearGradient id="3d_gradient2-logo-11ee6763-d95f-4fbd-9fe3-395525a7d8fe" x1="30%" y1="120%" x2="-10%" y2="30%" spreadMethod="pad">
    <stop offset="0%" stop-color="#ffffff" stop-opacity="1" id="stop66328"/>
    <stop offset="100%" stop-color="#000000" stop-opacity="1" id="stop66330"/>
  </linearGradient>
  <linearGradient id="3d_gradient3-logo-11ee6763-d95f-4fbd-9fe3-395525a7d8fe" x1="30%" y1="120%" x2="-10%" y2="30%" spreadMethod="pad" gradientTransform="rotate(-30)">
    <stop offset="0%" stop-color="#ffffff" stop-opacity="1" id="stop66333"/>
    <stop offset="50%" stop-color="#cccccc" stop-opacity="1" id="stop66335"/>
    <stop offset="100%" stop-color="#000000" stop-opacity="1" id="stop66337"/>
  </linearGradient>
  <rect style="font-style:normal;font-weight:normal;font-size:medium;line-height:1;font-family:'Brandmark Sans 24 Spectrum';font-variant-ligatures:normal;text-align:center;text-anchor:middle;fill:#7c4efd;stroke:#7c4efd;stroke-width:0;stroke-linejoin:miter;stroke-miterlimit:2" id="rect11" stroke-miterlimit="2" height="118.1847" width="26.281931" class="c3" y="41.815296" x="56.115856"/>
  <path style="font-style:normal;font-weight:normal;font-size:medium;line-height:1;font-family:'Brandmark Sans 24 Spectrum';font-variant-ligatures:normal;text-align:center;text-anchor:middle;fill:#3b2f4e;stroke:#3b2f4e;stroke-width:0;stroke-linejoin:miter;stroke-miterlimit:2" id="path13" stroke-miterlimit="2" d="m 99.99998,127.76589 c -24.198323,0 -43.884115,-19.68579 -43.884115,-43.882931 0,-24.19714 19.685792,-43.882957 43.884115,-43.882957 24.19832,0 43.88412,19.685792 43.88412,43.882933 0,24.197145 -19.6858,43.882955 -43.88412,43.882955 z m 0,-61.483933 c -9.706383,0 -17.602185,7.895777 -17.602185,17.601002 0,9.70525 7.895777,17.601001 17.602185,17.601001 9.70641,0 17.60219,-7.895776 17.60219,-17.601001 0,-9.705225 -7.89581,-17.601002 -17.60219,-17.601002 z" class="c1"/>
  <path style="font-style:normal;font-weight:normal;font-size:medium;line-height:1;font-family:'Brandmark Sans 24 Spectrum';font-variant-ligatures:normal;text-align:center;text-anchor:middle;fill:#8422f4;stroke:#8422f4;stroke-width:0;stroke-linejoin:miter;stroke-miterlimit:2" id="path15" stroke-miterlimit="2" d="M 82.397795,124.0531 V 43.712846 c -15.453236,6.798253 -26.28193,22.233846 -26.28193,40.170113 0,17.936271 10.828719,33.371861 26.28193,40.170141 z" class="c2"/>
</g></svg>
