<?xml version="1.0" encoding="utf-8"?>
<!-- Generator: Adobe Illustrator 21.1.0, SVG Export Plug-In . SVG Version: 6.00 Build 0)  -->
<svg xmlns="http://www.w3.org/2000/svg" xmlns:xlink="http://www.w3.org/1999/xlink" version="1.1" id="Layer_1" x="0px" y="0px" viewBox="0 0 200 200" enable-background="new 0 0 200 200" xml:space="preserve">
<rect width="200" height="200" fill="#fcfcfc"/><path d="M186,100l-0.1,8.6l-0.4,6.7l-0.7,6.1l-1,5.7l-1.3,5.4l-1.5,5.1l-1.8,4.8l-2.1,4.6  l-2.3,4.3l-2.6,4.1l-2.9,3.9l-3.1,3.6l-3.4,3.4l-3.6,3.1l-3.9,2.9l-4.1,2.6l-4.3,2.3l-4.6,2.1l-4.8,1.8l-5.1,1.5l-5.4,1.3l-5.7,1  l-6.1,0.7l-6.7,0.4L100,186l-8.6-0.1l-6.7-0.4l-6.1-0.7l-5.7-1l-5.4-1.3l-5.1-1.5l-4.8-1.8l-4.6-2.1l-4.3-2.3l-4.1-2.6l-3.9-2.9  l-3.6-3.1l-3.4-3.4l-3.1-3.6l-2.9-3.9l-2.6-4.1l-2.3-4.3l-2.1-4.6l-1.8-4.8l-1.5-5.1l-1.3-5.4l-1-5.7l-0.7-6.1l-0.4-6.7L14,100  l0.1-8.6l0.4-6.7l0.7-6.1l1-5.7l1.3-5.4l1.5-5.1l1.8-4.8l2.1-4.6l2.3-4.3l2.6-4.1l2.9-3.9l3.1-3.6l3.4-3.4l3.6-3.1l3.9-2.9l4.1-2.6  l4.3-2.3l4.6-2.1l4.8-1.8l5.1-1.5l5.4-1.3l5.7-1l6.1-0.7l6.7-0.4L100,14l8.6,0.1l6.7,0.4l6.1,0.7l5.7,1l5.4,1.3l5.1,1.5l4.8,1.8  l4.6,2.1l4.3,2.3l4.1,2.6l3.9,2.9l3.6,3.1l3.4,3.4l3.1,3.6l2.9,3.9l2.6,4.1l2.3,4.3l2.1,4.6l1.8,4.8l1.5,5.1l1.3,5.4l1,5.7l0.7,6.1  l0.4,6.7L186,100z" fill="#3b2f4e"/>
<g transform="translate(30 30) scale(0.7)"><path d="m100 40c-6.2578 0-12.21 1.3248-17.602 3.6953v-1.881h-26.283v118.19h26.283v-35.93c5.3918 2.3706 11.344 3.6953 17.602 3.6953 24.198 0 43.885-19.686 43.885-43.883s-19.686-43.883-43.885-43.883zm0 26.281c9.7064 0 17.602 7.8963 17.602 17.602 0 9.7052-7.8952 17.602-17.602 17.602-9.7064 0-17.602-7.8963-17.602-17.602 0-9.7052 7.8952-17.602 17.602-17.602z" fill="#fcfcfc"/></g></svg>
