<?xml version="1.0" encoding="utf-8"?>
<!-- Generator: Adobe Illustrator 21.1.0, SVG Export Plug-In . SVG Version: 6.00 Build 0)  -->
<svg xmlns="http://www.w3.org/2000/svg" xmlns:xlink="http://www.w3.org/1999/xlink" version="1.1" id="Layer_1" x="0px" y="0px" viewBox="0 0 200 200" enable-background="new 0 0 200 200" xml:space="preserve">
<path fill="#3b2f4e" d="M104,14.3c21,1.1,39.8,9.4,54.4,22.6l-5.7,5.7c-12.9-11.8-30.1-19.4-48.7-20.5V14.3z M164.1,42.6  C177.2,57.1,185.6,76,186.7,97h-8.1c-0.8-18.8-8.3-35.8-20.2-48.7L164.1,42.6z M186.7,105c-1.1,21-9.4,39.8-22.6,54.4l-5.7-5.7  c11.8-12.9,19.4-30.1,20.2-48.7H186.7z M158.4,165.1c-14.5,13.2-33.4,21.5-54.4,22.6v-8.1c18.6-0.8,35.8-8.3,48.7-20.2L158.4,165.1z   M96,187.7c-21-1.1-39.8-9.4-54.4-22.6l5.7-5.7c12.9,11.8,29.9,19.4,48.7,20.2V187.7z M35.9,159.4C22.8,144.9,14.4,126,13.3,105h7.8  c1.1,18.6,8.6,35.8,20.5,48.7L35.9,159.4z M13.3,97c1.1-21,9.4-39.8,22.6-54.4l5.7,5.7C29.8,61.2,22.2,78.1,21.1,97H13.3z   M41.6,36.9C56.1,23.8,75,15.4,96,14.3v7.8c-18.8,1.1-35.8,8.6-48.7,20.5L41.6,36.9z"/>
<g transform="translate(30 30) scale(0.7)">
  
  <defs id="defs66351"/>
  <linearGradient id="3d_gradient2-logo-11ee6763-d95f-4fbd-9fe3-395525a7d8fe" x1="30%" y1="120%" x2="-10%" y2="30%" spreadMethod="pad">
    <stop offset="0%" stop-color="#ffffff" stop-opacity="1" id="stop66328"/>
    <stop offset="100%" stop-color="#000000" stop-opacity="1" id="stop66330"/>
  </linearGradient>
  <linearGradient id="3d_gradient3-logo-11ee6763-d95f-4fbd-9fe3-395525a7d8fe" x1="30%" y1="120%" x2="-10%" y2="30%" spreadMethod="pad" gradientTransform="rotate(-30)">
    <stop offset="0%" stop-color="#ffffff" stop-opacity="1" id="stop66333"/>
    <stop offset="50%" stop-color="#cccccc" stop-opacity="1" id="stop66335"/>
    <stop offset="100%" stop-color="#000000" stop-opacity="1" id="stop66337"/>
  </linearGradient>
  <rect style="font-style:normal;font-weight:normal;font-size:medium;line-height:1;font-family:'Brandmark Sans 24 Spectrum';font-variant-ligatures:normal;text-align:center;text-anchor:middle;fill:#7c4efd;stroke:#7c4efd;stroke-width:0;stroke-linejoin:miter;stroke-miterlimit:2" id="rect11" stroke-miterlimit="2" height="118.1847" width="26.281931" class="c3" y="41.815296" x="56.115856"/>
  <path style="font-style:normal;font-weight:normal;font-size:medium;line-height:1;font-family:'Brandmark Sans 24 Spectrum';font-variant-ligatures:normal;text-align:center;text-anchor:middle;fill:#3b2f4e;stroke:#3b2f4e;stroke-width:0;stroke-linejoin:miter;stroke-miterlimit:2" id="path13" stroke-miterlimit="2" d="m 99.99998,127.76589 c -24.198323,0 -43.884115,-19.68579 -43.884115,-43.882931 0,-24.19714 19.685792,-43.882957 43.884115,-43.882957 24.19832,0 43.88412,19.685792 43.88412,43.882933 0,24.197145 -19.6858,43.882955 -43.88412,43.882955 z m 0,-61.483933 c -9.706383,0 -17.602185,7.895777 -17.602185,17.601002 0,9.70525 7.895777,17.601001 17.602185,17.601001 9.70641,0 17.60219,-7.895776 17.60219,-17.601001 0,-9.705225 -7.89581,-17.601002 -17.60219,-17.601002 z" class="c1"/>
  <path style="font-style:normal;font-weight:normal;font-size:medium;line-height:1;font-family:'Brandmark Sans 24 Spectrum';font-variant-ligatures:normal;text-align:center;text-anchor:middle;fill:#8422f4;stroke:#8422f4;stroke-width:0;stroke-linejoin:miter;stroke-miterlimit:2" id="path15" stroke-miterlimit="2" d="M 82.397795,124.0531 V 43.712846 c -15.453236,6.798253 -26.28193,22.233846 -26.28193,40.170113 0,17.936271 10.828719,33.371861 26.28193,40.170141 z" class="c2"/>
</g></svg>
