<?xml version="1.0" encoding="utf-8"?>
<!-- Generator: Adobe Illustrator 21.1.0, SVG Export Plug-In . SVG Version: 6.00 Build 0)  -->
<svg xmlns="http://www.w3.org/2000/svg" xmlns:xlink="http://www.w3.org/1999/xlink" version="1.1" id="Layer_1" x="0px" y="0px" viewBox="0 0 200 200" enable-background="new 0 0 200 200" xml:space="preserve">
<path fill="#3b2f4e" d="M124.1,38.9c7.2,0,13-5.8,13-13s-5.8-13-13-13c-7.2,0-13,5.8-13,13C111.1,33.1,116.9,38.9,124.1,38.9z   M124.1,20.4c3.1,0,5.6,2.5,5.6,5.6s-2.5,5.6-5.6,5.6s-5.6-2.5-5.6-5.6S121,20.4,124.1,20.4z M170.4,151.9c7.2,0,13-5.8,13-13  s-5.8-13-13-13c-7.2,0-13,5.8-13,13C157.4,146,163.2,151.9,170.4,151.9z M170.4,133.3c3.1,0,5.6,2.5,5.6,5.6c0,3.1-2.5,5.6-5.6,5.6  c-3.1,0-5.6-2.5-5.6-5.6C164.8,135.8,167.3,133.3,170.4,133.3z M27.8,72.2c7.2,0,13-5.8,13-13s-5.8-13-13-13c-7.2,0-13,5.8-13,13  C14.8,66.4,20.6,72.2,27.8,72.2z M27.8,53.7c3.1,0,5.6,2.5,5.6,5.6s-2.5,5.6-5.6,5.6s-5.6-2.5-5.6-5.6S24.7,53.7,27.8,53.7z   M74.1,159.3c-7.2,0-13,5.8-13,13c0,7.2,5.8,13,13,13c7.2,0,13-5.8,13-13C87,165.1,81.2,159.3,74.1,159.3z M74.1,177.8  c-3.1,0-5.6-2.5-5.6-5.6c0-3.1,2.5-5.6,5.6-5.6s5.6,2.5,5.6,5.6C79.6,175.3,77.1,177.8,74.1,177.8z M0,200h200V0H0V200z   M144.4,192.6L144.4,192.6c-1.1,0-12.1-0.2-18.9-7c-7.2-7.2-7-18.9-7-18.9h0.1c1,0,12.1,0.2,18.9,7  C144.6,180.8,144.4,192.6,144.4,192.6z M151.9,192.6L151.9,192.6c-0.1,0-0.3-11.8,6.9-18.9c6.8-6.8,17.8-7,18.9-7h0.1  c0,0,0.2,11.8-7,18.9C164,192.4,153,192.6,151.9,192.6z M192.6,48.1L192.6,48.1c-1.1,0-12.1-0.2-18.9-7c-7.2-7.2-7-18.9-7-18.9h0.1  c1,0,12.1,0.2,18.9,7C192.8,36.4,192.6,48.1,192.6,48.1z M185.6,74.5c-6.8,6.8-17.8,7-18.9,7h-0.1c0,0-0.2-11.8,7-18.9  c6.8-6.8,17.8-7,18.9-7h0.1C192.6,55.6,192.8,67.3,185.6,74.5z M61.1,7.4L61.1,7.4c1.1,0,12.1,0.2,18.9,7c7.2,7.2,7,18.9,7,18.9H87  c-1,0-12.1-0.2-18.9-7C60.9,19.2,61.1,7.4,61.1,7.4z M53.6,7.4L53.6,7.4c0.1,0,0.3,11.8-6.9,18.9c-6.8,6.8-17.8,7-18.9,7h-0.1  c0,0-0.2-11.8,7-18.9C41.6,7.6,52.6,7.4,53.6,7.4z M7.4,7.4h24.1c-0.7,0.5-1.3,1.1-1.9,1.7c-9.1,9.1-9.2,22.8-9.1,24.3l0.1,7.2  l7.2,0.1h0.2c2.5,0,15.4-0.4,24.1-9.1c2.2-2.3,4.1-4.9,5.4-7.8c1.4,2.9,3.2,5.5,5.4,7.8c8.7,8.7,21.6,9.1,24.1,9.1h0.2l7.2-0.1  l0.1-7.2c0-1.5,0-15.2-9.1-24.3C84.7,8.5,84,8,83.4,7.4h109.2v18.5c-0.5-0.7-1.1-1.3-1.7-1.9c-8.7-8.7-21.6-9.1-24.1-9.1h-0.2  l-7.2,0.1l-0.1,7.2c0,1.5,0,15.2,9.1,24.3c2.3,2.2,4.9,4.1,7.8,5.4c-2.9,1.4-5.5,3.2-7.8,5.4c-9.1,9.1-9.2,22.8-9.1,24.3l0.1,7.2  l7.2,0.1h0.2c2.5,0,15.4-0.4,24.1-9.1c0.6-0.6,1.2-1.3,1.7-1.9v114.8h-18.5c0.7-0.5,1.3-1.1,1.9-1.7c9.1-9.1,9.2-22.8,9.1-24.3  l-0.1-7.2l-7.2-0.1h-0.2c-3.3,0-6.5,0.5-9.7,1.3c-5.4,1.3-10.4,4-14.4,7.8c-2.2,2.3-4.1,4.9-5.4,7.8c-1.4-2.9-3.2-5.5-5.4-7.8  c-8.7-8.7-21.6-9.1-24.1-9.1h-0.2l-7.2,0.1l-0.1,7.2c0,1.5,0,15.2,9.1,24.3c0.6,0.6,1.3,1.2,1.9,1.7H7.4v-18.5  c0.5,0.7,1.1,1.3,1.7,1.9c8.7,8.7,21.6,9.1,24.1,9.1h0.2l7.2-0.1l0.1-7.2c0-1.5,0-15.2-9.1-24.3c-2.3-2.2-4.9-4.1-7.8-5.4  c2.9-1.4,5.5-3.2,7.8-5.4c9.1-9.1,9.2-22.8,9.1-24.3l-0.1-7.2l-7.2-0.1h-0.2c-2.5,0-15.4,0.4-24.1,9.1c-0.6,0.6-1.2,1.3-1.7,1.9V7.4  z M14.4,125.5c6.8-6.8,17.8-7,18.9-7h0.1c0,0,0.2,11.8-7,18.9c-6.8,6.8-17.8,7-18.9,7H7.4C7.4,144.4,7.2,132.7,14.4,125.5z   M7.4,151.9L7.4,151.9c1.1,0,12.1,0.2,18.9,7c7.2,7.2,7,18.9,7,18.9h-0.1c-1,0-12.1-0.2-18.9-7C7.2,163.6,7.4,151.9,7.4,151.9z"/>
<g transform="translate(30 30) scale(0.7)"><path d="m100 40c-6.2578 0-12.21 1.3248-17.602 3.6953v-1.881h-26.283v118.19h26.283v-35.93c5.3918 2.3706 11.344 3.6953 17.602 3.6953 24.198 0 43.885-19.686 43.885-43.883s-19.686-43.883-43.885-43.883zm0 26.281c9.7064 0 17.602 7.8963 17.602 17.602 0 9.7052-7.8952 17.602-17.602 17.602-9.7064 0-17.602-7.8963-17.602-17.602 0-9.7052 7.8952-17.602 17.602-17.602z" fill="#a688fc"/></g></svg>
