<?xml version="1.0" encoding="utf-8"?>
<!-- Generator: Adobe Illustrator 21.1.0, SVG Export Plug-In . SVG Version: 6.00 Build 0)  -->
<svg xmlns="http://www.w3.org/2000/svg" xmlns:xlink="http://www.w3.org/1999/xlink" version="1.1" id="Layer_1" x="0px" y="0px" viewBox="0 0 200 200" enable-background="new 0 0 200 200" xml:space="preserve">
<rect width="200" height="200" fill="#fcfcfc"/><path d="M100-51.3C16.4-51.3-51.3,16.4-51.3,100S16.4,251.3,100,251.3S251.3,183.6,251.3,100S183.6-51.3,100-51.3z M238.6,119.5  l-79.5-9.1l77.9,18.7l-78.7-14.6l76.4,24.1l-77.5-20l74.5,29.3l-75.9-25.4l72.3,34.5l-74-30.6l69.7,39.4L152,130l66.8,44.2l-69-40.6  l63.5,48.7l-66-45.4l60,53.1l-62.7-49.8l56.1,57.1l-59-54.1l52,60.9L138.6,146l47.6,64.4l-50.9-61.8l43,67.5l-46.5-65.2l38.2,70.4  L128.2,153l33.2,72.9l-37-71l28,75l-31.9-73.4l22.7,76.8l-26.7-75.5l17.3,78.2l-21.4-77.2l11.8,79.2l-16-78.5l6.3,79.8l-10.4-79.4  l0.7,80.1L100,160l-4.9,79.9l0.7-80.1l-10.4,79.4l6.3-79.8l-16,78.5l11.8-79.2l-21.4,77.2l17.3-78.2l-26.7,75.5l22.7-76.8  l-31.9,73.4l28-75l-37,71L71.8,153L30,221.2l38.2-70.4l-46.5,65.2l43-67.5l-50.9,61.8L61.4,146L6.3,204l52-60.9l-59,54.1l56.1-57.1  L-7.2,190l60-53.1l-66,45.4l63.5-48.7l-69,40.6L48,130l-71.7,35.7l69.7-39.4l-74,30.6l72.3-34.5l-75.9,25.4l74.5-29.3l-77.5,20  l76.4-24.1l-78.7,14.6l77.9-18.7l-79.5,9.1l79-13.2l-80,3.5l79.7-7.7l-80-2.1l80-2.1l-79.7-7.7l80,3.5l-79-13.2l79.5,9.1l-77.9-18.7  l78.7,14.6l-76.4-24.1l77.5,20l-74.5-29.3l75.9,25.4l-72.3-34.5l74,30.6l-69.7-39.4L48,70l-66.8-44.2l69,40.6l-63.5-48.7l66,45.4  L-7.2,10l62.7,49.8L-0.7,2.7l59,54.1L6.3-4L61.4,54L13.8-10.3l50.9,61.8l-43-67.5l46.5,65.2L30-21.2L71.8,47L38.6-25.8l37,71l-28-75  l31.9,73.4L56.7-33.1l26.7,75.5L66.1-35.8l21.4,77.2L75.7-37.9l16,78.5l-6.3-79.8l10.4,79.4l-0.7-80.1L100,40l4.9-79.9l-0.7,80.1  l10.4-79.4l-6.3,79.8l16-78.5l-11.8,79.2l21.4-77.2l-17.3,78.2l26.7-75.5l-22.7,76.8l31.9-73.4l-28,75l37-71L128.2,47L170-21.2  l-38.2,70.4l46.5-65.2l-43,67.5l50.9-61.8L138.6,54L193.7-4l-52,60.9l59-54.1l-56.1,57.1L207.2,10l-60,53.1l66-45.4l-63.5,48.7  l69-40.6L152,70l71.7-35.7l-69.7,39.4l74-30.6l-72.3,34.5l75.9-25.4l-74.5,29.3l77.5-20l-76.4,24.1l78.7-14.6l-77.9,18.7l79.5-9.1  l-79,13.2l80-3.5L160,97.9l80,2.1l-80,2.1l79.7,7.7l-80-3.5L238.6,119.5z" fill="#3b2f4e"/>
<g transform="translate(30 30) scale(0.7)">
  
  <defs id="defs66351"/>
  <linearGradient id="3d_gradient2-logo-11ee6763-d95f-4fbd-9fe3-395525a7d8fe" x1="30%" y1="120%" x2="-10%" y2="30%" spreadMethod="pad">
    <stop offset="0%" stop-color="#ffffff" stop-opacity="1" id="stop66328"/>
    <stop offset="100%" stop-color="#000000" stop-opacity="1" id="stop66330"/>
  </linearGradient>
  <linearGradient id="3d_gradient3-logo-11ee6763-d95f-4fbd-9fe3-395525a7d8fe" x1="30%" y1="120%" x2="-10%" y2="30%" spreadMethod="pad" gradientTransform="rotate(-30)">
    <stop offset="0%" stop-color="#ffffff" stop-opacity="1" id="stop66333"/>
    <stop offset="50%" stop-color="#cccccc" stop-opacity="1" id="stop66335"/>
    <stop offset="100%" stop-color="#000000" stop-opacity="1" id="stop66337"/>
  </linearGradient>
  <rect style="font-style:normal;font-weight:normal;font-size:medium;line-height:1;font-family:'Brandmark Sans 24 Spectrum';font-variant-ligatures:normal;text-align:center;text-anchor:middle;fill:#7c4efd;stroke:#7c4efd;stroke-width:0;stroke-linejoin:miter;stroke-miterlimit:2" id="rect11" stroke-miterlimit="2" height="118.1847" width="26.281931" class="c3" y="41.815296" x="56.115856"/>
  <path style="font-style:normal;font-weight:normal;font-size:medium;line-height:1;font-family:'Brandmark Sans 24 Spectrum';font-variant-ligatures:normal;text-align:center;text-anchor:middle;fill:#3b2f4e;stroke:#3b2f4e;stroke-width:0;stroke-linejoin:miter;stroke-miterlimit:2" id="path13" stroke-miterlimit="2" d="m 99.99998,127.76589 c -24.198323,0 -43.884115,-19.68579 -43.884115,-43.882931 0,-24.19714 19.685792,-43.882957 43.884115,-43.882957 24.19832,0 43.88412,19.685792 43.88412,43.882933 0,24.197145 -19.6858,43.882955 -43.88412,43.882955 z m 0,-61.483933 c -9.706383,0 -17.602185,7.895777 -17.602185,17.601002 0,9.70525 7.895777,17.601001 17.602185,17.601001 9.70641,0 17.60219,-7.895776 17.60219,-17.601001 0,-9.705225 -7.89581,-17.601002 -17.60219,-17.601002 z" class="c1"/>
  <path style="font-style:normal;font-weight:normal;font-size:medium;line-height:1;font-family:'Brandmark Sans 24 Spectrum';font-variant-ligatures:normal;text-align:center;text-anchor:middle;fill:#8422f4;stroke:#8422f4;stroke-width:0;stroke-linejoin:miter;stroke-miterlimit:2" id="path15" stroke-miterlimit="2" d="M 82.397795,124.0531 V 43.712846 c -15.453236,6.798253 -26.28193,22.233846 -26.28193,40.170113 0,17.936271 10.828719,33.371861 26.28193,40.170141 z" class="c2"/>
</g></svg>
