<?xml version="1.0" encoding="utf-8"?>
<!-- Generator: Adobe Illustrator 21.1.0, SVG Export Plug-In . SVG Version: 6.00 Build 0)  -->
<svg xmlns="http://www.w3.org/2000/svg" xmlns:xlink="http://www.w3.org/1999/xlink" version="1.1" id="Layer_1" x="0px" y="0px" viewBox="0 0 200 200" enable-background="new 0 0 200 200" xml:space="preserve">
<rect width="200" height="200" fill="#3b2f4e"/><path fill="#fcfcfc" d="M108.2,29.3c0-1.8-1.5-3.3-3.3-3.3c-1.8,0-3.2,1.5-3.2,3.3c0,1.8,1.4,3.2,3.2,3.2  C106.7,32.5,108.2,31.1,108.2,29.3z M94.3,29.7c0-1.8-1.5-3.2-3.3-3.2c-1.8,0-3.3,1.4-3.3,3.2c0,1.8,1.5,3.3,3.3,3.3  C92.8,32.9,94.3,31.5,94.3,29.7z M121.9,31.6c0-1.8-1.5-3.3-3.3-3.3c-1.8,0-3.3,1.5-3.3,3.3c0,1.8,1.5,3.2,3.3,3.2  C120.4,34.8,121.9,33.4,121.9,31.6z M80.7,32.8c0-1.8-1.5-3.3-3.3-3.3c-1.8,0-3.2,1.5-3.2,3.3s1.4,3.3,3.2,3.3  C79.2,36.1,80.7,34.6,80.7,32.8z M134.9,36.5c0-1.8-1.5-3.3-3.3-3.3c-1.8,0-3.3,1.5-3.3,3.3c0,1.8,1.5,3.3,3.3,3.3  C133.4,39.8,134.9,38.3,134.9,36.5z M68,38.5c0-1.8-1.4-3.3-3.2-3.3c-1.8,0-3.3,1.5-3.3,3.3c0,1.8,1.5,3.2,3.3,3.2  C66.6,41.7,68,40.3,68,38.5z M146.7,43.9c0-1.8-1.5-3.3-3.3-3.3c-1.8,0-3.3,1.5-3.3,3.3c0,1.8,1.5,3.2,3.3,3.2  C145.2,47.2,146.7,45.7,146.7,43.9z M56.7,46.5c0-1.8-1.5-3.2-3.3-3.2s-3.2,1.4-3.2,3.2c0,1.8,1.4,3.3,3.2,3.3S56.7,48.3,56.7,46.5z   M156.7,53.4c0-1.8-1.4-3.2-3.2-3.2c-1.8,0-3.3,1.4-3.3,3.2c0,1.8,1.5,3.3,3.3,3.3C155.3,56.7,156.7,55.3,156.7,53.4z M47.2,56.6  c0-1.8-1.4-3.3-3.2-3.3c-1.8,0-3.3,1.5-3.3,3.3c0,1.8,1.5,3.3,3.3,3.3C45.7,59.9,47.2,58.4,47.2,56.6z M161.5,68  c1.8,0,3.3-1.4,3.3-3.2c0-1.8-1.5-3.3-3.3-3.3c-1.8,0-3.2,1.5-3.2,3.3C158.3,66.6,159.7,68,161.5,68z M36.5,71.7  c1.8,0,3.3-1.5,3.3-3.3c0-1.8-1.5-3.3-3.3-3.3s-3.3,1.5-3.3,3.3C33.3,70.2,34.7,71.7,36.5,71.7z M167.2,80.7c1.8,0,3.3-1.5,3.3-3.3  c0-1.8-1.5-3.2-3.3-3.2c-1.8,0-3.3,1.4-3.3,3.2C163.9,79.2,165.4,80.7,167.2,80.7z M31.6,84.7c1.8,0,3.2-1.5,3.2-3.3  c0-1.8-1.4-3.3-3.2-3.3c-1.8,0-3.3,1.5-3.3,3.3C28.3,83.2,29.8,84.7,31.6,84.7z M167.1,91c0,1.8,1.5,3.3,3.3,3.3s3.2-1.5,3.2-3.3  c0-1.8-1.4-3.3-3.2-3.3S167.1,89.2,167.1,91z M29.3,98.4c1.8,0,3.2-1.4,3.2-3.2c0-1.8-1.4-3.3-3.2-3.3c-1.8,0-3.3,1.5-3.3,3.3  C26,96.9,27.5,98.4,29.3,98.4z M170.7,101.6c-1.8,0-3.2,1.4-3.2,3.2c0,1.8,1.4,3.3,3.2,3.3c1.8,0,3.3-1.5,3.3-3.3  C174,103.1,172.5,101.6,170.7,101.6z M32.9,109c0-1.8-1.5-3.3-3.3-3.3s-3.2,1.5-3.2,3.3c0,1.8,1.4,3.3,3.2,3.3S32.9,110.8,32.9,109z   M168.4,115.3c-1.8,0-3.2,1.5-3.2,3.3c0,1.8,1.4,3.3,3.2,3.3c1.8,0,3.3-1.5,3.3-3.3C171.7,116.8,170.2,115.3,168.4,115.3z   M32.8,119.3c-1.8,0-3.3,1.5-3.3,3.3c0,1.8,1.5,3.2,3.3,3.2c1.8,0,3.3-1.4,3.3-3.2C36.1,120.8,34.6,119.3,32.8,119.3z M163.5,128.3  c-1.8,0-3.3,1.5-3.3,3.3c0,1.8,1.5,3.3,3.3,3.3s3.3-1.5,3.3-3.3C166.7,129.8,165.3,128.3,163.5,128.3z M38.5,132  c-1.8,0-3.3,1.4-3.3,3.2s1.5,3.3,3.3,3.3c1.8,0,3.2-1.5,3.2-3.3S40.3,132,38.5,132z M156.1,140.1c-1.8,0-3.2,1.5-3.2,3.3  c0,1.8,1.4,3.3,3.2,3.3c1.8,0,3.3-1.5,3.3-3.3C159.3,141.6,157.9,140.1,156.1,140.1z M46.5,143.3c-1.8,0-3.2,1.5-3.2,3.3  s1.4,3.2,3.2,3.2c1.8,0,3.3-1.4,3.3-3.2S48.3,143.3,46.5,143.3z M146.6,150.2c-1.8,0-3.3,1.5-3.3,3.3c0,1.8,1.5,3.2,3.3,3.2  c1.8,0,3.2-1.4,3.2-3.2C149.8,151.7,148.4,150.2,146.6,150.2z M56.6,152.8c-1.8,0-3.3,1.4-3.3,3.2c0,1.8,1.5,3.3,3.3,3.3  c1.8,0,3.3-1.5,3.3-3.3C59.9,154.3,58.4,152.8,56.6,152.8z M135.2,158.3c-1.8,0-3.2,1.4-3.2,3.2c0,1.8,1.4,3.3,3.2,3.3  c1.8,0,3.3-1.5,3.3-3.3C138.5,159.7,137,158.3,135.2,158.3z M68.4,160.2c-1.8,0-3.3,1.5-3.3,3.3s1.5,3.3,3.3,3.3  c1.8,0,3.3-1.5,3.3-3.3S70.2,160.2,68.4,160.2z M122.6,163.9c-1.8,0-3.3,1.5-3.3,3.3c0,1.8,1.5,3.3,3.3,3.3c1.8,0,3.2-1.5,3.2-3.3  C125.8,165.4,124.4,163.9,122.6,163.9z M81.4,165.2c-1.8,0-3.3,1.4-3.3,3.2c0,1.8,1.5,3.3,3.3,3.3c1.8,0,3.3-1.5,3.3-3.3  C84.7,166.6,83.2,165.2,81.4,165.2z M109,167.1c-1.8,0-3.3,1.5-3.3,3.3c0,1.8,1.5,3.2,3.3,3.2c1.8,0,3.3-1.4,3.3-3.2  C112.3,168.5,110.8,167.1,109,167.1z M95.1,167.5c-1.8,0-3.3,1.4-3.3,3.2c0,1.8,1.5,3.3,3.3,3.3c1.8,0,3.2-1.5,3.2-3.3  S96.9,167.5,95.1,167.5z M100,14.5c-47.2,0-85.5,38.3-85.5,85.5c0,47.2,38.3,85.5,85.5,85.5c47.2,0,85.5-38.3,85.5-85.5  C185.5,52.8,147.2,14.5,100,14.5z M100,180.6c-44.5,0-80.6-36.1-80.6-80.6c0-44.5,36.1-80.6,80.6-80.6s80.6,36.1,80.6,80.6  C180.6,144.5,144.5,180.6,100,180.6z"/>
<g transform="translate(30 30) scale(0.7)"><path d="m100 40c-6.2578 0-12.21 1.3248-17.602 3.6953v-1.881h-26.283v118.19h26.283v-35.93c5.3918 2.3706 11.344 3.6953 17.602 3.6953 24.198 0 43.885-19.686 43.885-43.883s-19.686-43.883-43.885-43.883zm0 26.281c9.7064 0 17.602 7.8963 17.602 17.602 0 9.7052-7.8952 17.602-17.602 17.602-9.7064 0-17.602-7.8963-17.602-17.602 0-9.7052 7.8952-17.602 17.602-17.602z" fill="#fcfcfc"/></g></svg>
