<?xml version="1.0" encoding="utf-8"?>
<!-- Generator: Adobe Illustrator 21.1.0, SVG Export Plug-In . SVG Version: 6.00 Build 0)  -->
<svg xmlns="http://www.w3.org/2000/svg" xmlns:xlink="http://www.w3.org/1999/xlink" version="1.1" id="Layer_1" x="0px" y="0px" viewBox="0 0 200 200" enable-background="new 0 0 200 200" xml:space="preserve">
<path fill="#3b2f4e" d="M104,14.3c21,1.1,39.8,9.4,54.4,22.6l-5.7,5.7c-12.9-11.8-30.1-19.4-48.7-20.5V14.3z M164.1,42.6  C177.2,57.1,185.6,76,186.7,97h-8.1c-0.8-18.8-8.3-35.8-20.2-48.7L164.1,42.6z M186.7,105c-1.1,21-9.4,39.8-22.6,54.4l-5.7-5.7  c11.8-12.9,19.4-30.1,20.2-48.7H186.7z M158.4,165.1c-14.5,13.2-33.4,21.5-54.4,22.6v-8.1c18.6-0.8,35.8-8.3,48.7-20.2L158.4,165.1z   M96,187.7c-21-1.1-39.8-9.4-54.4-22.6l5.7-5.7c12.9,11.8,29.9,19.4,48.7,20.2V187.7z M35.9,159.4C22.8,144.9,14.4,126,13.3,105h7.8  c1.1,18.6,8.6,35.8,20.5,48.7L35.9,159.4z M13.3,97c1.1-21,9.4-39.8,22.6-54.4l5.7,5.7C29.8,61.2,22.2,78.1,21.1,97H13.3z   M41.6,36.9C56.1,23.8,75,15.4,96,14.3v7.8c-18.8,1.1-35.8,8.6-48.7,20.5L41.6,36.9z"/>
<g transform="translate(30 30) scale(0.7)"><path d="m100 40c-6.2578 0-12.21 1.3248-17.602 3.6953v-1.881h-26.283v118.19h26.283v-35.93c5.3918 2.3706 11.344 3.6953 17.602 3.6953 24.198 0 43.885-19.686 43.885-43.883s-19.686-43.883-43.885-43.883zm0 26.281c9.7064 0 17.602 7.8963 17.602 17.602 0 9.7052-7.8952 17.602-17.602 17.602-9.7064 0-17.602-7.8963-17.602-17.602 0-9.7052 7.8952-17.602 17.602-17.602z" fill="#a688fc"/></g></svg>
