<?xml version="1.0" encoding="utf-8"?>
<!-- Generator: Adobe Illustrator 21.1.0, SVG Export Plug-In . SVG Version: 6.00 Build 0)  -->
<svg xmlns="http://www.w3.org/2000/svg" xmlns:xlink="http://www.w3.org/1999/xlink" version="1.1" id="Layer_1" x="0px" y="0px" viewBox="0 0 200 200" enable-background="new 0 0 200 200" xml:space="preserve">
<path fill="#a688fc" d="M158.8,25.3h-36.5c-1.7,0-17-0.3-18.6-11.7c-0.3-1.9-1.8-3.2-3.7-3.2h0c-1.9,0-3.4,1.4-3.7,3.3  c-1.4,10.9-14.6,11.7-15,11.7H41.2C26.7,25.3,15,37,15,51.4V156c0,10.3,8.4,18.7,18.7,18.7h43.8c0.2,0,16.6,0.7,18.8,10.7  c-0.1,1.1,0.2,2.1,0.9,2.9c0.7,0.8,1.7,1.3,2.8,1.3h0.2c1.1,0,2.1-0.8,2.8-1.6c0.5-0.6,0.8-1.5,0.8-2.3c2.2-10.9,17.8-11,18.6-11  h43.9c10.3,0,18.7-8.4,18.7-18.7V51.4C185,37,173.3,25.3,158.8,25.3z"/>
<g transform="translate(30 30) scale(0.7)"><path d="m100 40c-6.2578 0-12.21 1.3248-17.602 3.6953v-1.881h-26.283v118.19h26.283v-35.93c5.3918 2.3706 11.344 3.6953 17.602 3.6953 24.198 0 43.885-19.686 43.885-43.883s-19.686-43.883-43.885-43.883zm0 26.281c9.7064 0 17.602 7.8963 17.602 17.602 0 9.7052-7.8952 17.602-17.602 17.602-9.7064 0-17.602-7.8963-17.602-17.602 0-9.7052 7.8952-17.602 17.602-17.602z" fill="#fcfcfc"/></g></svg>
