<?xml version="1.0" encoding="utf-8"?>
<!-- Generator: Adobe Illustrator 21.1.0, SVG Export Plug-In . SVG Version: 6.00 Build 0)  -->
<svg xmlns="http://www.w3.org/2000/svg" xmlns:xlink="http://www.w3.org/1999/xlink" version="1.1" id="Layer_1" x="0px" y="0px" viewBox="0 0 200 200" enable-background="new 0 0 200 200" xml:space="preserve">
<path d="M116.1,19.4l18.1,28.9c2.6,4.1,6.7,7.1,11.4,8.3l33.1,8.3c13.6,3.4,18.9,19.8,9.9,30.5l-21.9,26.2  c-3.1,3.8-4.7,8.6-4.4,13.4l2.3,34c0.9,13.9-13,24.1-26,18.9l-31.7-12.7c-4.5-1.8-9.6-1.8-14.1,0L61.3,188c-13,5.2-26.9-4.9-26-18.9  l2.3-34c0.3-4.9-1.2-9.7-4.4-13.4L11.3,95.5c-9-10.7-3.6-27.1,9.9-30.5l33.1-8.3c4.7-1.2,8.8-4.2,11.4-8.3l18.1-28.9  C91.4,7.5,108.6,7.5,116.1,19.4z" fill="#a688fc"/>
<g transform="translate(30 30) scale(0.7)"><path d="m100 40c-6.2578 0-12.21 1.3248-17.602 3.6953v-1.881h-26.283v118.19h26.283v-35.93c5.3918 2.3706 11.344 3.6953 17.602 3.6953 24.198 0 43.885-19.686 43.885-43.883s-19.686-43.883-43.885-43.883zm0 26.281c9.7064 0 17.602 7.8963 17.602 17.602 0 9.7052-7.8952 17.602-17.602 17.602-9.7064 0-17.602-7.8963-17.602-17.602 0-9.7052 7.8952-17.602 17.602-17.602z" fill="#fcfcfc"/></g></svg>
