<?xml version="1.0" encoding="utf-8"?>
<!-- Generator: Adobe Illustrator 21.1.0, SVG Export Plug-In . SVG Version: 6.00 Build 0)  -->
<svg xmlns="http://www.w3.org/2000/svg" xmlns:xlink="http://www.w3.org/1999/xlink" version="1.1" id="Layer_1" x="0px" y="0px" viewBox="0 0 200 200" enable-background="new 0 0 200 200" xml:space="preserve">
<path fill="#3b2f4e" d="M187.5,102.1c0-24.5-10.4-46.6-27-61.9c-15.1-17-36.8-27.7-60.8-27.7c-27.3,0-51.5,13.7-66.6,34.9  C20.3,62.2,12.5,81.7,12.5,103c0,46.6,37.1,84.5,82.8,84.5c6.8,0,13.5-0.9,19.9-2.5C155.8,180.1,187.5,144.8,187.5,102.1z   M99.6,179.9c-6.7,0-13.2-0.9-19.5-2.5c-30.8-10.7-53-40.4-53-75.3c0-42.1,32.4-76.7,73.1-79.3C141.4,25.4,174,60.4,174,103  c0,23.2-9.7,44.2-25.2,58.9C135.3,173.1,118.2,179.9,99.6,179.9z M36.2,49.9c8.7-10.1,19.9-18,32.5-22.6  c-27,13.7-45.6,42.1-45.6,74.8c0,14.2,3.5,27.6,9.7,39.4c-7.6-12.5-12-27.4-12-43.2C20.9,80.1,26.6,63.4,36.2,49.9z M132.1,27.4  c9.5,3.5,18.1,8.9,25.5,15.7c12.9,14.5,20.7,33.9,20.7,55.1c0,2.9-0.2,5.8-0.4,8.6c0.1-1.3,0.1-2.5,0.1-3.8  C178,69.9,159.3,41.3,132.1,27.4z M125.1,21c-6.3-1.6-12.9-2.5-19.8-2.5c-1.7,0-3.4,0.1-5,0.2c-1.7-0.1-3.3-0.2-5-0.2  c-8.6,0-16.9,1.4-24.7,3.8c9-3.7,18.8-5.8,29.1-5.8C108.5,16.6,117.1,18.1,125.1,21z M16.5,103c0-2.8,0.2-5.7,0.4-8.4  c0,1.2-0.1,2.4-0.1,3.6c0,39.9,26.5,73.5,62.2,83c1.2,0.4,2.5,0.8,3.8,1.2C45.3,176.3,16.5,143,16.5,103z M144.8,170.6  c2.3-1.8,4.5-3.7,6.7-5.7c18.8-15.7,30.9-39.8,30.9-66.7c0-5.7-0.6-11.3-1.6-16.7c1.7,6.6,2.7,13.5,2.7,20.6  C183.5,131.3,167.9,156.8,144.8,170.6z"/>
<g transform="translate(30 30) scale(0.7)"><path d="m100 40c-6.2578 0-12.21 1.3248-17.602 3.6953v-1.881h-26.283v118.19h26.283v-35.93c5.3918 2.3706 11.344 3.6953 17.602 3.6953 24.198 0 43.885-19.686 43.885-43.883s-19.686-43.883-43.885-43.883zm0 26.281c9.7064 0 17.602 7.8963 17.602 17.602 0 9.7052-7.8952 17.602-17.602 17.602-9.7064 0-17.602-7.8963-17.602-17.602 0-9.7052 7.8952-17.602 17.602-17.602z" fill="#a688fc"/></g></svg>
