<?xml version="1.0" encoding="utf-8"?>
<!-- Generator: Adobe Illustrator 21.1.0, SVG Export Plug-In . SVG Version: 6.00 Build 0)  -->
<svg xmlns="http://www.w3.org/2000/svg" xmlns:xlink="http://www.w3.org/1999/xlink" version="1.1" id="Layer_1" x="0px" y="0px" viewBox="0 0 200 200" enable-background="new 0 0 200 200" xml:space="preserve">
<path fill="#3b2f4e" d="M114,10.2c-1.4-0.7-1.5-0.7-7.4-0.8c-3.3,0-6.2-0.1-6.4-0.2c-0.2-0.1-1.3,0-2.5,0.1c-1.1,0.1-4,0.2-6.3,0.2  c-4.1-0.1-4.3,0-5.6,0.7c-2,1-5.2,3.7-6.8,5.6c-1.7,2-3.7,4.7-3.7,5.2c0,0.2,0.8,0.7,1.9,1.3c1,0.5,2.9,1.8,4.3,2.9  c8.9,6.6,14.5,15.1,17.3,25.9c0.5,2,1,3.6,1.1,3.6c0.1,0,0.6-1.6,1.1-3.6c2.8-10.8,8.4-19.3,17.3-25.9c1.4-1,3.3-2.3,4.3-2.9  c1-0.5,1.8-1.1,1.8-1.3c0-0.4-2-3.2-3.7-5.2C119.2,13.8,115.9,11.2,114,10.2z M33.6,50.6c0,0,0.7-0.1,1.6-0.2  c3.9-0.5,11.6-0.2,15.5,0.7c7.6,1.8,13.2,4.6,19.2,9.5c1.7,1.3,3.1,2.5,3.3,2.7c0.2,0.1-0.4-1.4-1.2-3.5c-2.4-6.2-3.4-11.1-3.4-17.2  c0-3.7,0.2-5.4,0.8-9.3c0.3-2,2.1-7.3,3-9.4c1.1-2.3,1.1-2.3-0.4-2.9c-4-1.6-10.3-2.5-13.8-1.8c-1.6,0.3-2,0.5-5.4,3.2  c-1.2,0.9-3.2,2.3-4.3,3c-1.2,0.7-2.6,1.7-3.2,2.3c-1.7,1.5-3.3,2.8-6.1,4.6c-2.5,1.6-2.6,1.8-3.5,3.7c-1.8,3.7-2.6,8.1-2.4,12.7  C33.5,49.7,33.5,50.6,33.6,50.6z M131.2,37.3c0.1,0.7,0.2,3,0.2,5.2c0,6.1-1,11.1-3.4,17.3c-0.8,2.1-1.3,3.7-1.2,3.5  c0.2-0.1,1.7-1.3,3.3-2.7c6.1-4.9,11.6-7.7,19.2-9.5c3.9-0.9,11.6-1.3,15.5-0.7c0.8,0.1,1.5,0.2,1.6,0.2c0.2-0.2,0.2-4.5,0-6.5  c-0.3-3-0.9-5.3-2.1-8.1c-1-2.2-1-2.2-3.8-4c-1.5-1-3.6-2.5-4.6-3.4c-1-0.9-2.4-1.9-3-2.4c-3.3-2-5.3-3.4-7.1-4.9  c-1.1-0.9-2.5-1.8-3.1-2c-1.9-0.5-6.5-0.5-9.3,0.1c-2.4,0.5-6.4,1.7-6.7,2.1c-0.1,0.1,0.2,1,0.7,2.1  C129.1,27.2,130.4,32.1,131.2,37.3z M16.2,98.1l1,1.2l1.6-1.6c2.3-2.2,6.9-5.4,10.3-7.1c7.5-3.8,14.9-5.2,23.5-4.7  c2.2,0.1,4.1,0.2,4.1,0.1s-1.4-1.1-3.2-2.2C45.8,78.9,40.5,73,36.6,65c-1.5-3.1-3.7-9.2-3.7-10.4c0-0.7-0.5-2.5-0.8-2.5  c-0.1,0-1.3,0.4-2.6,0.8c-4.6,1.6-7.5,3.2-10.3,5.6c-0.8,0.7-1.5,1.5-1.7,1.8c-0.1,0.3-0.8,2.1-1.3,4.1s-1.4,4.4-1.9,5.5  c-0.5,1.1-1.1,3.2-1.5,4.7c-0.4,1.6-1.2,4.1-1.8,5.7c-1.2,3.3-1.3,4.1-0.6,6.9C11.5,90.8,13.6,94.8,16.2,98.1z M146.4,83.8  c-1.8,1.2-3.3,2.2-3.2,2.2s1.9,0,4.1-0.1c8.6-0.6,16.1,0.9,23.5,4.7c3.4,1.7,8,4.9,10.3,7.1l1.6,1.6l1-1.2c2.6-3.2,4.8-7.3,5.7-10.8  c0.7-2.9,0.7-3.7-0.6-6.9c-0.6-1.6-1.4-4.2-1.8-5.7c-0.4-1.6-1-3.7-1.5-4.7c-0.5-1-1.3-3.5-1.9-5.5c-1.2-4.2-1.3-4.3-2.6-5.6  c-2.6-2.4-5.3-4-9.3-5.5c-3.4-1.2-4.1-1.4-4.2-1c-0.1,0.2-0.2,1.1-0.4,2.1c-0.5,2.8-2.3,8-4,11.2C159.2,73.3,153.8,79.1,146.4,83.8z   M53.6,116.3c1.8-1.2,3.3-2.2,3.2-2.2s-1.9,0-4.1,0.1c-8.6,0.6-16.1-0.9-23.5-4.7c-3.4-1.7-8-4.9-10.3-7.1l-1.6-1.6l-1,1.2  c-2.6,3.2-4.8,7.3-5.7,10.8c-0.7,2.9-0.7,3.7,0.6,6.9c0.6,1.6,1.4,4.2,1.8,5.7c0.4,1.6,1,3.7,1.5,4.7c0.5,1,1.3,3.5,1.9,5.5  s1.2,3.8,1.3,4.1c0.4,0.7,2.8,2.8,4.5,4c3,2,9.8,4.6,10.2,3.9c0.1-0.2,0.4-1.1,0.5-2.1c0.5-2.9,2.3-8,4-11.2  C40.8,126.8,46.1,121,53.6,116.3z M188,109c-0.9-2-3.3-5.8-4.6-7.2l-0.8-0.9l-1.5,1.5c-3.2,3.2-10.2,7.5-15,9.2  c-6.5,2.3-12,3.1-18.9,2.6c-2.2-0.1-4.1-0.2-4.1-0.1s1.4,1.1,3.2,2.2c7.5,4.8,12.8,10.5,16.7,18.2c1.7,3.3,3.5,8.4,4,11.3  c0.2,1,0.4,2,0.5,2.1c0.2,0.3,4.3-1.1,6.9-2.2c3-1.3,7.1-4.4,7.8-5.8c0.1-0.3,0.8-2.1,1.3-4.1c0.6-2,1.4-4.4,1.9-5.5  c0.5-1.1,1.1-3.2,1.5-4.7c0.4-1.6,1.2-4.1,1.8-5.7c0.6-1.6,1.1-3.4,1.1-3.9C189.9,114.4,189,111.1,188,109z M73.5,136.6  c0,0-1.5,1.2-3.3,2.7c-6,4.9-11,7.4-18.1,9.3c-4.4,1.2-12.6,1.7-16.9,1.1c-0.8-0.1-1.5-0.2-1.6-0.2c-0.2,0.2-0.2,4.5,0,6.5  c0.3,3,0.9,5.3,2.1,8.1c1,2.2,1,2.2,3.8,4c1.5,1,3.6,2.5,4.6,3.4c1,0.9,2.4,1.9,3,2.4c3.3,2,5.3,3.4,7.1,4.9c1.1,0.9,2.5,1.8,3.1,2  c1.9,0.5,6.5,0.5,9.3-0.1c2.4-0.5,6.4-1.7,6.7-2.1c0.1-0.1-0.2-1.1-0.7-2.1c-2.6-5.6-4-12-4-19c0-6.1,1-11,3.4-17.2  C72.8,138.3,73.5,136.6,73.5,136.6z M164.8,149.7c-2.5,0.4-8.9,0.3-12-0.1c-8.4-1.2-15.8-4.4-22.8-10.1c-1.6-1.3-3.1-2.5-3.3-2.7  c-0.2-0.1,0.4,1.4,1.2,3.5c2.4,6.1,3.4,11.1,3.4,17.3c0,2.2-0.1,4.6-0.2,5.2c-0.7,5.2-2.1,10.1-3.8,13.7c-0.5,1-0.8,2-0.7,2.1  c0.4,0.4,4.4,1.6,6.7,2.1c2.7,0.6,7.4,0.6,9.3,0.1c0.6-0.2,2-1.1,3.1-2c1.9-1.5,3.8-2.9,7.1-4.9c0.6-0.4,2-1.5,3-2.4  c1-0.9,3.1-2.5,4.6-3.4c2.7-1.8,2.7-1.8,3.8-4c1.2-2.7,1.9-5,2.1-8.1c0.2-1.9,0.2-6.3,0-6.5C166.4,149.5,165.7,149.5,164.8,149.7z   M122.7,177.9c-1-0.5-3-1.8-4.3-2.9c-8.9-6.6-14.5-15.1-17.3-25.9c-0.5-2-1-3.6-1.1-3.6s-0.6,1.6-1.1,3.6  c-1.8,7.1-4.5,12.5-9.1,18.2c-3.1,3.8-8.5,8.4-12.5,10.6c-1,0.5-1.9,1.1-1.9,1.3c0,0.4,2,3.2,3.7,5.2c1.7,1.9,4.9,4.6,6.8,5.5  c1.4,0.7,1.6,0.7,7.5,0.8c7.4,0.1,5.7,0.1,13.1,0l6.2-0.1l1.6-0.9c3.3-1.9,6.4-4.8,9-8.6c0.6-0.9,1.1-1.7,1.1-1.9  C124.5,179.1,123.7,178.5,122.7,177.9z"/>
<g transform="translate(30 30) scale(0.7)">
  
  <defs id="defs66351"/>
  <linearGradient id="3d_gradient2-logo-11ee6763-d95f-4fbd-9fe3-395525a7d8fe" x1="30%" y1="120%" x2="-10%" y2="30%" spreadMethod="pad">
    <stop offset="0%" stop-color="#ffffff" stop-opacity="1" id="stop66328"/>
    <stop offset="100%" stop-color="#000000" stop-opacity="1" id="stop66330"/>
  </linearGradient>
  <linearGradient id="3d_gradient3-logo-11ee6763-d95f-4fbd-9fe3-395525a7d8fe" x1="30%" y1="120%" x2="-10%" y2="30%" spreadMethod="pad" gradientTransform="rotate(-30)">
    <stop offset="0%" stop-color="#ffffff" stop-opacity="1" id="stop66333"/>
    <stop offset="50%" stop-color="#cccccc" stop-opacity="1" id="stop66335"/>
    <stop offset="100%" stop-color="#000000" stop-opacity="1" id="stop66337"/>
  </linearGradient>
  <rect style="font-style:normal;font-weight:normal;font-size:medium;line-height:1;font-family:'Brandmark Sans 24 Spectrum';font-variant-ligatures:normal;text-align:center;text-anchor:middle;fill:#7c4efd;stroke:#7c4efd;stroke-width:0;stroke-linejoin:miter;stroke-miterlimit:2" id="rect11" stroke-miterlimit="2" height="118.1847" width="26.281931" class="c3" y="41.815296" x="56.115856"/>
  <path style="font-style:normal;font-weight:normal;font-size:medium;line-height:1;font-family:'Brandmark Sans 24 Spectrum';font-variant-ligatures:normal;text-align:center;text-anchor:middle;fill:#3b2f4e;stroke:#3b2f4e;stroke-width:0;stroke-linejoin:miter;stroke-miterlimit:2" id="path13" stroke-miterlimit="2" d="m 99.99998,127.76589 c -24.198323,0 -43.884115,-19.68579 -43.884115,-43.882931 0,-24.19714 19.685792,-43.882957 43.884115,-43.882957 24.19832,0 43.88412,19.685792 43.88412,43.882933 0,24.197145 -19.6858,43.882955 -43.88412,43.882955 z m 0,-61.483933 c -9.706383,0 -17.602185,7.895777 -17.602185,17.601002 0,9.70525 7.895777,17.601001 17.602185,17.601001 9.70641,0 17.60219,-7.895776 17.60219,-17.601001 0,-9.705225 -7.89581,-17.601002 -17.60219,-17.601002 z" class="c1"/>
  <path style="font-style:normal;font-weight:normal;font-size:medium;line-height:1;font-family:'Brandmark Sans 24 Spectrum';font-variant-ligatures:normal;text-align:center;text-anchor:middle;fill:#8422f4;stroke:#8422f4;stroke-width:0;stroke-linejoin:miter;stroke-miterlimit:2" id="path15" stroke-miterlimit="2" d="M 82.397795,124.0531 V 43.712846 c -15.453236,6.798253 -26.28193,22.233846 -26.28193,40.170113 0,17.936271 10.828719,33.371861 26.28193,40.170141 z" class="c2"/>
</g></svg>
